<ttFont>
<head>
    <!-- Most of this table will be recalculated by the compiler -->
    <tableVersion value="1.0"/>
    <fontRevision value="6.001"/>
    <checkSumAdjustment value="0xe53f9f13"/>
    <magicNumber value="0x5f0f3cf5"/>
    <flags value="00000000 00001011"/>
    <unitsPerEm value="2000"/>
    <created value="Mon Mar 31 23:28:34 2025"/>
    <modified value="Fri Jan 23 00:11:23 2026"/>
    <xMin value="-382"/>
    <yMin value="-811"/>
    <xMax value="1290"/>
    <yMax value="2303"/>
    <macStyle value="00000000 00000000"/>
    <lowestRecPPEM value="6"/>
    <fontDirectionHint value="2"/>
    <indexToLocFormat value="0"/>
    <glyphDataFormat value="0"/>
  </head>
    <TTGlyph name=".notdef" xMin="174" yMin="0" xMax="1026" yMax="1432">
      <contour>
        <pt x="174" y="0" on="1"/>
        <pt x="174" y="1432" on="1"/>
        <pt x="1026" y="1432" on="1"/>
        <pt x="1026" y="0" on="1"/>
      </contour>
      <contour>
        <pt x="302" y="120" on="1"/>
        <pt x="898" y="120" on="1"/>
        <pt x="898" y="1312" on="1"/>
        <pt x="302" y="1312" on="1"/>
      </contour>
    </TTGlyph>
    <TTGlyph name="A" xMin="58" yMin="0" xMax="1143" yMax="1432">
      <contour>
        <pt x="58" y="0" on="1"/>
        <pt x="503" y="1432" on="1"/>
        <pt x="700" y="1432" on="1"/>
        <pt x="1143" y="0" on="1"/>
        <pt x="947" y="0" on="1"/>
        <pt x="642" y="1063" on="1"/>
        <pt x="602" y="1218" on="1"/>
        <pt x="596" y="1218" on="1"/>
        <pt x="555" y="1063" on="1"/>
        <pt x="252" y="0" on="1"/>
      </contour>
      <contour>
        <pt x="254" y="369" on="1"/>
        <pt x="306" y="536" on="1"/>
        <pt x="892" y="536" on="1"/>
        <pt x="945" y="369" on="1"/>
      </contour>
    </TTGlyph>
    <TTGlyph name="AE" xMin="9" yMin="0" xMax="1184" yMax="1432">
      <contour>
        <pt x="9" y="0" on="1"/>
        <pt x="473" y="1432" on="1"/>
        <pt x="747" y="1432" on="1"/>
        <pt x="692" y="1252" on="1"/>
        <pt x="573" y="1252" on="1"/>
        <pt x="513" y="1023" on="1"/>
        <pt x="196" y="0" on="1"/>
      </contour>
      <contour>
        <pt x="238" y="367" on="1"/>
        <pt x="274" y="533" on="1"/>
        <pt x="669" y="533" on="1"/>
        <pt x="669" y="367" on="1"/>
      </contour>
      <contour>
        <pt x="616" y="0" on="1"/>
        <pt x="616" y="1432" on="1"/>
        <pt x="1168" y="1432" on="1"/>
        <pt x="1168" y="1261" on="1"/>
        <pt x="783" y="1261" on="1"/>
        <pt x="783" y="171" on="1"/>
        <pt x="1184" y="171" on="1"/>
        <pt x="1184" y="0" on="1"/>
      </contour>
      <contour>
        <pt x="709" y="649" on="1"/>
        <pt x="709" y="819" on="1"/>
        <pt x="1104" y="819" on="1"/>
        <pt x="1104" y="649" on="1"/>
      </contour>
    </TTGlyph>
    <TTGlyph name="AEacute" xMin="9" yMin="0" xMax="1184" yMax="1998">
      <component glyphName="AE" x="0" y="0" flags="0x4"/>
      <component glyphName="acutecomb" x="801" y="385" flags="0x4"/>
    </TTGlyph>
    <TTGlyph name="Aacute" xMin="58" yMin="0" xMax="1143" yMax="1998">
      <component glyphName="A" x="0" y="0" flags="0x4"/>
      <component glyphName="acutecomb" x="602" y="385" flags="0x4"/>
    </TTGlyph>
    <TTGlyph name="Abreve" xMin="58" yMin="0" xMax="1143" yMax="1998">
      <component glyphName="A" x="0" y="0" flags="0x4"/>
      <component glyphName="uni0306" x="602" y="385" flags="0x4"/>
    </TTGlyph>
    <TTGlyph name="Acircumflex" xMin="58" yMin="0" xMax="1143" yMax="1998">
      <component glyphName="A" x="0" y="0" flags="0x4"/>
      <component glyphName="uni0302" x="602" y="385" flags="0x4"/>
    </TTGlyph>
    <TTGlyph name="Adieresis" xMin="58" yMin="0" xMax="1143" yMax="1955">
      <component glyphName="A" x="0" y="0" flags="0x4"/>
      <component glyphName="uni0308" x="602" y="385" flags="0x4"/>
    </TTGlyph>
    <TTGlyph name="Agrave" xMin="58" yMin="0" xMax="1143" yMax="1998">
      <component glyphName="A" x="0" y="0" flags="0x4"/>
      <component glyphName="gravecomb" x="602" y="385" flags="0x4"/>
    </TTGlyph>
    <TTGlyph name="Amacron" xMin="58" yMin="0" xMax="1143" yMax="1890">
      <component glyphName="A" x="0" y="0" flags="0x4"/>
      <component glyphName="uni0304" x="602" y="385" flags="0x4"/>
    </TTGlyph>
    <TTGlyph name="Aogonek" xMin="58" yMin="-534" xMax="1187" yMax="1432">
      <component glyphName="A" x="0" y="0" flags="0x4"/>
      <component glyphName="uni0328" x="1071" y="3" flags="0x4"/>
    </TTGlyph>
    <TTGlyph name="Aring" xMin="58" yMin="0" xMax="1143" yMax="2095">
      <component glyphName="A" x="0" y="0" flags="0x4"/>
      <component glyphName="uni030A" x="602" y="385" flags="0x4"/>
    </TTGlyph>
    <TTGlyph name="Atilde" xMin="58" yMin="0" xMax="1143" yMax="2000">
      <component glyphName="A" x="0" y="0" flags="0x4"/>
      <component glyphName="tildecomb" x="602" y="385" flags="0x4"/>
    </TTGlyph>
    <TTGlyph name="B" xMin="172" yMin="0" xMax="1074" yMax="1432">
      <contour>
        <pt x="172" y="0" on="1"/>
        <pt x="172" y="1432" on="1"/>
        <pt x="618" y="1432" on="1"/>
        <pt x="805" y="1432" on="0"/>
        <pt x="1017" y="1244" on="0"/>
        <pt x="1017" y="1089" on="1"/>
        <pt x="1017" y="1061" on="1"/>
        <pt x="1017" y="949" on="0"/>
        <pt x="910" y="789" on="0"/>
        <pt x="811" y="752" on="1"/>
        <pt x="811" y="745" on="1"/>
        <pt x="934" y="719" on="0"/>
        <pt x="1074" y="538" on="0"/>
        <pt x="1074" y="407" on="1"/>
        <pt x="1074" y="379" on="1"/>
        <pt x="1074" y="265" on="0"/>
        <pt x="969" y="94" on="0"/>
        <pt x="780" y="0" on="0"/>
        <pt x="653" y="0" on="1"/>
      </contour>
      <contour>
        <pt x="354" y="164" on="1"/>
        <pt x="635" y="164" on="1"/>
        <pt x="755" y="164" on="0"/>
        <pt x="886" y="288" on="0"/>
        <pt x="886" y="403" on="1"/>
        <pt x="886" y="427" on="1"/>
        <pt x="886" y="542" on="0"/>
        <pt x="752" y="666" on="0"/>
        <pt x="624" y="666" on="1"/>
        <pt x="295" y="666" on="1"/>
        <pt x="295" y="820" on="1"/>
        <pt x="601" y="820" on="1"/>
        <pt x="711" y="820" on="0"/>
        <pt x="829" y="931" on="0"/>
        <pt x="829" y="1034" on="1"/>
        <pt x="829" y="1054" on="1"/>
        <pt x="829" y="1158" on="0"/>
        <pt x="713" y="1268" on="0"/>
        <pt x="601" y="1268" on="1"/>
        <pt x="354" y="1268" on="1"/>
      </contour>
    </TTGlyph>
    <TTGlyph name="C" xMin="100" yMin="-32" xMax="1123" yMax="1464">
      <contour>
        <pt x="653" y="-32" on="1"/>
        <pt x="484" y="-32" on="0"/>
        <pt x="235" y="146" on="0"/>
        <pt x="100" y="473" on="0"/>
        <pt x="100" y="697" on="1"/>
        <pt x="100" y="735" on="1"/>
        <pt x="100" y="962" on="0"/>
        <pt x="232" y="1289" on="0"/>
        <pt x="477" y="1464" on="0"/>
        <pt x="647" y="1464" on="1"/>
        <pt x="813" y="1464" on="0"/>
        <pt x="1048" y="1284" on="0"/>
        <pt x="1104" y="1112" on="1"/>
        <pt x="932" y="1046" on="1"/>
        <pt x="889" y="1173" on="0"/>
        <pt x="751" y="1288" on="0"/>
        <pt x="643" y="1288" on="1"/>
        <pt x="474" y="1288" on="0"/>
        <pt x="290" y="1004" on="0"/>
        <pt x="290" y="740" on="1"/>
        <pt x="290" y="692" on="1"/>
        <pt x="290" y="430" on="0"/>
        <pt x="481" y="144" on="0"/>
        <pt x="656" y="144" on="1"/>
        <pt x="873" y="144" on="0"/>
        <pt x="950" y="385" on="1"/>
        <pt x="1123" y="321" on="1"/>
        <pt x="1068" y="149" on="0"/>
        <pt x="827" y="-32" on="0"/>
      </contour>
    </TTGlyph>
    <TTGlyph name="Cacute" xMin="100" yMin="-32" xMax="1123" yMax="1998">
      <component glyphName="C" x="0" y="0" flags="0x4"/>
      <component glyphName="acutecomb" x="645" y="385" flags="0x4"/>
    </TTGlyph>
    <TTGlyph name="Ccaron" xMin="100" yMin="-32" xMax="1123" yMax="1998">
      <component glyphName="C" x="0" y="0" flags="0x4"/>
      <component glyphName="uni030C" x="645" y="385" flags="0x4"/>
    </TTGlyph>
    <TTGlyph name="Ccedilla" xMin="100" yMin="-615" xMax="1123" yMax="1464">
      <component glyphName="C" x="0" y="0" flags="0x4"/>
      <component glyphName="uni0327" x="655" y="0" flags="0x4"/>
    </TTGlyph>
    <TTGlyph name="Cdotaccent" xMin="100" yMin="-32" xMax="1123" yMax="1971">
      <component glyphName="C" x="0" y="0" flags="0x4"/>
      <component glyphName="uni0307" x="645" y="385" flags="0x4"/>
    </TTGlyph>
    <TTGlyph name="D" xMin="140" yMin="0" xMax="1096" yMax="1432">
      <contour>
        <pt x="140" y="0" on="1"/>
        <pt x="140" y="1432" on="1"/>
        <pt x="518" y="1432" on="1"/>
        <pt x="700" y="1432" on="0"/>
        <pt x="958" y="1266" on="0"/>
        <pt x="1096" y="954" on="0"/>
        <pt x="1096" y="735" on="1"/>
        <pt x="1096" y="697" on="1"/>
        <pt x="1096" y="479" on="0"/>
        <pt x="958" y="166" on="0"/>
        <pt x="700" y="0" on="0"/>
        <pt x="518" y="0" on="1"/>
      </contour>
      <contour>
        <pt x="324" y="174" on="1"/>
        <pt x="512" y="174" on="1"/>
        <pt x="707" y="174" on="0"/>
        <pt x="906" y="436" on="0"/>
        <pt x="906" y="692" on="1"/>
        <pt x="906" y="740" on="1"/>
        <pt x="906" y="996" on="0"/>
        <pt x="707" y="1258" on="0"/>
        <pt x="512" y="1258" on="1"/>
        <pt x="324" y="1258" on="1"/>
      </contour>
    </TTGlyph>
    <TTGlyph name="Dcaron" xMin="140" yMin="0" xMax="1096" yMax="1998">
      <component glyphName="D" x="0" y="0" flags="0x4"/>
      <component glyphName="uni030C" x="565" y="385" flags="0x4"/>
    </TTGlyph>
    <TTGlyph name="Dcroat" xMin="23" yMin="0" xMax="1123" yMax="1432">
      <contour>
        <pt x="194" y="0" on="1"/>
        <pt x="194" y="1432" on="1"/>
        <pt x="545" y="1432" on="1"/>
        <pt x="728" y="1432" on="0"/>
        <pt x="986" y="1266" on="0"/>
        <pt x="1123" y="955" on="0"/>
        <pt x="1123" y="735" on="1"/>
        <pt x="1123" y="697" on="1"/>
        <pt x="1123" y="477" on="0"/>
        <pt x="986" y="166" on="0"/>
        <pt x="728" y="0" on="0"/>
        <pt x="545" y="0" on="1"/>
      </contour>
      <contour>
        <pt x="23" y="651" on="1"/>
        <pt x="23" y="821" on="1"/>
        <pt x="695" y="821" on="1"/>
        <pt x="695" y="651" on="1"/>
      </contour>
      <contour>
        <pt x="368" y="172" on="1"/>
        <pt x="540" y="172" on="1"/>
        <pt x="740" y="172" on="0"/>
        <pt x="941" y="435" on="0"/>
        <pt x="941" y="692" on="1"/>
        <pt x="941" y="740" on="1"/>
        <pt x="941" y="998" on="0"/>
        <pt x="740" y="1260" on="0"/>
        <pt x="540" y="1260" on="1"/>
        <pt x="368" y="1260" on="1"/>
      </contour>
    </TTGlyph>
    <TTGlyph name="E" xMin="184" yMin="0" xMax="1010" yMax="1432">
      <contour>
        <pt x="184" y="0" on="1"/>
        <pt x="184" y="1432" on="1"/>
        <pt x="994" y="1432" on="1"/>
        <pt x="994" y="1258" on="1"/>
        <pt x="370" y="1258" on="1"/>
        <pt x="370" y="174" on="1"/>
        <pt x="1010" y="174" on="1"/>
        <pt x="1010" y="0" on="1"/>
      </contour>
      <contour>
        <pt x="292" y="647" on="1"/>
        <pt x="292" y="821" on="1"/>
        <pt x="914" y="821" on="1"/>
        <pt x="914" y="647" on="1"/>
      </contour>
    </TTGlyph>
    <TTGlyph name="Eacute" xMin="184" yMin="0" xMax="1010" yMax="1998">
      <component glyphName="E" x="0" y="0" flags="0x4"/>
      <component glyphName="acutecomb" x="589" y="385" flags="0x4"/>
    </TTGlyph>
    <TTGlyph name="Ecaron" xMin="184" yMin="0" xMax="1010" yMax="1998">
      <component glyphName="E" x="0" y="0" flags="0x4"/>
      <component glyphName="uni030C" x="589" y="385" flags="0x4"/>
    </TTGlyph>
    <TTGlyph name="Ecircumflex" xMin="184" yMin="0" xMax="1010" yMax="1998">
      <component glyphName="E" x="0" y="0" flags="0x4"/>
      <component glyphName="uni0302" x="589" y="385" flags="0x4"/>
    </TTGlyph>
    <TTGlyph name="Edieresis" xMin="184" yMin="0" xMax="1010" yMax="1955">
      <component glyphName="E" x="0" y="0" flags="0x4"/>
      <component glyphName="uni0308" x="589" y="385" flags="0x4"/>
    </TTGlyph>
    <TTGlyph name="Edotaccent" xMin="184" yMin="0" xMax="1010" yMax="1971">
      <component glyphName="E" x="0" y="0" flags="0x4"/>
      <component glyphName="uni0307" x="589" y="385" flags="0x4"/>
    </TTGlyph>
    <TTGlyph name="Egrave" xMin="184" yMin="0" xMax="1010" yMax="1998">
      <component glyphName="E" x="0" y="0" flags="0x4"/>
      <component glyphName="gravecomb" x="589" y="385" flags="0x4"/>
    </TTGlyph>
    <TTGlyph name="Emacron" xMin="184" yMin="0" xMax="1010" yMax="1890">
      <component glyphName="E" x="0" y="0" flags="0x4"/>
      <component glyphName="uni0304" x="589" y="385" flags="0x4"/>
    </TTGlyph>
    <TTGlyph name="Eng" xMin="137" yMin="-446" xMax="1093" yMax="1464">
      <contour>
        <pt x="716" y="-446" on="1"/>
        <pt x="519" y="-446" on="0"/>
        <pt x="376" y="-318" on="1"/>
        <pt x="486" y="-179" on="1"/>
        <pt x="584" y="-270" on="0"/>
        <pt x="708" y="-270" on="1"/>
        <pt x="806" y="-270" on="0"/>
        <pt x="907" y="-156" on="0"/>
        <pt x="907" y="-46" on="1"/>
        <pt x="907" y="985" on="1"/>
        <pt x="907" y="1134" on="0"/>
        <pt x="776" y="1288" on="0"/>
        <pt x="648" y="1288" on="1"/>
        <pt x="553" y="1288" on="0"/>
        <pt x="406" y="1194" on="0"/>
        <pt x="323" y="1027" on="0"/>
        <pt x="323" y="917" on="1"/>
        <pt x="323" y="0" on="1"/>
        <pt x="137" y="0" on="1"/>
        <pt x="137" y="1432" on="1"/>
        <pt x="312" y="1432" on="1"/>
        <pt x="312" y="1237" on="1"/>
        <pt x="319" y="1237" on="1"/>
        <pt x="384" y="1344" on="0"/>
        <pt x="586" y="1464" on="0"/>
        <pt x="703" y="1464" on="1"/>
        <pt x="885" y="1464" on="0"/>
        <pt x="1093" y="1225" on="0"/>
        <pt x="1093" y="1018" on="1"/>
        <pt x="1093" y="-41" on="1"/>
        <pt x="1093" y="-165" on="0"/>
        <pt x="1000" y="-347" on="0"/>
        <pt x="830" y="-446" on="0"/>
      </contour>
    </TTGlyph>
    <TTGlyph name="Eng.loclNSM" xMin="108" yMin="-446" xMax="1092" yMax="1432">
      <contour>
        <pt x="717" y="-446" on="1"/>
        <pt x="621" y="-446" on="0"/>
        <pt x="448" y="-378" on="0"/>
        <pt x="380" y="-316" on="1"/>
        <pt x="488" y="-177" on="1"/>
        <pt x="590" y="-270" on="0"/>
        <pt x="712" y="-270" on="1"/>
        <pt x="809" y="-270" on="0"/>
        <pt x="911" y="-155" on="0"/>
        <pt x="911" y="-43" on="1"/>
        <pt x="911" y="99" on="1"/>
        <pt x="934" y="0" on="1"/>
        <pt x="279" y="1138" on="1"/>
        <pt x="274" y="1138" on="1"/>
        <pt x="296" y="806" on="1"/>
        <pt x="296" y="0" on="1"/>
        <pt x="108" y="0" on="1"/>
        <pt x="108" y="1432" on="1"/>
        <pt x="298" y="1432" on="1"/>
        <pt x="920" y="334" on="1"/>
        <pt x="925" y="334" on="1"/>
        <pt x="904" y="665" on="1"/>
        <pt x="904" y="1432" on="1"/>
        <pt x="1092" y="1432" on="1"/>
        <pt x="1092" y="-41" on="1"/>
        <pt x="1092" y="-165" on="0"/>
        <pt x="999" y="-347" on="0"/>
        <pt x="830" y="-446" on="0"/>
      </contour>
    </TTGlyph>
    <TTGlyph name="Eogonek" xMin="184" yMin="-534" xMax="1054" yMax="1432">
      <component glyphName="E" x="0" y="0" flags="0x4"/>
      <component glyphName="uni0328" x="938" y="3" flags="0x4"/>
    </TTGlyph>
    <TTGlyph name="Eth" xMin="23" yMin="0" xMax="1123" yMax="1432">
      <component glyphName="Dcroat" x="0" y="0" flags="0x4"/>
    </TTGlyph>
    <TTGlyph name="Euro" xMin="17" yMin="-32" xMax="1143" yMax="1464">
      <contour>
        <pt x="723" y="-32" on="1"/>
        <pt x="561" y="-32" on="0"/>
        <pt x="331" y="125" on="0"/>
        <pt x="209" y="421" on="0"/>
        <pt x="209" y="627" on="1"/>
        <pt x="209" y="805" on="1"/>
        <pt x="209" y="1011" on="0"/>
        <pt x="331" y="1306" on="0"/>
        <pt x="559" y="1464" on="0"/>
        <pt x="719" y="1464" on="1"/>
        <pt x="865" y="1464" on="0"/>
        <pt x="1078" y="1325" on="0"/>
        <pt x="1141" y="1189" on="1"/>
        <pt x="993" y="1111" on="1"/>
        <pt x="950" y="1206" on="0"/>
        <pt x="815" y="1296" on="0"/>
        <pt x="714" y="1296" on="1"/>
        <pt x="383" y="1296" on="0"/>
        <pt x="383" y="809" on="1"/>
        <pt x="383" y="623" on="1"/>
        <pt x="383" y="381" on="0"/>
        <pt x="557" y="136" on="0"/>
        <pt x="726" y="136" on="1"/>
        <pt x="821" y="136" on="0"/>
        <pt x="952" y="229" on="0"/>
        <pt x="995" y="326" on="1"/>
        <pt x="1143" y="248" on="1"/>
        <pt x="1081" y="109" on="0"/>
        <pt x="870" y="-32" on="0"/>
      </contour>
      <contour>
        <pt x="17" y="482" on="1"/>
        <pt x="17" y="620" on="1"/>
        <pt x="873" y="620" on="1"/>
        <pt x="873" y="482" on="1"/>
      </contour>
      <contour>
        <pt x="17" y="817" on="1"/>
        <pt x="17" y="955" on="1"/>
        <pt x="873" y="955" on="1"/>
        <pt x="873" y="817" on="1"/>
      </contour>
    </TTGlyph>
    <TTGlyph name="F" xMin="184" yMin="0" xMax="1010" yMax="1432">
      <contour>
        <pt x="184" y="0" on="1"/>
        <pt x="184" y="1432" on="1"/>
        <pt x="1010" y="1432" on="1"/>
        <pt x="1010" y="1258" on="1"/>
        <pt x="370" y="1258" on="1"/>
        <pt x="370" y="0" on="1"/>
      </contour>
      <contour>
        <pt x="292" y="624" on="1"/>
        <pt x="292" y="798" on="1"/>
        <pt x="950" y="798" on="1"/>
        <pt x="950" y="624" on="1"/>
      </contour>
    </TTGlyph>
    <TTGlyph name="G" xMin="86" yMin="-32" xMax="1138" yMax="1464">
      <contour>
        <pt x="646" y="-32" on="1"/>
        <pt x="471" y="-32" on="0"/>
        <pt x="220" y="141" on="0"/>
        <pt x="86" y="465" on="0"/>
        <pt x="86" y="692" on="1"/>
        <pt x="86" y="726" on="1"/>
        <pt x="86" y="958" on="0"/>
        <pt x="220" y="1288" on="0"/>
        <pt x="471" y="1464" on="0"/>
        <pt x="647" y="1464" on="1"/>
        <pt x="813" y="1464" on="0"/>
        <pt x="1045" y="1305" on="0"/>
        <pt x="1103" y="1153" on="1"/>
        <pt x="935" y="1078" on="1"/>
        <pt x="896" y="1184" on="0"/>
        <pt x="755" y="1288" on="0"/>
        <pt x="651" y="1288" on="1"/>
        <pt x="470" y="1288" on="0"/>
        <pt x="274" y="998" on="0"/>
        <pt x="274" y="731" on="1"/>
        <pt x="274" y="687" on="1"/>
        <pt x="274" y="425" on="0"/>
        <pt x="467" y="144" on="0"/>
        <pt x="647" y="144" on="1"/>
        <pt x="799" y="144" on="0"/>
        <pt x="958" y="353" on="0"/>
        <pt x="958" y="553" on="1"/>
        <pt x="958" y="606" on="1"/>
        <pt x="627" y="606" on="1"/>
        <pt x="627" y="779" on="1"/>
        <pt x="1138" y="779" on="1"/>
        <pt x="1138" y="570" on="1"/>
        <pt x="1138" y="285" on="0"/>
        <pt x="879" y="-32" on="0"/>
      </contour>
    </TTGlyph>
    <TTGlyph name="Gbreve" xMin="86" yMin="-32" xMax="1138" yMax="1998">
      <component glyphName="G" x="0" y="0" flags="0x4"/>
      <component glyphName="uni0306" x="649" y="385" flags="0x4"/>
    </TTGlyph>
    <TTGlyph name="Gdotaccent" xMin="86" yMin="-32" xMax="1138" yMax="1971">
      <component glyphName="G" x="0" y="0" flags="0x4"/>
      <component glyphName="uni0307" x="649" y="385" flags="0x4"/>
    </TTGlyph>
    <TTGlyph name="H" xMin="160" yMin="0" xMax="1040" yMax="1432">
      <contour>
        <pt x="854" y="0" on="1"/>
        <pt x="854" y="1432" on="1"/>
        <pt x="1040" y="1432" on="1"/>
        <pt x="1040" y="0" on="1"/>
      </contour>
      <contour>
        <pt x="160" y="0" on="1"/>
        <pt x="160" y="1432" on="1"/>
        <pt x="346" y="1432" on="1"/>
        <pt x="346" y="0" on="1"/>
      </contour>
      <contour>
        <pt x="265" y="646" on="1"/>
        <pt x="265" y="820" on="1"/>
        <pt x="937" y="820" on="1"/>
        <pt x="937" y="646" on="1"/>
      </contour>
    </TTGlyph>
    <TTGlyph name="Hbar" xMin="18" yMin="0" xMax="1182" yMax="1432">
      <contour>
        <pt x="829" y="0" on="1"/>
        <pt x="829" y="1432" on="1"/>
        <pt x="1009" y="1432" on="1"/>
        <pt x="1009" y="0" on="1"/>
      </contour>
      <contour>
        <pt x="192" y="0" on="1"/>
        <pt x="192" y="1432" on="1"/>
        <pt x="372" y="1432" on="1"/>
        <pt x="372" y="0" on="1"/>
      </contour>
      <contour>
        <pt x="281" y="611" on="1"/>
        <pt x="281" y="779" on="1"/>
        <pt x="921" y="779" on="1"/>
        <pt x="921" y="611" on="1"/>
      </contour>
      <contour>
        <pt x="18" y="1035" on="1"/>
        <pt x="18" y="1195" on="1"/>
        <pt x="1182" y="1195" on="1"/>
        <pt x="1182" y="1035" on="1"/>
      </contour>
    </TTGlyph>
    <TTGlyph name="I" xMin="178" yMin="0" xMax="1022" yMax="1432">
      <contour>
        <pt x="506" y="91" on="1"/>
        <pt x="506" y="1341" on="1"/>
        <pt x="694" y="1341" on="1"/>
        <pt x="694" y="91" on="1"/>
      </contour>
      <contour>
        <pt x="178" y="0" on="1"/>
        <pt x="178" y="176" on="1"/>
        <pt x="1022" y="176" on="1"/>
        <pt x="1022" y="0" on="1"/>
      </contour>
      <contour>
        <pt x="178" y="1257" on="1"/>
        <pt x="178" y="1432" on="1"/>
        <pt x="1022" y="1432" on="1"/>
        <pt x="1022" y="1257" on="1"/>
      </contour>
    </TTGlyph>
    <TTGlyph name="IJ" xMin="160" yMin="-31" xMax="1040" yMax="1432">
      <contour>
        <pt x="615" y="-31" on="1"/>
        <pt x="446" y="-31" on="0"/>
        <pt x="213" y="152" on="0"/>
        <pt x="160" y="318" on="1"/>
        <pt x="339" y="375" on="1"/>
        <pt x="411" y="149" on="0"/>
        <pt x="613" y="149" on="1"/>
        <pt x="731" y="149" on="0"/>
        <pt x="852" y="301" on="0"/>
        <pt x="852" y="449" on="1"/>
        <pt x="852" y="1432" on="1"/>
        <pt x="1040" y="1432" on="1"/>
        <pt x="1040" y="444" on="1"/>
        <pt x="1040" y="299" on="0"/>
        <pt x="938" y="85" on="0"/>
        <pt x="748" y="-31" on="0"/>
      </contour>
      <contour>
        <pt x="160" y="585" on="1"/>
        <pt x="160" y="1432" on="1"/>
        <pt x="348" y="1432" on="1"/>
        <pt x="348" y="585" on="1"/>
      </contour>
    </TTGlyph>
    <TTGlyph name="IJacute" xMin="147" yMin="-31" xMax="1240" yMax="1998">
      <component glyphName="IJ" x="0" y="0" flags="0x4"/>
      <component glyphName="acutecomb" x="233" y="385" flags="0x4"/>
      <component glyphName="acutecomb" x="927" y="385" flags="0x4"/>
    </TTGlyph>
    <TTGlyph name="Iacute" xMin="178" yMin="0" xMax="1022" yMax="1998">
      <component glyphName="I" x="0" y="0" flags="0x4"/>
      <component glyphName="acutecomb" x="600" y="385" flags="0x4"/>
    </TTGlyph>
    <TTGlyph name="Icircumflex" xMin="178" yMin="0" xMax="1022" yMax="1998">
      <component glyphName="I" x="0" y="0" flags="0x4"/>
      <component glyphName="uni0302" x="600" y="385" flags="0x4"/>
    </TTGlyph>
    <TTGlyph name="Idieresis" xMin="178" yMin="0" xMax="1022" yMax="1955">
      <component glyphName="I" x="0" y="0" flags="0x4"/>
      <component glyphName="uni0308" x="600" y="385" flags="0x4"/>
    </TTGlyph>
    <TTGlyph name="Idotaccent" xMin="178" yMin="0" xMax="1022" yMax="1971">
      <component glyphName="I" x="0" y="0" flags="0x4"/>
      <component glyphName="uni0307" x="600" y="385" flags="0x4"/>
    </TTGlyph>
    <TTGlyph name="Igrave" xMin="178" yMin="0" xMax="1022" yMax="1998">
      <component glyphName="I" x="0" y="0" flags="0x4"/>
      <component glyphName="gravecomb" x="600" y="385" flags="0x4"/>
    </TTGlyph>
    <TTGlyph name="Imacron" xMin="178" yMin="0" xMax="1022" yMax="1890">
      <component glyphName="I" x="0" y="0" flags="0x4"/>
      <component glyphName="uni0304" x="600" y="385" flags="0x4"/>
    </TTGlyph>
    <TTGlyph name="Iogonek" xMin="178" yMin="-534" xMax="1022" yMax="1432">
      <component glyphName="I" x="0" y="0" flags="0x4"/>
      <component glyphName="uni0328" x="678" y="3" flags="0x4"/>
    </TTGlyph>
    <TTGlyph name="Itilde" xMin="178" yMin="0" xMax="1022" yMax="2000">
      <component glyphName="I" x="0" y="0" flags="0x4"/>
      <component glyphName="tildecomb" x="600" y="385" flags="0x4"/>
    </TTGlyph>
    <TTGlyph name="J" xMin="148" yMin="-32" xMax="1018" yMax="1432">
      <contour>
        <pt x="604" y="-32" on="1"/>
        <pt x="435" y="-32" on="0"/>
        <pt x="196" y="153" on="0"/>
        <pt x="148" y="319" on="1"/>
        <pt x="321" y="383" on="1"/>
        <pt x="387" y="144" on="0"/>
        <pt x="600" y="144" on="1"/>
        <pt x="715" y="144" on="0"/>
        <pt x="832" y="297" on="0"/>
        <pt x="832" y="448" on="1"/>
        <pt x="832" y="1432" on="1"/>
        <pt x="1018" y="1432" on="1"/>
        <pt x="1018" y="444" on="1"/>
        <pt x="1018" y="295" on="0"/>
        <pt x="919" y="81" on="0"/>
        <pt x="734" y="-32" on="0"/>
      </contour>
    </TTGlyph>
    <TTGlyph name="K" xMin="160" yMin="0" xMax="1150" yMax="1432">
      <contour>
        <pt x="922" y="0" on="1"/>
        <pt x="341" y="719" on="1"/>
        <pt x="341" y="725" on="1"/>
        <pt x="903" y="1432" on="1"/>
        <pt x="1127" y="1432" on="1"/>
        <pt x="526" y="690" on="1"/>
        <pt x="526" y="766" on="1"/>
        <pt x="1150" y="0" on="1"/>
      </contour>
      <contour>
        <pt x="160" y="0" on="1"/>
        <pt x="160" y="1432" on="1"/>
        <pt x="346" y="1432" on="1"/>
        <pt x="346" y="0" on="1"/>
      </contour>
    </TTGlyph>
    <TTGlyph name="L" xMin="198" yMin="0" xMax="1066" yMax="1432">
      <contour>
        <pt x="198" y="0" on="1"/>
        <pt x="198" y="1432" on="1"/>
        <pt x="384" y="1432" on="1"/>
        <pt x="384" y="176" on="1"/>
        <pt x="1066" y="176" on="1"/>
        <pt x="1066" y="0" on="1"/>
      </contour>
    </TTGlyph>
    <TTGlyph name="Lacute" xMin="198" yMin="0" xMax="1066" yMax="1998">
      <component glyphName="L" x="0" y="0" flags="0x4"/>
      <component glyphName="acutecomb" x="291" y="385" flags="0x4"/>
    </TTGlyph>
    <TTGlyph name="Lcaron" xMin="198" yMin="0" xMax="1066" yMax="1432">
      <contour>
        <pt x="624" y="936" on="1"/>
        <pt x="663" y="1432" on="1"/>
        <pt x="853" y="1432" on="1"/>
        <pt x="776" y="936" on="1"/>
      </contour>
      <contour>
        <pt x="198" y="0" on="1"/>
        <pt x="198" y="1432" on="1"/>
        <pt x="384" y="1432" on="1"/>
        <pt x="384" y="176" on="1"/>
        <pt x="1066" y="176" on="1"/>
        <pt x="1066" y="0" on="1"/>
      </contour>
    </TTGlyph>
    <TTGlyph name="Ldot" xMin="198" yMin="0" xMax="1066" yMax="1432">
      <component glyphName="L" x="0" y="0" flags="0x4"/>
      <component glyphName="period" x="285" y="656" flags="0x4"/>
    </TTGlyph>
    <TTGlyph name="Lslash" xMin="11" yMin="0" xMax="1099" yMax="1432">
      <contour>
        <pt x="284" y="0" on="1"/>
        <pt x="284" y="1432" on="1"/>
        <pt x="464" y="1432" on="1"/>
        <pt x="464" y="176" on="1"/>
        <pt x="1099" y="176" on="1"/>
        <pt x="1099" y="0" on="1"/>
      </contour>
      <contour>
        <pt x="11" y="400" on="1"/>
        <pt x="11" y="593" on="1"/>
        <pt x="321" y="780" on="1"/>
        <pt x="398" y="812" on="1"/>
        <pt x="939" y="1136" on="1"/>
        <pt x="939" y="944" on="1"/>
        <pt x="372" y="608" on="1"/>
        <pt x="308" y="583" on="1"/>
      </contour>
    </TTGlyph>
    <TTGlyph name="M" xMin="87" yMin="0" xMax="1113" yMax="1432">
      <contour>
        <pt x="87" y="0" on="1"/>
        <pt x="87" y="1432" on="1"/>
        <pt x="267" y="1432" on="1"/>
        <pt x="512" y="886" on="1"/>
        <pt x="597" y="665" on="1"/>
        <pt x="603" y="665" on="1"/>
        <pt x="688" y="886" on="1"/>
        <pt x="933" y="1432" on="1"/>
        <pt x="1113" y="1432" on="1"/>
        <pt x="1113" y="0" on="1"/>
        <pt x="937" y="0" on="1"/>
        <pt x="937" y="755" on="1"/>
        <pt x="957" y="1127" on="1"/>
        <pt x="951" y="1127" on="1"/>
        <pt x="665" y="459" on="1"/>
        <pt x="535" y="459" on="1"/>
        <pt x="249" y="1127" on="1"/>
        <pt x="243" y="1127" on="1"/>
        <pt x="263" y="755" on="1"/>
        <pt x="263" y="0" on="1"/>
      </contour>
    </TTGlyph>
    <TTGlyph name="N" xMin="108" yMin="0" xMax="1092" yMax="1432">
      <contour>
        <pt x="108" y="0" on="1"/>
        <pt x="108" y="1432" on="1"/>
        <pt x="298" y="1432" on="1"/>
        <pt x="920" y="340" on="1"/>
        <pt x="925" y="340" on="1"/>
        <pt x="904" y="671" on="1"/>
        <pt x="904" y="1432" on="1"/>
        <pt x="1092" y="1432" on="1"/>
        <pt x="1092" y="0" on="1"/>
        <pt x="928" y="0" on="1"/>
        <pt x="279" y="1138" on="1"/>
        <pt x="274" y="1138" on="1"/>
        <pt x="296" y="806" on="1"/>
        <pt x="296" y="0" on="1"/>
      </contour>
    </TTGlyph>
    <TTGlyph name="Nacute" xMin="108" yMin="0" xMax="1092" yMax="1998">
      <component glyphName="N" x="0" y="0" flags="0x4"/>
      <component glyphName="acutecomb" x="601" y="385" flags="0x4"/>
    </TTGlyph>
    <TTGlyph name="Ncaron" xMin="108" yMin="0" xMax="1092" yMax="1998">
      <component glyphName="N" x="0" y="0" flags="0x4"/>
      <component glyphName="uni030C" x="601" y="385" flags="0x4"/>
    </TTGlyph>
    <TTGlyph name="Ntilde" xMin="108" yMin="0" xMax="1092" yMax="2000">
      <component glyphName="N" x="0" y="0" flags="0x4"/>
      <component glyphName="tildecomb" x="601" y="385" flags="0x4"/>
    </TTGlyph>
    <TTGlyph name="O" xMin="76" yMin="-32" xMax="1124" yMax="1464">
      <contour>
        <pt x="600" y="-32" on="1"/>
        <pt x="438" y="-32" on="0"/>
        <pt x="203" y="145" on="0"/>
        <pt x="76" y="471" on="0"/>
        <pt x="76" y="697" on="1"/>
        <pt x="76" y="735" on="1"/>
        <pt x="76" y="961" on="0"/>
        <pt x="203" y="1287" on="0"/>
        <pt x="438" y="1464" on="0"/>
        <pt x="600" y="1464" on="1"/>
        <pt x="762" y="1464" on="0"/>
        <pt x="997" y="1287" on="0"/>
        <pt x="1124" y="961" on="0"/>
        <pt x="1124" y="735" on="1"/>
        <pt x="1124" y="697" on="1"/>
        <pt x="1124" y="471" on="0"/>
        <pt x="997" y="145" on="0"/>
        <pt x="762" y="-32" on="0"/>
      </contour>
      <contour>
        <pt x="600" y="144" on="1"/>
        <pt x="761" y="144" on="0"/>
        <pt x="934" y="428" on="0"/>
        <pt x="934" y="692" on="1"/>
        <pt x="934" y="740" on="1"/>
        <pt x="934" y="1002" on="0"/>
        <pt x="759" y="1288" on="0"/>
        <pt x="600" y="1288" on="1"/>
        <pt x="441" y="1288" on="0"/>
        <pt x="266" y="1002" on="0"/>
        <pt x="266" y="740" on="1"/>
        <pt x="266" y="692" on="1"/>
        <pt x="266" y="428" on="0"/>
        <pt x="440" y="144" on="0"/>
      </contour>
    </TTGlyph>
    <TTGlyph name="OE" xMin="36" yMin="-31" xMax="1181" yMax="1463">
      <contour>
        <pt x="398" y="-31" on="1"/>
        <pt x="229" y="-31" on="0"/>
        <pt x="36" y="351" on="0"/>
        <pt x="36" y="691" on="1"/>
        <pt x="36" y="741" on="1"/>
        <pt x="36" y="1082" on="0"/>
        <pt x="229" y="1463" on="0"/>
        <pt x="398" y="1463" on="1"/>
        <pt x="493" y="1463" on="0"/>
        <pt x="627" y="1330" on="0"/>
        <pt x="658" y="1204" on="1"/>
        <pt x="669" y="1204" on="1"/>
        <pt x="669" y="1432" on="1"/>
        <pt x="1165" y="1432" on="1"/>
        <pt x="1165" y="1261" on="1"/>
        <pt x="798" y="1261" on="1"/>
        <pt x="798" y="171" on="1"/>
        <pt x="1181" y="171" on="1"/>
        <pt x="1181" y="0" on="1"/>
        <pt x="671" y="0" on="1"/>
        <pt x="671" y="228" on="1"/>
        <pt x="658" y="228" on="1"/>
        <pt x="627" y="102" on="0"/>
        <pt x="493" y="-31" on="0"/>
      </contour>
      <contour>
        <pt x="425" y="143" on="1"/>
        <pt x="527" y="143" on="0"/>
        <pt x="631" y="417" on="0"/>
        <pt x="631" y="678" on="1"/>
        <pt x="631" y="754" on="1"/>
        <pt x="631" y="1016" on="0"/>
        <pt x="527" y="1290" on="0"/>
        <pt x="425" y="1290" on="1"/>
        <pt x="322" y="1290" on="0"/>
        <pt x="215" y="1012" on="0"/>
        <pt x="215" y="746" on="1"/>
        <pt x="215" y="686" on="1"/>
        <pt x="215" y="421" on="0"/>
        <pt x="322" y="143" on="0"/>
      </contour>
      <contour>
        <pt x="730" y="649" on="1"/>
        <pt x="730" y="819" on="1"/>
        <pt x="1101" y="819" on="1"/>
        <pt x="1101" y="649" on="1"/>
      </contour>
    </TTGlyph>
    <TTGlyph name="Oacute" xMin="76" yMin="-32" xMax="1124" yMax="1998">
      <component glyphName="O" x="0" y="0" flags="0x4"/>
      <component glyphName="acutecomb" x="600" y="385" flags="0x4"/>
    </TTGlyph>
    <TTGlyph name="Ocircumflex" xMin="76" yMin="-32" xMax="1124" yMax="1998">
      <component glyphName="O" x="0" y="0" flags="0x4"/>
      <component glyphName="uni0302" x="600" y="385" flags="0x4"/>
    </TTGlyph>
    <TTGlyph name="Odieresis" xMin="76" yMin="-32" xMax="1124" yMax="1955">
      <component glyphName="O" x="0" y="0" flags="0x4"/>
      <component glyphName="uni0308" x="600" y="385" flags="0x4"/>
    </TTGlyph>
    <TTGlyph name="Ograve" xMin="76" yMin="-32" xMax="1124" yMax="1998">
      <component glyphName="O" x="0" y="0" flags="0x4"/>
      <component glyphName="gravecomb" x="600" y="385" flags="0x4"/>
    </TTGlyph>
    <TTGlyph name="Ohorn" xMin="77" yMin="-32" xMax="1184" yMax="1808">
      <contour>
        <pt x="599" y="-32" on="1"/>
        <pt x="438" y="-32" on="0"/>
        <pt x="203" y="145" on="0"/>
        <pt x="77" y="471" on="0"/>
        <pt x="77" y="697" on="1"/>
        <pt x="77" y="735" on="1"/>
        <pt x="77" y="964" on="0"/>
        <pt x="206" y="1290" on="0"/>
        <pt x="444" y="1463" on="0"/>
        <pt x="607" y="1463" on="1"/>
        <pt x="675" y="1463" on="0"/>
        <pt x="777" y="1448" on="0"/>
        <pt x="834" y="1448" on="1"/>
        <pt x="914" y="1448" on="0"/>
        <pt x="996" y="1509" on="0"/>
        <pt x="996" y="1567" on="1"/>
        <pt x="996" y="1600" on="0"/>
        <pt x="971" y="1666" on="0"/>
        <pt x="942" y="1704" on="1"/>
        <pt x="1108" y="1808" on="1"/>
        <pt x="1184" y="1702" on="0"/>
        <pt x="1184" y="1596" on="1"/>
        <pt x="1184" y="1479" on="0"/>
        <pt x="1011" y="1349" on="0"/>
        <pt x="869" y="1349" on="1"/>
        <pt x="764" y="1349" on="1"/>
        <pt x="771" y="1415" on="1"/>
        <pt x="940" y="1345" on="0"/>
        <pt x="1122" y="993" on="0"/>
        <pt x="1122" y="735" on="1"/>
        <pt x="1122" y="697" on="1"/>
        <pt x="1122" y="471" on="0"/>
        <pt x="996" y="145" on="0"/>
        <pt x="761" y="-32" on="0"/>
      </contour>
      <contour>
        <pt x="599" y="144" on="1"/>
        <pt x="760" y="144" on="0"/>
        <pt x="933" y="428" on="0"/>
        <pt x="933" y="692" on="1"/>
        <pt x="933" y="744" on="1"/>
        <pt x="933" y="1013" on="0"/>
        <pt x="769" y="1292" on="0"/>
        <pt x="607" y="1292" on="1"/>
        <pt x="444" y="1292" on="0"/>
        <pt x="265" y="1003" on="0"/>
        <pt x="265" y="740" on="1"/>
        <pt x="265" y="692" on="1"/>
        <pt x="265" y="428" on="0"/>
        <pt x="439" y="144" on="0"/>
      </contour>
    </TTGlyph>
    <TTGlyph name="Ohorn.alt" xMin="77" yMin="-31" xMax="1186" yMax="1733">
      <contour>
        <pt x="599" y="-31" on="1"/>
        <pt x="438" y="-31" on="0"/>
        <pt x="203" y="146" on="0"/>
        <pt x="77" y="472" on="0"/>
        <pt x="77" y="697" on="1"/>
        <pt x="77" y="735" on="1"/>
        <pt x="77" y="961" on="0"/>
        <pt x="204" y="1287" on="0"/>
        <pt x="441" y="1463" on="0"/>
        <pt x="607" y="1463" on="1"/>
        <pt x="673" y="1463" on="0"/>
        <pt x="785" y="1446" on="0"/>
        <pt x="840" y="1446" on="1"/>
        <pt x="991" y="1446" on="0"/>
        <pt x="991" y="1553" on="1"/>
        <pt x="991" y="1580" on="0"/>
        <pt x="976" y="1634" on="0"/>
        <pt x="962" y="1662" on="1"/>
        <pt x="1146" y="1733" on="1"/>
        <pt x="1186" y="1655" on="0"/>
        <pt x="1186" y="1579" on="1"/>
        <pt x="1186" y="1471" on="0"/>
        <pt x="1019" y="1349" on="0"/>
        <pt x="867" y="1349" on="1"/>
        <pt x="753" y="1349" on="1"/>
        <pt x="765" y="1412" on="1"/>
        <pt x="938" y="1342" on="0"/>
        <pt x="1122" y="995" on="0"/>
        <pt x="1122" y="735" on="1"/>
        <pt x="1122" y="697" on="1"/>
        <pt x="1122" y="472" on="0"/>
        <pt x="996" y="146" on="0"/>
        <pt x="761" y="-31" on="0"/>
      </contour>
      <contour>
        <pt x="599" y="145" on="1"/>
        <pt x="760" y="145" on="0"/>
        <pt x="933" y="428" on="0"/>
        <pt x="933" y="692" on="1"/>
        <pt x="933" y="744" on="1"/>
        <pt x="933" y="1013" on="0"/>
        <pt x="768" y="1292" on="0"/>
        <pt x="607" y="1292" on="1"/>
        <pt x="444" y="1292" on="0"/>
        <pt x="265" y="1004" on="0"/>
        <pt x="265" y="740" on="1"/>
        <pt x="265" y="692" on="1"/>
        <pt x="265" y="428" on="0"/>
        <pt x="439" y="145" on="0"/>
      </contour>
    </TTGlyph>
    <TTGlyph name="Ohungarumlaut" xMin="76" yMin="-32" xMax="1124" yMax="1998">
      <component glyphName="O" x="0" y="0" flags="0x4"/>
      <component glyphName="uni030B" x="600" y="385" flags="0x4"/>
    </TTGlyph>
    <TTGlyph name="Omacron" xMin="76" yMin="-32" xMax="1124" yMax="1890">
      <component glyphName="O" x="0" y="0" flags="0x4"/>
      <component glyphName="uni0304" x="600" y="385" flags="0x4"/>
    </TTGlyph>
    <TTGlyph name="Oslash" xMin="54" yMin="-180" xMax="1146" yMax="1612">
      <contour>
        <pt x="185" y="-180" on="1"/>
        <pt x="54" y="-107" on="1"/>
        <pt x="1015" y="1612" on="1"/>
        <pt x="1146" y="1539" on="1"/>
      </contour>
      <contour>
        <pt x="602" y="-32" on="1"/>
        <pt x="445" y="-32" on="0"/>
        <pt x="208" y="150" on="0"/>
        <pt x="75" y="477" on="0"/>
        <pt x="75" y="697" on="1"/>
        <pt x="75" y="735" on="1"/>
        <pt x="75" y="961" on="0"/>
        <pt x="202" y="1288" on="0"/>
        <pt x="437" y="1464" on="0"/>
        <pt x="598" y="1464" on="1"/>
        <pt x="755" y="1464" on="0"/>
        <pt x="992" y="1283" on="0"/>
        <pt x="1125" y="955" on="0"/>
        <pt x="1125" y="735" on="1"/>
        <pt x="1125" y="697" on="1"/>
        <pt x="1125" y="471" on="0"/>
        <pt x="999" y="145" on="0"/>
        <pt x="764" y="-32" on="0"/>
      </contour>
      <contour>
        <pt x="596" y="134" on="1"/>
        <pt x="766" y="134" on="0"/>
        <pt x="947" y="421" on="0"/>
        <pt x="947" y="690" on="1"/>
        <pt x="947" y="746" on="1"/>
        <pt x="947" y="1021" on="0"/>
        <pt x="779" y="1298" on="0"/>
        <pt x="604" y="1298" on="1"/>
        <pt x="435" y="1298" on="0"/>
        <pt x="253" y="1010" on="0"/>
        <pt x="253" y="742" on="1"/>
        <pt x="253" y="686" on="1"/>
        <pt x="253" y="409" on="0"/>
        <pt x="421" y="134" on="0"/>
      </contour>
    </TTGlyph>
    <TTGlyph name="Otilde" xMin="76" yMin="-32" xMax="1124" yMax="2000">
      <component glyphName="O" x="0" y="0" flags="0x4"/>
      <component glyphName="tildecomb" x="600" y="385" flags="0x4"/>
    </TTGlyph>
    <TTGlyph name="P" xMin="162" yMin="0" xMax="1060" yMax="1432">
      <contour>
        <pt x="162" y="0" on="1"/>
        <pt x="162" y="1432" on="1"/>
        <pt x="614" y="1432" on="1"/>
        <pt x="748" y="1432" on="0"/>
        <pt x="948" y="1322" on="0"/>
        <pt x="1060" y="1123" on="0"/>
        <pt x="1060" y="991" on="1"/>
        <pt x="1060" y="963" on="1"/>
        <pt x="1060" y="831" on="0"/>
        <pt x="948" y="633" on="0"/>
        <pt x="748" y="522" on="0"/>
        <pt x="614" y="522" on="1"/>
        <pt x="267" y="522" on="1"/>
        <pt x="267" y="694" on="1"/>
        <pt x="609" y="694" on="1"/>
        <pt x="734" y="694" on="0"/>
        <pt x="872" y="834" on="0"/>
        <pt x="872" y="959" on="1"/>
        <pt x="872" y="997" on="1"/>
        <pt x="872" y="1122" on="0"/>
        <pt x="734" y="1260" on="0"/>
        <pt x="609" y="1260" on="1"/>
        <pt x="346" y="1260" on="1"/>
        <pt x="346" y="0" on="1"/>
      </contour>
    </TTGlyph>
    <TTGlyph name="Q" xMin="76" yMin="-378" xMax="1183" yMax="1464">
      <contour>
        <pt x="597" y="-16" on="1"/>
        <pt x="438" y="-16" on="0"/>
        <pt x="204" y="158" on="0"/>
        <pt x="76" y="478" on="0"/>
        <pt x="76" y="697" on="1"/>
        <pt x="76" y="735" on="1"/>
        <pt x="76" y="961" on="0"/>
        <pt x="203" y="1288" on="0"/>
        <pt x="438" y="1464" on="0"/>
        <pt x="600" y="1464" on="1"/>
        <pt x="762" y="1464" on="0"/>
        <pt x="997" y="1288" on="0"/>
        <pt x="1124" y="961" on="0"/>
        <pt x="1124" y="735" on="1"/>
        <pt x="1124" y="697" on="1"/>
        <pt x="1124" y="478" on="0"/>
        <pt x="997" y="158" on="0"/>
        <pt x="761" y="-16" on="0"/>
      </contour>
      <contour>
        <pt x="1042" y="-378" on="1"/>
        <pt x="945" y="-378" on="0"/>
        <pt x="795" y="-288" on="0"/>
        <pt x="719" y="-185" on="1"/>
        <pt x="674" y="-123" on="0"/>
        <pt x="609" y="-57" on="0"/>
        <pt x="550" y="-31" on="0"/>
        <pt x="513" y="-31" on="1"/>
        <pt x="446" y="-31" on="0"/>
        <pt x="365" y="-144" on="0"/>
        <pt x="348" y="-263" on="1"/>
        <pt x="157" y="-231" on="1"/>
        <pt x="183" y="-61" on="0"/>
        <pt x="369" y="120" on="0"/>
        <pt x="511" y="120" on="1"/>
        <pt x="606" y="120" on="0"/>
        <pt x="755" y="40" on="0"/>
        <pt x="820" y="-43" on="1"/>
        <pt x="891" y="-134" on="0"/>
        <pt x="985" y="-198" on="0"/>
        <pt x="1048" y="-198" on="1"/>
        <pt x="1096" y="-198" on="0"/>
        <pt x="1142" y="-178" on="1"/>
        <pt x="1183" y="-350" on="1"/>
        <pt x="1118" y="-378" on="0"/>
      </contour>
      <contour>
        <pt x="600" y="126" on="1"/>
        <pt x="759" y="126" on="0"/>
        <pt x="934" y="420" on="0"/>
        <pt x="934" y="691" on="1"/>
        <pt x="934" y="739" on="1"/>
        <pt x="934" y="1002" on="0"/>
        <pt x="759" y="1288" on="0"/>
        <pt x="600" y="1288" on="1"/>
        <pt x="441" y="1288" on="0"/>
        <pt x="266" y="1002" on="0"/>
        <pt x="266" y="739" on="1"/>
        <pt x="266" y="691" on="1"/>
        <pt x="266" y="420" on="0"/>
        <pt x="441" y="126" on="0"/>
      </contour>
    </TTGlyph>
    <TTGlyph name="R" xMin="160" yMin="0" xMax="1146" yMax="1432">
      <contour>
        <pt x="160" y="0" on="1"/>
        <pt x="160" y="1432" on="1"/>
        <pt x="602" y="1432" on="1"/>
        <pt x="741" y="1432" on="0"/>
        <pt x="945" y="1328" on="0"/>
        <pt x="1058" y="1138" on="0"/>
        <pt x="1058" y="1010" on="1"/>
        <pt x="1058" y="990" on="1"/>
        <pt x="1058" y="862" on="0"/>
        <pt x="945" y="672" on="0"/>
        <pt x="740" y="568" on="0"/>
        <pt x="602" y="568" on="1"/>
        <pt x="264" y="568" on="1"/>
        <pt x="264" y="734" on="1"/>
        <pt x="598" y="734" on="1"/>
        <pt x="726" y="734" on="0"/>
        <pt x="870" y="866" on="0"/>
        <pt x="870" y="982" on="1"/>
        <pt x="870" y="1012" on="1"/>
        <pt x="870" y="1128" on="0"/>
        <pt x="726" y="1260" on="0"/>
        <pt x="598" y="1260" on="1"/>
        <pt x="344" y="1260" on="1"/>
        <pt x="344" y="0" on="1"/>
      </contour>
      <contour>
        <pt x="935" y="0" on="1"/>
        <pt x="540" y="643" on="1"/>
        <pt x="744" y="643" on="1"/>
        <pt x="1146" y="0" on="1"/>
      </contour>
    </TTGlyph>
    <TTGlyph name="Racute" xMin="160" yMin="0" xMax="1146" yMax="1998">
      <component glyphName="R" x="0" y="0" flags="0x4"/>
      <component glyphName="acutecomb" x="525" y="385" flags="0x4"/>
    </TTGlyph>
    <TTGlyph name="Rcaron" xMin="156" yMin="0" xMax="1146" yMax="1998">
      <component glyphName="R" x="0" y="0" flags="0x4"/>
      <component glyphName="uni030C" x="525" y="385" flags="0x4"/>
    </TTGlyph>
    <TTGlyph name="S" xMin="90" yMin="-32" xMax="1102" yMax="1464">
      <contour>
        <pt x="641" y="-32" on="1"/>
        <pt x="509" y="-32" on="0"/>
        <pt x="290" y="60" on="0"/>
        <pt x="132" y="234" on="0"/>
        <pt x="90" y="356" on="1"/>
        <pt x="263" y="419" on="1"/>
        <pt x="310" y="283" on="0"/>
        <pt x="501" y="143" on="0"/>
        <pt x="638" y="143" on="1"/>
        <pt x="769" y="143" on="0"/>
        <pt x="916" y="259" on="0"/>
        <pt x="916" y="361" on="1"/>
        <pt x="916" y="378" on="1"/>
        <pt x="916" y="463" on="0"/>
        <pt x="802" y="577" on="0"/>
        <pt x="671" y="623" on="1"/>
        <pt x="474" y="692" on="1"/>
        <pt x="171" y="798" on="0"/>
        <pt x="171" y="1066" on="1"/>
        <pt x="171" y="1073" on="1"/>
        <pt x="171" y="1190" on="0"/>
        <pt x="284" y="1366" on="0"/>
        <pt x="487" y="1464" on="0"/>
        <pt x="620" y="1464" on="1"/>
        <pt x="799" y="1464" on="0"/>
        <pt x="1042" y="1304" on="0"/>
        <pt x="1098" y="1148" on="1"/>
        <pt x="926" y="1083" on="1"/>
        <pt x="853" y="1289" on="0"/>
        <pt x="621" y="1289" on="1"/>
        <pt x="502" y="1289" on="0"/>
        <pt x="357" y="1177" on="0"/>
        <pt x="357" y="1083" on="1"/>
        <pt x="357" y="1071" on="1"/>
        <pt x="357" y="998" on="0"/>
        <pt x="451" y="897" on="0"/>
        <pt x="554" y="861" on="1"/>
        <pt x="751" y="792" on="1"/>
        <pt x="933" y="728" on="0"/>
        <pt x="1102" y="526" on="0"/>
        <pt x="1102" y="374" on="1"/>
        <pt x="1102" y="366" on="1"/>
        <pt x="1102" y="246" on="0"/>
        <pt x="986" y="67" on="0"/>
        <pt x="779" y="-32" on="0"/>
      </contour>
    </TTGlyph>
    <TTGlyph name="Sacute" xMin="90" yMin="-32" xMax="1102" yMax="1998">
      <component glyphName="S" x="0" y="0" flags="0x4"/>
      <component glyphName="acutecomb" x="621" y="385" flags="0x4"/>
    </TTGlyph>
    <TTGlyph name="Scaron" xMin="90" yMin="-32" xMax="1102" yMax="1998">
      <component glyphName="S" x="0" y="0" flags="0x4"/>
      <component glyphName="uni030C" x="621" y="385" flags="0x4"/>
    </TTGlyph>
    <TTGlyph name="Scedilla" xMin="90" yMin="-615" xMax="1102" yMax="1464">
      <component glyphName="S" x="0" y="0" flags="0x4"/>
      <component glyphName="uni0327" x="638" y="0" flags="0x4"/>
    </TTGlyph>
    <TTGlyph name="T" xMin="108" yMin="0" xMax="1092" yMax="1432">
      <contour>
        <pt x="507" y="0" on="1"/>
        <pt x="507" y="1350" on="1"/>
        <pt x="693" y="1350" on="1"/>
        <pt x="693" y="0" on="1"/>
      </contour>
      <contour>
        <pt x="108" y="1256" on="1"/>
        <pt x="108" y="1432" on="1"/>
        <pt x="1092" y="1432" on="1"/>
        <pt x="1092" y="1256" on="1"/>
      </contour>
    </TTGlyph>
    <TTGlyph name="Tcaron" xMin="108" yMin="0" xMax="1092" yMax="1998">
      <component glyphName="T" x="0" y="0" flags="0x4"/>
      <component glyphName="uni030C" x="600" y="385" flags="0x4"/>
    </TTGlyph>
    <TTGlyph name="Thorn" xMin="161" yMin="0" xMax="1061" yMax="1432">
      <contour>
        <pt x="268" y="325" on="1"/>
        <pt x="268" y="495" on="1"/>
        <pt x="599" y="495" on="1"/>
        <pt x="732" y="495" on="0"/>
        <pt x="875" y="628" on="0"/>
        <pt x="875" y="750" on="1"/>
        <pt x="875" y="768" on="1"/>
        <pt x="875" y="890" on="0"/>
        <pt x="732" y="1023" on="0"/>
        <pt x="599" y="1023" on="1"/>
        <pt x="268" y="1023" on="1"/>
        <pt x="268" y="1193" on="1"/>
        <pt x="603" y="1193" on="1"/>
        <pt x="742" y="1193" on="0"/>
        <pt x="947" y="1086" on="0"/>
        <pt x="1061" y="893" on="0"/>
        <pt x="1061" y="762" on="1"/>
        <pt x="1061" y="755" on="1"/>
        <pt x="1061" y="625" on="0"/>
        <pt x="948" y="432" on="0"/>
        <pt x="742" y="325" on="0"/>
        <pt x="603" y="325" on="1"/>
      </contour>
      <contour>
        <pt x="161" y="0" on="1"/>
        <pt x="161" y="1432" on="1"/>
        <pt x="345" y="1432" on="1"/>
        <pt x="345" y="0" on="1"/>
      </contour>
    </TTGlyph>
    <TTGlyph name="U" xMin="142" yMin="-32" xMax="1058" yMax="1432">
      <contour>
        <pt x="600" y="-32" on="1"/>
        <pt x="464" y="-32" on="0"/>
        <pt x="257" y="89" on="0"/>
        <pt x="142" y="305" on="0"/>
        <pt x="142" y="447" on="1"/>
        <pt x="142" y="1432" on="1"/>
        <pt x="328" y="1432" on="1"/>
        <pt x="328" y="458" on="1"/>
        <pt x="328" y="313" on="0"/>
        <pt x="474" y="144" on="0"/>
        <pt x="600" y="144" on="1"/>
        <pt x="727" y="144" on="0"/>
        <pt x="872" y="313" on="0"/>
        <pt x="872" y="458" on="1"/>
        <pt x="872" y="1432" on="1"/>
        <pt x="1058" y="1432" on="1"/>
        <pt x="1058" y="447" on="1"/>
        <pt x="1058" y="305" on="0"/>
        <pt x="943" y="89" on="0"/>
        <pt x="737" y="-32" on="0"/>
      </contour>
    </TTGlyph>
    <TTGlyph name="Uacute" xMin="142" yMin="-32" xMax="1058" yMax="1998">
      <component glyphName="U" x="0" y="0" flags="0x4"/>
      <component glyphName="acutecomb" x="600" y="385" flags="0x4"/>
    </TTGlyph>
    <TTGlyph name="Ucircumflex" xMin="142" yMin="-32" xMax="1058" yMax="1998">
      <component glyphName="U" x="0" y="0" flags="0x4"/>
      <component glyphName="uni0302" x="600" y="385" flags="0x4"/>
    </TTGlyph>
    <TTGlyph name="Udieresis" xMin="142" yMin="-32" xMax="1058" yMax="1955">
      <component glyphName="U" x="0" y="0" flags="0x4"/>
      <component glyphName="uni0308" x="600" y="385" flags="0x4"/>
    </TTGlyph>
    <TTGlyph name="Ugrave" xMin="142" yMin="-32" xMax="1058" yMax="1998">
      <component glyphName="U" x="0" y="0" flags="0x4"/>
      <component glyphName="gravecomb" x="600" y="385" flags="0x4"/>
    </TTGlyph>
    <TTGlyph name="Uhorn" xMin="103" yMin="-31" xMax="1181" yMax="1808">
      <contour>
        <pt x="530" y="-31" on="1"/>
        <pt x="403" y="-31" on="0"/>
        <pt x="211" y="80" on="0"/>
        <pt x="103" y="278" on="0"/>
        <pt x="103" y="409" on="1"/>
        <pt x="103" y="1432" on="1"/>
        <pt x="286" y="1432" on="1"/>
        <pt x="286" y="420" on="1"/>
        <pt x="286" y="293" on="0"/>
        <pt x="417" y="146" on="0"/>
        <pt x="531" y="146" on="1"/>
        <pt x="644" y="146" on="0"/>
        <pt x="775" y="293" on="0"/>
        <pt x="775" y="420" on="1"/>
        <pt x="775" y="1432" on="1"/>
        <pt x="834" y="1432" on="1"/>
        <pt x="911" y="1432" on="0"/>
        <pt x="993" y="1496" on="0"/>
        <pt x="993" y="1555" on="1"/>
        <pt x="993" y="1592" on="0"/>
        <pt x="964" y="1663" on="0"/>
        <pt x="933" y="1705" on="1"/>
        <pt x="1096" y="1808" on="1"/>
        <pt x="1139" y="1750" on="0"/>
        <pt x="1181" y="1638" on="0"/>
        <pt x="1181" y="1578" on="1"/>
        <pt x="1181" y="1460" on="0"/>
        <pt x="1009" y="1324" on="0"/>
        <pt x="865" y="1324" on="1"/>
        <pt x="829" y="1324" on="1"/>
        <pt x="957" y="1410" on="1"/>
        <pt x="957" y="409" on="1"/>
        <pt x="957" y="278" on="0"/>
        <pt x="850" y="80" on="0"/>
        <pt x="658" y="-31" on="0"/>
      </contour>
    </TTGlyph>
    <TTGlyph name="Uhorn.alt" xMin="103" yMin="-32" xMax="1185" yMax="1736">
      <contour>
        <pt x="530" y="-32" on="1"/>
        <pt x="402" y="-32" on="0"/>
        <pt x="210" y="80" on="0"/>
        <pt x="103" y="279" on="0"/>
        <pt x="103" y="409" on="1"/>
        <pt x="103" y="1432" on="1"/>
        <pt x="286" y="1432" on="1"/>
        <pt x="286" y="420" on="1"/>
        <pt x="286" y="293" on="0"/>
        <pt x="416" y="144" on="0"/>
        <pt x="531" y="144" on="1"/>
        <pt x="646" y="144" on="0"/>
        <pt x="775" y="293" on="0"/>
        <pt x="775" y="420" on="1"/>
        <pt x="775" y="1432" on="1"/>
        <pt x="853" y="1432" on="1"/>
        <pt x="919" y="1432" on="0"/>
        <pt x="985" y="1484" on="0"/>
        <pt x="985" y="1538" on="1"/>
        <pt x="985" y="1571" on="0"/>
        <pt x="972" y="1638" on="0"/>
        <pt x="958" y="1676" on="1"/>
        <pt x="1154" y="1736" on="1"/>
        <pt x="1185" y="1652" on="0"/>
        <pt x="1185" y="1569" on="1"/>
        <pt x="1185" y="1455" on="0"/>
        <pt x="1022" y="1327" on="0"/>
        <pt x="897" y="1327" on="1"/>
        <pt x="828" y="1327" on="1"/>
        <pt x="957" y="1400" on="1"/>
        <pt x="957" y="409" on="1"/>
        <pt x="957" y="279" on="0"/>
        <pt x="850" y="80" on="0"/>
        <pt x="658" y="-32" on="0"/>
      </contour>
    </TTGlyph>
    <TTGlyph name="Uhungarumlaut" xMin="142" yMin="-32" xMax="1085" yMax="1998">
      <component glyphName="U" x="0" y="0" flags="0x4"/>
      <component glyphName="uni030B" x="600" y="385" flags="0x4"/>
    </TTGlyph>
    <TTGlyph name="Umacron" xMin="142" yMin="-32" xMax="1058" yMax="1890">
      <component glyphName="U" x="0" y="0" flags="0x4"/>
      <component glyphName="uni0304" x="600" y="385" flags="0x4"/>
    </TTGlyph>
    <TTGlyph name="Uogonek" xMin="142" yMin="-534" xMax="1058" yMax="1432">
      <contour>
        <pt x="707" y="-534" on="1"/>
        <pt x="630" y="-534" on="0"/>
        <pt x="507" y="-468" on="0"/>
        <pt x="437" y="-354" on="0"/>
        <pt x="437" y="-282" on="1"/>
        <pt x="437" y="-50" on="0"/>
        <pt x="786" y="87" on="1"/>
        <pt x="743" y="-10" on="1"/>
        <pt x="710" y="-19" on="0"/>
        <pt x="638" y="-30" on="0"/>
        <pt x="600" y="-30" on="1"/>
        <pt x="464" y="-30" on="0"/>
        <pt x="257" y="91" on="0"/>
        <pt x="142" y="306" on="0"/>
        <pt x="142" y="447" on="1"/>
        <pt x="142" y="1432" on="1"/>
        <pt x="328" y="1432" on="1"/>
        <pt x="328" y="458" on="1"/>
        <pt x="328" y="313" on="0"/>
        <pt x="474" y="144" on="0"/>
        <pt x="600" y="144" on="1"/>
        <pt x="726" y="144" on="0"/>
        <pt x="872" y="313" on="0"/>
        <pt x="872" y="458" on="1"/>
        <pt x="872" y="1432" on="1"/>
        <pt x="1058" y="1432" on="1"/>
        <pt x="1058" y="447" on="1"/>
        <pt x="1058" y="296" on="0"/>
        <pt x="928" y="74" on="0"/>
        <pt x="778" y="-23" on="1"/>
        <pt x="673" y="-91" on="0"/>
        <pt x="596" y="-196" on="0"/>
        <pt x="596" y="-261" on="1"/>
        <pt x="596" y="-316" on="0"/>
        <pt x="671" y="-386" on="0"/>
        <pt x="730" y="-386" on="1"/>
        <pt x="788" y="-386" on="0"/>
        <pt x="837" y="-360" on="1"/>
        <pt x="879" y="-491" on="1"/>
        <pt x="800" y="-534" on="0"/>
      </contour>
    </TTGlyph>
    <TTGlyph name="Uring" xMin="142" yMin="-32" xMax="1058" yMax="2095">
      <component glyphName="U" x="0" y="0" flags="0x4"/>
      <component glyphName="uni030A" x="600" y="385" flags="0x4"/>
    </TTGlyph>
    <TTGlyph name="Utilde" xMin="142" yMin="-32" xMax="1058" yMax="2000">
      <component glyphName="U" x="0" y="0" flags="0x4"/>
      <component glyphName="tildecomb" x="600" y="385" flags="0x4"/>
    </TTGlyph>
    <TTGlyph name="V" xMin="60" yMin="0" xMax="1140" yMax="1432">
      <contour>
        <pt x="507" y="0" on="1"/>
        <pt x="60" y="1432" on="1"/>
        <pt x="256" y="1432" on="1"/>
        <pt x="563" y="389" on="1"/>
        <pt x="599" y="215" on="1"/>
        <pt x="605" y="215" on="1"/>
        <pt x="642" y="389" on="1"/>
        <pt x="946" y="1432" on="1"/>
        <pt x="1140" y="1432" on="1"/>
        <pt x="693" y="0" on="1"/>
      </contour>
    </TTGlyph>
    <TTGlyph name="W" xMin="31" yMin="0" xMax="1169" yMax="1432">
      <contour>
        <pt x="224" y="0" on="1"/>
        <pt x="31" y="1432" on="1"/>
        <pt x="213" y="1432" on="1"/>
        <pt x="336" y="303" on="1"/>
        <pt x="342" y="303" on="1"/>
        <pt x="395" y="594" on="1"/>
        <pt x="529" y="1150" on="1"/>
        <pt x="671" y="1150" on="1"/>
        <pt x="805" y="594" on="1"/>
        <pt x="858" y="303" on="1"/>
        <pt x="864" y="303" on="1"/>
        <pt x="985" y="1432" on="1"/>
        <pt x="1169" y="1432" on="1"/>
        <pt x="977" y="0" on="1"/>
        <pt x="812" y="0" on="1"/>
        <pt x="642" y="680" on="1"/>
        <pt x="603" y="884" on="1"/>
        <pt x="597" y="884" on="1"/>
        <pt x="558" y="680" on="1"/>
        <pt x="390" y="0" on="1"/>
      </contour>
    </TTGlyph>
    <TTGlyph name="Wacute" xMin="31" yMin="0" xMax="1169" yMax="1998">
      <component glyphName="W" x="0" y="0" flags="0x4"/>
      <component glyphName="acutecomb" x="599" y="385" flags="0x4"/>
    </TTGlyph>
    <TTGlyph name="Wcircumflex" xMin="31" yMin="0" xMax="1169" yMax="1998">
      <component glyphName="W" x="0" y="0" flags="0x4"/>
      <component glyphName="uni0302" x="599" y="385" flags="0x4"/>
    </TTGlyph>
    <TTGlyph name="Wdieresis" xMin="31" yMin="0" xMax="1169" yMax="1955">
      <component glyphName="W" x="0" y="0" flags="0x4"/>
      <component glyphName="uni0308" x="599" y="385" flags="0x4"/>
    </TTGlyph>
    <TTGlyph name="Wgrave" xMin="31" yMin="0" xMax="1169" yMax="1998">
      <component glyphName="W" x="0" y="0" flags="0x4"/>
      <component glyphName="gravecomb" x="599" y="385" flags="0x4"/>
    </TTGlyph>
    <TTGlyph name="X" xMin="48" yMin="0" xMax="1152" yMax="1432">
      <contour>
        <pt x="940" y="0" on="1"/>
        <pt x="537" y="680" on="1"/>
        <pt x="511" y="691" on="1"/>
        <pt x="68" y="1432" on="1"/>
        <pt x="280" y="1432" on="1"/>
        <pt x="666" y="784" on="1"/>
        <pt x="692" y="773" on="1"/>
        <pt x="1152" y="0" on="1"/>
      </contour>
      <contour>
        <pt x="48" y="0" on="1"/>
        <pt x="519" y="775" on="1"/>
        <pt x="541" y="794" on="1"/>
        <pt x="926" y="1432" on="1"/>
        <pt x="1132" y="1432" on="1"/>
        <pt x="686" y="699" on="1"/>
        <pt x="664" y="680" on="1"/>
        <pt x="254" y="0" on="1"/>
      </contour>
    </TTGlyph>
    <TTGlyph name="Y" xMin="65" yMin="0" xMax="1135" yMax="1432">
      <contour>
        <pt x="518" y="524" on="1"/>
        <pt x="65" y="1432" on="1"/>
        <pt x="273" y="1432" on="1"/>
        <pt x="500" y="964" on="1"/>
        <pt x="600" y="735" on="1"/>
        <pt x="607" y="735" on="1"/>
        <pt x="704" y="964" on="1"/>
        <pt x="933" y="1432" on="1"/>
        <pt x="1135" y="1432" on="1"/>
        <pt x="683" y="524" on="1"/>
      </contour>
      <contour>
        <pt x="507" y="0" on="1"/>
        <pt x="507" y="627" on="1"/>
        <pt x="693" y="627" on="1"/>
        <pt x="693" y="0" on="1"/>
      </contour>
    </TTGlyph>
    <TTGlyph name="Yacute" xMin="65" yMin="0" xMax="1135" yMax="1998">
      <component glyphName="Y" x="0" y="0" flags="0x4"/>
      <component glyphName="acutecomb" x="603" y="385" flags="0x4"/>
    </TTGlyph>
    <TTGlyph name="Ycircumflex" xMin="65" yMin="0" xMax="1135" yMax="1998">
      <component glyphName="Y" x="0" y="0" flags="0x4"/>
      <component glyphName="uni0302" x="603" y="385" flags="0x4"/>
    </TTGlyph>
    <TTGlyph name="Ydieresis" xMin="65" yMin="0" xMax="1135" yMax="1955">
      <component glyphName="Y" x="0" y="0" flags="0x4"/>
      <component glyphName="uni0308" x="603" y="385" flags="0x4"/>
    </TTGlyph>
    <TTGlyph name="Ygrave" xMin="65" yMin="0" xMax="1135" yMax="1998">
      <component glyphName="Y" x="0" y="0" flags="0x4"/>
      <component glyphName="gravecomb" x="603" y="385" flags="0x4"/>
    </TTGlyph>
    <TTGlyph name="Z" xMin="144" yMin="0" xMax="1056" yMax="1432">
      <contour>
        <pt x="144" y="0" on="1"/>
        <pt x="144" y="160" on="1"/>
        <pt x="825" y="1257" on="1"/>
        <pt x="170" y="1257" on="1"/>
        <pt x="170" y="1432" on="1"/>
        <pt x="1040" y="1432" on="1"/>
        <pt x="1040" y="1272" on="1"/>
        <pt x="360" y="175" on="1"/>
        <pt x="1056" y="175" on="1"/>
        <pt x="1056" y="0" on="1"/>
      </contour>
    </TTGlyph>
    <TTGlyph name="Zacute" xMin="144" yMin="0" xMax="1056" yMax="1998">
      <component glyphName="Z" x="0" y="0" flags="0x4"/>
      <component glyphName="acutecomb" x="605" y="385" flags="0x4"/>
    </TTGlyph>
    <TTGlyph name="Zcaron" xMin="144" yMin="0" xMax="1056" yMax="1998">
      <component glyphName="Z" x="0" y="0" flags="0x4"/>
      <component glyphName="uni030C" x="605" y="385" flags="0x4"/>
    </TTGlyph>
    <TTGlyph name="Zdotaccent" xMin="144" yMin="0" xMax="1056" yMax="1971">
      <component glyphName="Z" x="0" y="0" flags="0x4"/>
      <component glyphName="uni0307" x="605" y="385" flags="0x4"/>
    </TTGlyph>
    <TTGlyph name="a" xMin="162" yMin="-32" xMax="1007" yMax="1079">
      <contour>
        <pt x="525" y="-32" on="1"/>
        <pt x="418" y="-32" on="0"/>
        <pt x="254" y="53" on="0"/>
        <pt x="162" y="204" on="0"/>
        <pt x="162" y="302" on="1"/>
        <pt x="162" y="317" on="1"/>
        <pt x="162" y="478" on="0"/>
        <pt x="381" y="669" on="0"/>
        <pt x="561" y="669" on="1"/>
        <pt x="644" y="669" on="0"/>
        <pt x="790" y="631" on="0"/>
        <pt x="846" y="597" on="1"/>
        <pt x="846" y="457" on="1"/>
        <pt x="740" y="525" on="0"/>
        <pt x="593" y="525" on="1"/>
        <pt x="480" y="525" on="0"/>
        <pt x="346" y="418" on="0"/>
        <pt x="346" y="324" on="1"/>
        <pt x="346" y="314" on="1"/>
        <pt x="346" y="225" on="0"/>
        <pt x="461" y="124" on="0"/>
        <pt x="558" y="124" on="1"/>
        <pt x="639" y="124" on="0"/>
        <pt x="761" y="203" on="0"/>
        <pt x="830" y="343" on="0"/>
        <pt x="830" y="432" on="1"/>
        <pt x="830" y="683" on="1"/>
        <pt x="830" y="793" on="0"/>
        <pt x="715" y="919" on="0"/>
        <pt x="599" y="919" on="1"/>
        <pt x="445" y="919" on="0"/>
        <pt x="329" y="801" on="1"/>
        <pt x="216" y="921" on="1"/>
        <pt x="363" y="1079" on="0"/>
        <pt x="600" y="1079" on="1"/>
        <pt x="794" y="1079" on="0"/>
        <pt x="1007" y="867" on="0"/>
        <pt x="1007" y="688" on="1"/>
        <pt x="1007" y="0" on="1"/>
        <pt x="838" y="0" on="1"/>
        <pt x="838" y="152" on="1"/>
        <pt x="831" y="152" on="1"/>
        <pt x="785" y="66" on="0"/>
        <pt x="631" y="-32" on="0"/>
      </contour>
    </TTGlyph>
    <TTGlyph name="aacute" xMin="162" yMin="-32" xMax="1007" yMax="1613">
      <component glyphName="a" x="0" y="0" flags="0x4"/>
      <component glyphName="acutecomb" x="577" y="0" flags="0x4"/>
    </TTGlyph>
    <TTGlyph name="abreve" xMin="162" yMin="-32" xMax="1007" yMax="1613">
      <component glyphName="a" x="0" y="0" flags="0x4"/>
      <component glyphName="uni0306" x="600" y="0" flags="0x4"/>
    </TTGlyph>
    <TTGlyph name="acircumflex" xMin="162" yMin="-32" xMax="1007" yMax="1613">
      <component glyphName="a" x="0" y="0" flags="0x4"/>
      <component glyphName="uni0302" x="600" y="0" flags="0x4"/>
    </TTGlyph>
    <TTGlyph name="acute" xMin="400" yMin="1253" xMax="799" yMax="1613">
      <component glyphName="acutecomb" x="486" y="0" flags="0x4"/>
    </TTGlyph>
    <TTGlyph name="acutecomb" xMin="-86" yMin="1253" xMax="313" yMax="1613">
      <contour>
        <pt x="-86" y="1253" on="1"/>
        <pt x="-86" y="1264" on="1"/>
        <pt x="91" y="1613" on="1"/>
        <pt x="313" y="1613" on="1"/>
        <pt x="313" y="1602" on="1"/>
        <pt x="86" y="1253" on="1"/>
      </contour>
    </TTGlyph>
    <TTGlyph name="adieresis" xMin="162" yMin="-32" xMax="1007" yMax="1570">
      <component glyphName="a" x="0" y="0" flags="0x4"/>
      <component glyphName="uni0308" x="600" y="0" flags="0x4"/>
    </TTGlyph>
    <TTGlyph name="ae" xMin="23" yMin="-32" xMax="1172" yMax="1079">
      <contour>
        <pt x="329" y="-32" on="1"/>
        <pt x="239" y="-32" on="0"/>
        <pt x="101" y="56" on="0"/>
        <pt x="23" y="212" on="0"/>
        <pt x="23" y="314" on="1"/>
        <pt x="23" y="323" on="1"/>
        <pt x="23" y="479" on="0"/>
        <pt x="198" y="669" on="0"/>
        <pt x="340" y="669" on="1"/>
        <pt x="441" y="669" on="0"/>
        <pt x="522" y="621" on="1"/>
        <pt x="522" y="481" on="1"/>
        <pt x="456" y="524" on="0"/>
        <pt x="375" y="524" on="1"/>
        <pt x="292" y="524" on="0"/>
        <pt x="199" y="422" on="0"/>
        <pt x="199" y="330" on="1"/>
        <pt x="199" y="313" on="1"/>
        <pt x="199" y="226" on="0"/>
        <pt x="278" y="123" on="0"/>
        <pt x="345" y="123" on="1"/>
        <pt x="424" y="123" on="0"/>
        <pt x="506" y="272" on="0"/>
        <pt x="506" y="414" on="1"/>
        <pt x="506" y="698" on="1"/>
        <pt x="506" y="813" on="0"/>
        <pt x="435" y="921" on="0"/>
        <pt x="360" y="921" on="1"/>
        <pt x="262" y="921" on="0"/>
        <pt x="183" y="818" on="1"/>
        <pt x="63" y="921" on="1"/>
        <pt x="183" y="1079" on="0"/>
        <pt x="360" y="1079" on="1"/>
        <pt x="482" y="1079" on="0"/>
        <pt x="630" y="929" on="0"/>
        <pt x="648" y="786" on="1"/>
        <pt x="568" y="786" on="1"/>
        <pt x="598" y="920" on="0"/>
        <pt x="762" y="1079" on="0"/>
        <pt x="870" y="1079" on="1"/>
        <pt x="1014" y="1079" on="0"/>
        <pt x="1172" y="836" on="0"/>
        <pt x="1172" y="615" on="1"/>
        <pt x="1172" y="586" on="0"/>
        <pt x="1170" y="514" on="0"/>
        <pt x="1168" y="473" on="1"/>
        <pt x="611" y="473" on="1"/>
        <pt x="611" y="613" on="1"/>
        <pt x="1004" y="613" on="1"/>
        <pt x="1004" y="621" on="1"/>
        <pt x="1004" y="921" on="0"/>
        <pt x="854" y="921" on="1"/>
        <pt x="767" y="921" on="0"/>
        <pt x="665" y="717" on="0"/>
        <pt x="665" y="542" on="1"/>
        <pt x="665" y="510" on="1"/>
        <pt x="665" y="329" on="0"/>
        <pt x="768" y="124" on="0"/>
        <pt x="859" y="124" on="1"/>
        <pt x="911" y="124" on="0"/>
        <pt x="990" y="196" on="0"/>
        <pt x="1027" y="277" on="1"/>
        <pt x="1167" y="210" on="1"/>
        <pt x="1113" y="88" on="0"/>
        <pt x="963" y="-32" on="0"/>
        <pt x="864" y="-32" on="1"/>
        <pt x="744" y="-32" on="0"/>
        <pt x="573" y="149" on="0"/>
        <pt x="548" y="302" on="1"/>
        <pt x="635" y="302" on="1"/>
        <pt x="609" y="140" on="0"/>
        <pt x="451" y="-32" on="0"/>
      </contour>
    </TTGlyph>
    <TTGlyph name="aeacute" xMin="23" yMin="-32" xMax="1172" yMax="1613">
      <component glyphName="ae" x="0" y="0" flags="0x4"/>
      <component glyphName="acutecomb" x="618" y="0" flags="0x4"/>
    </TTGlyph>
    <TTGlyph name="agrave" xMin="162" yMin="-32" xMax="1007" yMax="1613">
      <component glyphName="a" x="0" y="0" flags="0x4"/>
      <component glyphName="gravecomb" x="641" y="0" flags="0x4"/>
    </TTGlyph>
    <TTGlyph name="amacron" xMin="162" yMin="-32" xMax="1007" yMax="1505">
      <component glyphName="a" x="0" y="0" flags="0x4"/>
      <component glyphName="uni0304" x="600" y="0" flags="0x4"/>
    </TTGlyph>
    <TTGlyph name="ampersand" xMin="50" yMin="-50" xMax="1182" yMax="1464">
      <contour>
        <pt x="1054" y="-50" on="1"/>
        <pt x="384" y="670" on="1"/>
        <pt x="293" y="768" on="0"/>
        <pt x="188" y="916" on="0"/>
        <pt x="144" y="1043" on="0"/>
        <pt x="144" y="1109" on="1"/>
        <pt x="144" y="1111" on="1"/>
        <pt x="144" y="1215" on="0"/>
        <pt x="243" y="1374" on="0"/>
        <pt x="418" y="1464" on="0"/>
        <pt x="532" y="1464" on="1"/>
        <pt x="674" y="1464" on="0"/>
        <pt x="871" y="1332" on="0"/>
        <pt x="945" y="1186" on="1"/>
        <pt x="783" y="1100" on="1"/>
        <pt x="731" y="1201" on="0"/>
        <pt x="613" y="1288" on="0"/>
        <pt x="528" y="1288" on="1"/>
        <pt x="438" y="1288" on="0"/>
        <pt x="332" y="1192" on="0"/>
        <pt x="332" y="1109" on="1"/>
        <pt x="332" y="1099" on="1"/>
        <pt x="332" y="1036" on="0"/>
        <pt x="408" y="900" on="0"/>
        <pt x="505" y="797" on="1"/>
        <pt x="1182" y="74" on="1"/>
      </contour>
      <contour>
        <pt x="477" y="-32" on="1"/>
        <pt x="350" y="-32" on="0"/>
        <pt x="157" y="72" on="0"/>
        <pt x="50" y="257" on="0"/>
        <pt x="50" y="380" on="1"/>
        <pt x="50" y="398" on="1"/>
        <pt x="50" y="556" on="0"/>
        <pt x="210" y="777" on="0"/>
        <pt x="370" y="843" on="1"/>
        <pt x="483" y="720" on="1"/>
        <pt x="359" y="682" on="0"/>
        <pt x="236" y="529" on="0"/>
        <pt x="236" y="411" on="1"/>
        <pt x="236" y="383" on="1"/>
        <pt x="236" y="268" on="0"/>
        <pt x="369" y="140" on="0"/>
        <pt x="488" y="140" on="1"/>
        <pt x="598" y="140" on="0"/>
        <pt x="756" y="276" on="0"/>
        <pt x="872" y="577" on="0"/>
        <pt x="918" y="826" on="1"/>
        <pt x="1100" y="794" on="1"/>
        <pt x="1046" y="524" on="0"/>
        <pt x="869" y="156" on="0"/>
        <pt x="627" y="-32" on="0"/>
      </contour>
    </TTGlyph>
    <TTGlyph name="aogonek" xMin="162" yMin="-534" xMax="1089" yMax="1079">
      <contour>
        <pt x="911" y="-534" on="1"/>
        <pt x="834" y="-534" on="0"/>
        <pt x="712" y="-468" on="0"/>
        <pt x="642" y="-353" on="0"/>
        <pt x="642" y="-281" on="1"/>
        <pt x="642" y="-170" on="0"/>
        <pt x="799" y="14" on="0"/>
        <pt x="959" y="87" on="1"/>
        <pt x="1007" y="0" on="1"/>
        <pt x="898" y="-64" on="0"/>
        <pt x="801" y="-186" on="0"/>
        <pt x="801" y="-260" on="1"/>
        <pt x="801" y="-316" on="0"/>
        <pt x="876" y="-386" on="0"/>
        <pt x="934" y="-386" on="1"/>
        <pt x="991" y="-386" on="0"/>
        <pt x="1042" y="-360" on="1"/>
        <pt x="1089" y="-490" on="1"/>
        <pt x="1008" y="-534" on="0"/>
      </contour>
      <contour>
        <pt x="525" y="-32" on="1"/>
        <pt x="418" y="-32" on="0"/>
        <pt x="254" y="53" on="0"/>
        <pt x="162" y="204" on="0"/>
        <pt x="162" y="302" on="1"/>
        <pt x="162" y="317" on="1"/>
        <pt x="162" y="478" on="0"/>
        <pt x="381" y="669" on="0"/>
        <pt x="561" y="669" on="1"/>
        <pt x="644" y="669" on="0"/>
        <pt x="790" y="631" on="0"/>
        <pt x="846" y="597" on="1"/>
        <pt x="846" y="457" on="1"/>
        <pt x="740" y="525" on="0"/>
        <pt x="593" y="525" on="1"/>
        <pt x="480" y="525" on="0"/>
        <pt x="346" y="418" on="0"/>
        <pt x="346" y="324" on="1"/>
        <pt x="346" y="314" on="1"/>
        <pt x="346" y="225" on="0"/>
        <pt x="461" y="124" on="0"/>
        <pt x="558" y="124" on="1"/>
        <pt x="639" y="124" on="0"/>
        <pt x="761" y="203" on="0"/>
        <pt x="830" y="343" on="0"/>
        <pt x="830" y="432" on="1"/>
        <pt x="830" y="683" on="1"/>
        <pt x="830" y="793" on="0"/>
        <pt x="715" y="919" on="0"/>
        <pt x="599" y="919" on="1"/>
        <pt x="445" y="919" on="0"/>
        <pt x="329" y="801" on="1"/>
        <pt x="216" y="921" on="1"/>
        <pt x="363" y="1079" on="0"/>
        <pt x="600" y="1079" on="1"/>
        <pt x="794" y="1079" on="0"/>
        <pt x="1007" y="867" on="0"/>
        <pt x="1007" y="688" on="1"/>
        <pt x="1007" y="0" on="1"/>
        <pt x="838" y="0" on="1"/>
        <pt x="838" y="152" on="1"/>
        <pt x="831" y="152" on="1"/>
        <pt x="785" y="66" on="0"/>
        <pt x="631" y="-32" on="0"/>
      </contour>
    </TTGlyph>
    <TTGlyph name="aring" xMin="162" yMin="-32" xMax="1007" yMax="1710">
      <component glyphName="a" x="0" y="0" flags="0x4"/>
      <component glyphName="uni030A" x="600" y="0" flags="0x4"/>
    </TTGlyph>
    <TTGlyph name="arrowdblright" xMin="40" yMin="31" xMax="1182" yMax="1229">
      <contour>
        <pt x="620" y="31" on="1"/>
        <pt x="512" y="137" on="1"/>
        <pt x="971" y="607" on="1"/>
        <pt x="971" y="653" on="1"/>
        <pt x="512" y="1123" on="1"/>
        <pt x="620" y="1229" on="1"/>
        <pt x="1182" y="630" on="1"/>
      </contour>
      <contour>
        <pt x="40" y="383" on="1"/>
        <pt x="40" y="533" on="1"/>
        <pt x="948" y="533" on="1"/>
        <pt x="948" y="422" on="1"/>
        <pt x="586" y="383" on="1"/>
      </contour>
      <contour>
        <pt x="40" y="727" on="1"/>
        <pt x="40" y="877" on="1"/>
        <pt x="586" y="877" on="1"/>
        <pt x="948" y="838" on="1"/>
        <pt x="948" y="727" on="1"/>
      </contour>
    </TTGlyph>
    <TTGlyph name="arrowdown" xMin="54" yMin="25" xMax="1146" yMax="1227">
      <contour>
        <pt x="600" y="25" on="1"/>
        <pt x="54" y="524" on="1"/>
        <pt x="164" y="640" on="1"/>
        <pt x="586" y="234" on="1"/>
        <pt x="614" y="234" on="1"/>
        <pt x="1035" y="640" on="1"/>
        <pt x="1146" y="524" on="1"/>
      </contour>
      <contour>
        <pt x="533" y="147" on="1"/>
        <pt x="511" y="575" on="1"/>
        <pt x="511" y="1227" on="1"/>
        <pt x="689" y="1227" on="1"/>
        <pt x="689" y="575" on="1"/>
        <pt x="667" y="147" on="1"/>
      </contour>
    </TTGlyph>
    <TTGlyph name="arrowleft" xMin="94" yMin="76" xMax="1140" yMax="1184">
      <contour>
        <pt x="600" y="76" on="1"/>
        <pt x="94" y="630" on="1"/>
        <pt x="600" y="1184" on="1"/>
        <pt x="717" y="1073" on="1"/>
        <pt x="303" y="644" on="1"/>
        <pt x="303" y="616" on="1"/>
        <pt x="717" y="187" on="1"/>
      </contour>
      <contour>
        <pt x="644" y="544" on="1"/>
        <pt x="216" y="563" on="1"/>
        <pt x="216" y="697" on="1"/>
        <pt x="644" y="716" on="1"/>
        <pt x="1140" y="716" on="1"/>
        <pt x="1140" y="544" on="1"/>
      </contour>
    </TTGlyph>
    <TTGlyph name="arrowright" xMin="94" yMin="76" xMax="1140" yMax="1184">
      <contour>
        <pt x="634" y="76" on="1"/>
        <pt x="517" y="187" on="1"/>
        <pt x="931" y="616" on="1"/>
        <pt x="931" y="644" on="1"/>
        <pt x="517" y="1073" on="1"/>
        <pt x="634" y="1184" on="1"/>
        <pt x="1140" y="630" on="1"/>
      </contour>
      <contour>
        <pt x="94" y="544" on="1"/>
        <pt x="94" y="716" on="1"/>
        <pt x="590" y="716" on="1"/>
        <pt x="1018" y="697" on="1"/>
        <pt x="1018" y="563" on="1"/>
        <pt x="590" y="544" on="1"/>
      </contour>
    </TTGlyph>
    <TTGlyph name="arrowup" xMin="54" yMin="25" xMax="1146" yMax="1227">
      <contour>
        <pt x="164" y="612" on="1"/>
        <pt x="54" y="729" on="1"/>
        <pt x="600" y="1227" on="1"/>
        <pt x="1146" y="729" on="1"/>
        <pt x="1035" y="612" on="1"/>
        <pt x="614" y="1018" on="1"/>
        <pt x="586" y="1018" on="1"/>
      </contour>
      <contour>
        <pt x="511" y="25" on="1"/>
        <pt x="511" y="677" on="1"/>
        <pt x="533" y="1105" on="1"/>
        <pt x="667" y="1105" on="1"/>
        <pt x="689" y="677" on="1"/>
        <pt x="689" y="25" on="1"/>
      </contour>
    </TTGlyph>
    <TTGlyph name="asciicircum" xMin="86" yMin="675" xMax="1114" yMax="1432">
      <contour>
        <pt x="86" y="675" on="1"/>
        <pt x="528" y="1432" on="1"/>
        <pt x="672" y="1432" on="1"/>
        <pt x="1114" y="675" on="1"/>
        <pt x="914" y="675" on="1"/>
        <pt x="602" y="1223" on="1"/>
        <pt x="595" y="1223" on="1"/>
        <pt x="286" y="675" on="1"/>
      </contour>
    </TTGlyph>
    <TTGlyph name="asciitilde" xMin="112" yMin="573" xMax="1088" yMax="1008">
      <contour>
        <pt x="823" y="573" on="1"/>
        <pt x="747" y="573" on="0"/>
        <pt x="627" y="645" on="0"/>
        <pt x="542" y="739" on="1"/>
        <pt x="491" y="796" on="0"/>
        <pt x="426" y="839" on="0"/>
        <pt x="391" y="839" on="1"/>
        <pt x="286" y="839" on="0"/>
        <pt x="286" y="699" on="1"/>
        <pt x="286" y="580" on="1"/>
        <pt x="112" y="580" on="1"/>
        <pt x="112" y="700" on="1"/>
        <pt x="112" y="843" on="0"/>
        <pt x="256" y="1008" on="0"/>
        <pt x="379" y="1008" on="1"/>
        <pt x="456" y="1008" on="0"/>
        <pt x="575" y="936" on="0"/>
        <pt x="658" y="843" on="1"/>
        <pt x="709" y="786" on="0"/>
        <pt x="775" y="742" on="0"/>
        <pt x="810" y="742" on="1"/>
        <pt x="914" y="742" on="0"/>
        <pt x="914" y="883" on="1"/>
        <pt x="914" y="1001" on="1"/>
        <pt x="1088" y="1001" on="1"/>
        <pt x="1088" y="882" on="1"/>
        <pt x="1088" y="739" on="0"/>
        <pt x="945" y="573" on="0"/>
      </contour>
    </TTGlyph>
    <TTGlyph name="asterisk" xMin="79" yMin="216" xMax="1121" yMax="1332">
      <contour>
        <pt x="157" y="429" on="1"/>
        <pt x="79" y="565" on="1"/>
        <pt x="569" y="828" on="1"/>
        <pt x="1043" y="1119" on="1"/>
        <pt x="1121" y="983" on="1"/>
        <pt x="631" y="716" on="1"/>
      </contour>
      <contour>
        <pt x="1043" y="429" on="1"/>
        <pt x="569" y="716" on="1"/>
        <pt x="79" y="983" on="1"/>
        <pt x="157" y="1119" on="1"/>
        <pt x="631" y="828" on="1"/>
        <pt x="1121" y="565" on="1"/>
      </contour>
      <contour>
        <pt x="522" y="216" on="1"/>
        <pt x="522" y="1332" on="1"/>
        <pt x="678" y="1332" on="1"/>
        <pt x="678" y="216" on="1"/>
      </contour>
    </TTGlyph>
    <TTGlyph name="at" xMin="57" yMin="-233" xMax="1109" yMax="1604">
      <contour>
        <pt x="705" y="-233" on="1"/>
        <pt x="393" y="-233" on="0"/>
        <pt x="57" y="234" on="0"/>
        <pt x="57" y="667" on="1"/>
        <pt x="57" y="709" on="1"/>
        <pt x="57" y="1147" on="0"/>
        <pt x="355" y="1604" on="0"/>
        <pt x="641" y="1604" on="1"/>
        <pt x="859" y="1604" on="0"/>
        <pt x="1109" y="1320" on="0"/>
        <pt x="1109" y="1072" on="1"/>
        <pt x="1109" y="233" on="1"/>
        <pt x="944" y="233" on="1"/>
        <pt x="944" y="361" on="1"/>
        <pt x="939" y="361" on="1"/>
        <pt x="896" y="289" on="0"/>
        <pt x="784" y="222" on="0"/>
        <pt x="707" y="222" on="1"/>
        <pt x="612" y="222" on="0"/>
        <pt x="467" y="329" on="0"/>
        <pt x="386" y="521" on="0"/>
        <pt x="386" y="648" on="1"/>
        <pt x="386" y="674" on="1"/>
        <pt x="386" y="800" on="0"/>
        <pt x="468" y="991" on="0"/>
        <pt x="615" y="1099" on="0"/>
        <pt x="710" y="1099" on="1"/>
        <pt x="789" y="1099" on="0"/>
        <pt x="902" y="1031" on="0"/>
        <pt x="939" y="961" on="1"/>
        <pt x="944" y="961" on="1"/>
        <pt x="944" y="1067" on="1"/>
        <pt x="944" y="1251" on="0"/>
        <pt x="789" y="1443" on="0"/>
        <pt x="640" y="1443" on="1"/>
        <pt x="432" y="1443" on="0"/>
        <pt x="227" y="1082" on="0"/>
        <pt x="227" y="714" on="1"/>
        <pt x="227" y="662" on="1"/>
        <pt x="227" y="299" on="0"/>
        <pt x="469" y="-72" on="0"/>
        <pt x="707" y="-72" on="1"/>
        <pt x="869" y="-72" on="0"/>
        <pt x="1008" y="31" on="1"/>
        <pt x="1094" y="-111" on="1"/>
        <pt x="934" y="-233" on="0"/>
      </contour>
      <contour>
        <pt x="745" y="376" on="1"/>
        <pt x="834" y="376" on="0"/>
        <pt x="939" y="520" on="0"/>
        <pt x="939" y="643" on="1"/>
        <pt x="939" y="679" on="1"/>
        <pt x="939" y="802" on="0"/>
        <pt x="834" y="945" on="0"/>
        <pt x="745" y="945" on="1"/>
        <pt x="654" y="945" on="0"/>
        <pt x="550" y="803" on="0"/>
        <pt x="550" y="679" on="1"/>
        <pt x="550" y="643" on="1"/>
        <pt x="550" y="518" on="0"/>
        <pt x="654" y="376" on="0"/>
      </contour>
    </TTGlyph>
    <TTGlyph name="atilde" xMin="162" yMin="-32" xMax="1007" yMax="1615">
      <component glyphName="a" x="0" y="0" flags="0x4"/>
      <component glyphName="tildecomb" x="600" y="0" flags="0x4"/>
    </TTGlyph>
    <TTGlyph name="b" xMin="152" yMin="-32" xMax="1076" yMax="1460">
      <contour>
        <pt x="653" y="-32" on="1"/>
        <pt x="544" y="-32" on="0"/>
        <pt x="375" y="76" on="0"/>
        <pt x="327" y="172" on="1"/>
        <pt x="320" y="172" on="1"/>
        <pt x="320" y="0" on="1"/>
        <pt x="152" y="0" on="1"/>
        <pt x="152" y="1460" on="1"/>
        <pt x="334" y="1460" on="1"/>
        <pt x="334" y="892" on="1"/>
        <pt x="340" y="892" on="1"/>
        <pt x="394" y="980" on="0"/>
        <pt x="557" y="1079" on="0"/>
        <pt x="666" y="1079" on="1"/>
        <pt x="790" y="1079" on="0"/>
        <pt x="974" y="945" on="0"/>
        <pt x="1076" y="703" on="0"/>
        <pt x="1076" y="541" on="1"/>
        <pt x="1076" y="506" on="1"/>
        <pt x="1076" y="345" on="0"/>
        <pt x="970" y="103" on="0"/>
        <pt x="780" y="-32" on="0"/>
      </contour>
      <contour>
        <pt x="613" y="132" on="1"/>
        <pt x="742" y="132" on="0"/>
        <pt x="890" y="334" on="0"/>
        <pt x="890" y="510" on="1"/>
        <pt x="890" y="537" on="1"/>
        <pt x="890" y="714" on="0"/>
        <pt x="743" y="915" on="0"/>
        <pt x="613" y="915" on="1"/>
        <pt x="483" y="915" on="0"/>
        <pt x="327" y="710" on="0"/>
        <pt x="327" y="536" on="1"/>
        <pt x="327" y="512" on="1"/>
        <pt x="327" y="339" on="0"/>
        <pt x="483" y="132" on="0"/>
      </contour>
    </TTGlyph>
    <TTGlyph name="backslash" xMin="110" yMin="-176" xMax="1090" yMax="1460">
      <contour>
        <pt x="1090" y="-176" on="1"/>
        <pt x="902" y="-176" on="1"/>
        <pt x="110" y="1460" on="1"/>
        <pt x="298" y="1460" on="1"/>
      </contour>
    </TTGlyph>
    <TTGlyph name="bar" xMin="504" yMin="-346" xMax="696" yMax="1778">
      <contour>
        <pt x="504" y="-346" on="1"/>
        <pt x="504" y="1778" on="1"/>
        <pt x="696" y="1778" on="1"/>
        <pt x="696" y="-346" on="1"/>
      </contour>
    </TTGlyph>
    <TTGlyph name="block" xMin="0" yMin="-656" xMax="1200" yMax="1944">
      <contour>
        <pt x="0" y="-656" on="1"/>
        <pt x="0" y="1944" on="1"/>
        <pt x="1200" y="1944" on="1"/>
        <pt x="1200" y="-656" on="1"/>
      </contour>
    </TTGlyph>
    <TTGlyph name="braceleft" xMin="130" yMin="-272" xMax="1014" yMax="1604">
      <contour>
        <pt x="830" y="1604" on="1"/>
        <pt x="876" y="1604" on="0"/>
        <pt x="967" y="1598" on="0"/>
        <pt x="1014" y="1593" on="1"/>
        <pt x="1014" y="1446" on="1"/>
        <pt x="977" y="1451" on="0"/>
        <pt x="905" y="1455" on="0"/>
        <pt x="873" y="1455" on="1"/>
        <pt x="742" y="1455" on="0"/>
        <pt x="618" y="1400" on="0"/>
        <pt x="618" y="1341" on="1"/>
        <pt x="618" y="1314" on="0"/>
        <pt x="651" y="1249" on="0"/>
        <pt x="685" y="1206" on="1"/>
        <pt x="710" y="1175" on="1"/>
        <pt x="761" y="1112" on="0"/>
        <pt x="804" y="1013" on="0"/>
        <pt x="804" y="962" on="1"/>
        <pt x="804" y="877" on="0"/>
        <pt x="688" y="770" on="0"/>
        <pt x="578" y="753" on="1"/>
        <pt x="290" y="709" on="1"/>
        <pt x="290" y="623" on="1"/>
        <pt x="578" y="579" on="1"/>
        <pt x="688" y="563" on="0"/>
        <pt x="804" y="455" on="0"/>
        <pt x="804" y="370" on="1"/>
        <pt x="804" y="319" on="0"/>
        <pt x="761" y="220" on="0"/>
        <pt x="710" y="157" on="1"/>
        <pt x="685" y="126" on="1"/>
        <pt x="651" y="83" on="0"/>
        <pt x="618" y="18" on="0"/>
        <pt x="618" y="-9" on="1"/>
        <pt x="618" y="-67" on="0"/>
        <pt x="742" y="-123" on="0"/>
        <pt x="873" y="-123" on="1"/>
        <pt x="905" y="-123" on="0"/>
        <pt x="977" y="-118" on="0"/>
        <pt x="1014" y="-114" on="1"/>
        <pt x="1014" y="-261" on="1"/>
        <pt x="967" y="-266" on="0"/>
        <pt x="876" y="-272" on="0"/>
        <pt x="830" y="-272" on="1"/>
        <pt x="629" y="-272" on="0"/>
        <pt x="436" y="-155" on="0"/>
        <pt x="436" y="-33" on="1"/>
        <pt x="436" y="16" on="0"/>
        <pt x="471" y="105" on="0"/>
        <pt x="509" y="155" on="1"/>
        <pt x="562" y="224" on="1"/>
        <pt x="596" y="268" on="0"/>
        <pt x="624" y="328" on="0"/>
        <pt x="624" y="356" on="1"/>
        <pt x="624" y="433" on="0"/>
        <pt x="527" y="450" on="1"/>
        <pt x="130" y="519" on="1"/>
        <pt x="130" y="813" on="1"/>
        <pt x="527" y="882" on="1"/>
        <pt x="624" y="899" on="0"/>
        <pt x="624" y="976" on="1"/>
        <pt x="624" y="1005" on="0"/>
        <pt x="596" y="1065" on="0"/>
        <pt x="562" y="1108" on="1"/>
        <pt x="509" y="1177" on="1"/>
        <pt x="471" y="1227" on="0"/>
        <pt x="436" y="1316" on="0"/>
        <pt x="436" y="1365" on="1"/>
        <pt x="436" y="1487" on="0"/>
        <pt x="629" y="1604" on="0"/>
      </contour>
    </TTGlyph>
    <TTGlyph name="braceright" xMin="186" yMin="-274" xMax="1070" yMax="1602">
      <contour>
        <pt x="370" y="-274" on="1"/>
        <pt x="324" y="-274" on="0"/>
        <pt x="233" y="-268" on="0"/>
        <pt x="186" y="-263" on="1"/>
        <pt x="186" y="-116" on="1"/>
        <pt x="223" y="-120" on="0"/>
        <pt x="295" y="-125" on="0"/>
        <pt x="327" y="-125" on="1"/>
        <pt x="458" y="-125" on="0"/>
        <pt x="582" y="-69" on="0"/>
        <pt x="582" y="-11" on="1"/>
        <pt x="582" y="16" on="0"/>
        <pt x="550" y="81" on="0"/>
        <pt x="515" y="124" on="1"/>
        <pt x="490" y="155" on="1"/>
        <pt x="439" y="218" on="0"/>
        <pt x="396" y="317" on="0"/>
        <pt x="396" y="368" on="1"/>
        <pt x="396" y="453" on="0"/>
        <pt x="512" y="561" on="0"/>
        <pt x="622" y="577" on="1"/>
        <pt x="910" y="621" on="1"/>
        <pt x="910" y="707" on="1"/>
        <pt x="622" y="751" on="1"/>
        <pt x="512" y="768" on="0"/>
        <pt x="396" y="875" on="0"/>
        <pt x="396" y="960" on="1"/>
        <pt x="396" y="1011" on="0"/>
        <pt x="439" y="1110" on="0"/>
        <pt x="490" y="1173" on="1"/>
        <pt x="515" y="1204" on="1"/>
        <pt x="550" y="1247" on="0"/>
        <pt x="582" y="1312" on="0"/>
        <pt x="582" y="1339" on="1"/>
        <pt x="582" y="1398" on="0"/>
        <pt x="458" y="1453" on="0"/>
        <pt x="327" y="1453" on="1"/>
        <pt x="295" y="1453" on="0"/>
        <pt x="223" y="1449" on="0"/>
        <pt x="186" y="1444" on="1"/>
        <pt x="186" y="1591" on="1"/>
        <pt x="233" y="1596" on="0"/>
        <pt x="324" y="1602" on="0"/>
        <pt x="370" y="1602" on="1"/>
        <pt x="571" y="1602" on="0"/>
        <pt x="764" y="1485" on="0"/>
        <pt x="764" y="1363" on="1"/>
        <pt x="764" y="1314" on="0"/>
        <pt x="729" y="1225" on="0"/>
        <pt x="691" y="1175" on="1"/>
        <pt x="638" y="1106" on="1"/>
        <pt x="604" y="1063" on="0"/>
        <pt x="576" y="1003" on="0"/>
        <pt x="576" y="974" on="1"/>
        <pt x="576" y="897" on="0"/>
        <pt x="673" y="880" on="1"/>
        <pt x="1070" y="811" on="1"/>
        <pt x="1070" y="517" on="1"/>
        <pt x="673" y="448" on="1"/>
        <pt x="576" y="431" on="0"/>
        <pt x="576" y="354" on="1"/>
        <pt x="576" y="326" on="0"/>
        <pt x="604" y="266" on="0"/>
        <pt x="638" y="222" on="1"/>
        <pt x="691" y="153" on="1"/>
        <pt x="729" y="103" on="0"/>
        <pt x="764" y="14" on="0"/>
        <pt x="764" y="-35" on="1"/>
        <pt x="764" y="-157" on="0"/>
        <pt x="571" y="-274" on="0"/>
      </contour>
    </TTGlyph>
    <TTGlyph name="bracketleft" xMin="352" yMin="-255" xMax="1022" yMax="1585">
      <contour>
        <pt x="1022" y="1585" on="1"/>
        <pt x="1022" y="1431" on="1"/>
        <pt x="536" y="1431" on="1"/>
        <pt x="536" y="-101" on="1"/>
        <pt x="1022" y="-101" on="1"/>
        <pt x="1022" y="-255" on="1"/>
        <pt x="352" y="-255" on="1"/>
        <pt x="352" y="1585" on="1"/>
      </contour>
    </TTGlyph>
    <TTGlyph name="bracketright" xMin="178" yMin="-255" xMax="848" yMax="1585">
      <contour>
        <pt x="178" y="-255" on="1"/>
        <pt x="178" y="-101" on="1"/>
        <pt x="664" y="-101" on="1"/>
        <pt x="664" y="1431" on="1"/>
        <pt x="178" y="1431" on="1"/>
        <pt x="178" y="1585" on="1"/>
        <pt x="848" y="1585" on="1"/>
        <pt x="848" y="-255" on="1"/>
      </contour>
    </TTGlyph>
    <TTGlyph name="breve" xMin="252" yMin="1249" xMax="948" yMax="1613">
      <component glyphName="uni0306" x="600" y="0" flags="0x4"/>
    </TTGlyph>
    <TTGlyph name="brokenbar" xMin="504" yMin="-346" xMax="696" yMax="1778">
      <contour>
        <pt x="504" y="928" on="1"/>
        <pt x="504" y="1778" on="1"/>
        <pt x="696" y="1778" on="1"/>
        <pt x="696" y="928" on="1"/>
      </contour>
      <contour>
        <pt x="504" y="-346" on="1"/>
        <pt x="504" y="504" on="1"/>
        <pt x="696" y="504" on="1"/>
        <pt x="696" y="-346" on="1"/>
      </contour>
    </TTGlyph>
    <TTGlyph name="bullet" xMin="316" yMin="423" xMax="804" yMax="911">
      <contour>
        <pt x="560" y="423" on="1"/>
        <pt x="490" y="423" on="0"/>
        <pt x="380" y="487" on="0"/>
        <pt x="316" y="598" on="0"/>
        <pt x="316" y="667" on="1"/>
        <pt x="316" y="737" on="0"/>
        <pt x="380" y="847" on="0"/>
        <pt x="490" y="911" on="0"/>
        <pt x="560" y="911" on="1"/>
        <pt x="630" y="911" on="0"/>
        <pt x="740" y="847" on="0"/>
        <pt x="804" y="737" on="0"/>
        <pt x="804" y="667" on="1"/>
        <pt x="804" y="598" on="0"/>
        <pt x="740" y="487" on="0"/>
        <pt x="630" y="423" on="0"/>
      </contour>
    </TTGlyph>
    <TTGlyph name="c" xMin="169" yMin="-31" xMax="1091" yMax="1078">
      <contour>
        <pt x="674" y="-31" on="1"/>
        <pt x="523" y="-31" on="0"/>
        <pt x="295" y="105" on="0"/>
        <pt x="169" y="349" on="0"/>
        <pt x="169" y="511" on="1"/>
        <pt x="169" y="537" on="1"/>
        <pt x="169" y="699" on="0"/>
        <pt x="292" y="942" on="0"/>
        <pt x="514" y="1078" on="0"/>
        <pt x="660" y="1078" on="1"/>
        <pt x="805" y="1078" on="0"/>
        <pt x="1003" y="948" on="0"/>
        <pt x="1065" y="826" on="1"/>
        <pt x="914" y="740" on="1"/>
        <pt x="874" y="823" on="0"/>
        <pt x="749" y="910" on="0"/>
        <pt x="660" y="910" on="1"/>
        <pt x="518" y="910" on="0"/>
        <pt x="353" y="714" on="0"/>
        <pt x="353" y="544" on="1"/>
        <pt x="353" y="502" on="1"/>
        <pt x="353" y="336" on="0"/>
        <pt x="527" y="138" on="0"/>
        <pt x="672" y="138" on="1"/>
        <pt x="761" y="138" on="0"/>
        <pt x="895" y="221" on="0"/>
        <pt x="945" y="309" on="1"/>
        <pt x="1091" y="216" on="1"/>
        <pt x="1045" y="136" on="0"/>
        <pt x="919" y="25" on="0"/>
        <pt x="764" y="-31" on="0"/>
      </contour>
    </TTGlyph>
    <TTGlyph name="cacute" xMin="169" yMin="-31" xMax="1091" yMax="1613">
      <component glyphName="c" x="0" y="0" flags="0x4"/>
      <component glyphName="acutecomb" x="660" y="0" flags="0x4"/>
    </TTGlyph>
    <TTGlyph name="caron" xMin="231" yMin="1253" xMax="969" yMax="1613">
      <component glyphName="uni030C" x="600" y="0" flags="0x4"/>
    </TTGlyph>
    <TTGlyph name="ccaron" xMin="169" yMin="-31" xMax="1091" yMax="1613">
      <component glyphName="c" x="0" y="0" flags="0x4"/>
      <component glyphName="uni030C" x="660" y="0" flags="0x4"/>
    </TTGlyph>
    <TTGlyph name="ccedilla" xMin="169" yMin="-615" xMax="1091" yMax="1078">
      <component glyphName="c" x="0" y="0" flags="0x4"/>
      <component glyphName="uni0327" x="673" y="0" flags="0x4"/>
    </TTGlyph>
    <TTGlyph name="cdotaccent" xMin="169" yMin="-31" xMax="1091" yMax="1586">
      <component glyphName="c" x="0" y="0" flags="0x4"/>
      <component glyphName="uni0307" x="660" y="0" flags="0x4"/>
    </TTGlyph>
    <TTGlyph name="cedilla" xMin="320" yMin="-615" xMax="880" yMax="14">
      <component glyphName="uni0327" x="596" y="0" flags="0x4"/>
    </TTGlyph>
    <TTGlyph name="cent" xMin="145" yMin="-226" xMax="1066" yMax="1335">
      <contour>
        <pt x="644" y="0" on="1"/>
        <pt x="495" y="0" on="0"/>
        <pt x="270" y="136" on="0"/>
        <pt x="145" y="378" on="0"/>
        <pt x="145" y="537" on="1"/>
        <pt x="145" y="573" on="1"/>
        <pt x="145" y="732" on="0"/>
        <pt x="269" y="974" on="0"/>
        <pt x="490" y="1109" on="0"/>
        <pt x="635" y="1109" on="1"/>
        <pt x="781" y="1109" on="0"/>
        <pt x="989" y="980" on="0"/>
        <pt x="1059" y="848" on="1"/>
        <pt x="905" y="768" on="1"/>
        <pt x="860" y="857" on="0"/>
        <pt x="730" y="942" on="0"/>
        <pt x="635" y="942" on="1"/>
        <pt x="493" y="942" on="0"/>
        <pt x="327" y="752" on="0"/>
        <pt x="327" y="581" on="1"/>
        <pt x="327" y="527" on="1"/>
        <pt x="327" y="356" on="0"/>
        <pt x="497" y="167" on="0"/>
        <pt x="642" y="167" on="1"/>
        <pt x="732" y="167" on="0"/>
        <pt x="869" y="251" on="0"/>
        <pt x="921" y="339" on="1"/>
        <pt x="1066" y="247" on="1"/>
        <pt x="1019" y="167" on="0"/>
        <pt x="892" y="56" on="0"/>
        <pt x="735" y="0" on="0"/>
      </contour>
      <contour>
        <pt x="552" y="-226" on="1"/>
        <pt x="552" y="64" on="1"/>
        <pt x="557" y="101" on="1"/>
        <pt x="557" y="565" on="1"/>
        <pt x="691" y="565" on="1"/>
        <pt x="691" y="101" on="1"/>
        <pt x="698" y="64" on="1"/>
        <pt x="698" y="-226" on="1"/>
      </contour>
      <contour>
        <pt x="557" y="544" on="1"/>
        <pt x="557" y="1008" on="1"/>
        <pt x="552" y="1045" on="1"/>
        <pt x="552" y="1335" on="1"/>
        <pt x="698" y="1335" on="1"/>
        <pt x="698" y="1045" on="1"/>
        <pt x="691" y="1008" on="1"/>
        <pt x="691" y="544" on="1"/>
      </contour>
    </TTGlyph>
    <TTGlyph name="circle" xMin="44" yMin="160" xMax="1156" yMax="1272">
      <contour>
        <pt x="600" y="160" on="1"/>
        <pt x="442" y="160" on="0"/>
        <pt x="190" y="306" on="0"/>
        <pt x="44" y="558" on="0"/>
        <pt x="44" y="716" on="1"/>
        <pt x="44" y="875" on="0"/>
        <pt x="190" y="1126" on="0"/>
        <pt x="442" y="1272" on="0"/>
        <pt x="600" y="1272" on="1"/>
        <pt x="759" y="1272" on="0"/>
        <pt x="1010" y="1127" on="0"/>
        <pt x="1156" y="875" on="0"/>
        <pt x="1156" y="716" on="1"/>
        <pt x="1156" y="557" on="0"/>
        <pt x="1010" y="305" on="0"/>
        <pt x="759" y="160" on="0"/>
      </contour>
      <contour>
        <pt x="600" y="283" on="1"/>
        <pt x="724" y="283" on="0"/>
        <pt x="918" y="396" on="0"/>
        <pt x="1030" y="592" on="0"/>
        <pt x="1030" y="716" on="1"/>
        <pt x="1030" y="841" on="0"/>
        <pt x="918" y="1037" on="0"/>
        <pt x="724" y="1150" on="0"/>
        <pt x="600" y="1150" on="1"/>
        <pt x="476" y="1150" on="0"/>
        <pt x="283" y="1037" on="0"/>
        <pt x="171" y="841" on="0"/>
        <pt x="171" y="716" on="1"/>
        <pt x="171" y="592" on="0"/>
        <pt x="283" y="396" on="0"/>
        <pt x="476" y="283" on="0"/>
      </contour>
    </TTGlyph>
    <TTGlyph name="circumflex" xMin="231" yMin="1253" xMax="969" yMax="1613">
      <component glyphName="uni0302" x="600" y="0" flags="0x4"/>
    </TTGlyph>
    <TTGlyph name="colon" xMin="436" yMin="-30" xMax="764" yMax="1078">
      <contour>
        <pt x="599" y="752" on="1"/>
        <pt x="531" y="752" on="0"/>
        <pt x="436" y="846" on="0"/>
        <pt x="436" y="916" on="1"/>
        <pt x="436" y="984" on="0"/>
        <pt x="532" y="1078" on="0"/>
        <pt x="599" y="1078" on="1"/>
        <pt x="670" y="1078" on="0"/>
        <pt x="764" y="984" on="0"/>
        <pt x="764" y="916" on="1"/>
        <pt x="764" y="846" on="0"/>
        <pt x="670" y="752" on="0"/>
      </contour>
      <contour>
        <pt x="599" y="-30" on="1"/>
        <pt x="531" y="-30" on="0"/>
        <pt x="436" y="64" on="0"/>
        <pt x="436" y="134" on="1"/>
        <pt x="436" y="202" on="0"/>
        <pt x="532" y="296" on="0"/>
        <pt x="599" y="296" on="1"/>
        <pt x="670" y="296" on="0"/>
        <pt x="764" y="202" on="0"/>
        <pt x="764" y="134" on="1"/>
        <pt x="764" y="64" on="0"/>
        <pt x="670" y="-30" on="0"/>
      </contour>
    </TTGlyph>
    <TTGlyph name="comma" xMin="378" yMin="-349" xMax="776" yMax="303">
      <contour>
        <pt x="494" y="-349" on="1"/>
        <pt x="378" y="-271" on="1"/>
        <pt x="616" y="49" on="1"/>
        <pt x="615" y="-6" on="1"/>
        <pt x="570" y="-6" on="0"/>
        <pt x="495" y="31" on="0"/>
        <pt x="451" y="100" on="0"/>
        <pt x="451" y="147" on="1"/>
        <pt x="451" y="212" on="0"/>
        <pt x="540" y="303" on="0"/>
        <pt x="610" y="303" on="1"/>
        <pt x="682" y="303" on="0"/>
        <pt x="776" y="213" on="0"/>
        <pt x="776" y="131" on="1"/>
        <pt x="776" y="83" on="0"/>
        <pt x="736" y="-12" on="0"/>
        <pt x="699" y="-63" on="1"/>
      </contour>
    </TTGlyph>
    <TTGlyph name="copyright" xMin="8" yMin="-32" xMax="1192" yMax="1464">
      <contour>
        <pt x="600" y="-32" on="1"/>
        <pt x="420" y="-32" on="0"/>
        <pt x="154" y="136" on="0"/>
        <pt x="8" y="444" on="0"/>
        <pt x="8" y="652" on="1"/>
        <pt x="8" y="780" on="1"/>
        <pt x="8" y="989" on="0"/>
        <pt x="154" y="1296" on="0"/>
        <pt x="420" y="1464" on="0"/>
        <pt x="600" y="1464" on="1"/>
        <pt x="781" y="1464" on="0"/>
        <pt x="1046" y="1296" on="0"/>
        <pt x="1192" y="989" on="0"/>
        <pt x="1192" y="780" on="1"/>
        <pt x="1192" y="652" on="1"/>
        <pt x="1192" y="444" on="0"/>
        <pt x="1046" y="136" on="0"/>
        <pt x="781" y="-32" on="0"/>
      </contour>
      <contour>
        <pt x="600" y="58" on="1"/>
        <pt x="831" y="58" on="0"/>
        <pt x="1092" y="373" on="0"/>
        <pt x="1092" y="651" on="1"/>
        <pt x="1092" y="781" on="1"/>
        <pt x="1092" y="1059" on="0"/>
        <pt x="831" y="1374" on="0"/>
        <pt x="600" y="1374" on="1"/>
        <pt x="369" y="1374" on="0"/>
        <pt x="108" y="1059" on="0"/>
        <pt x="108" y="781" on="1"/>
        <pt x="108" y="651" on="1"/>
        <pt x="108" y="373" on="0"/>
        <pt x="369" y="58" on="0"/>
      </contour>
      <contour>
        <pt x="622" y="299" on="1"/>
        <pt x="466" y="299" on="0"/>
        <pt x="281" y="516" on="0"/>
        <pt x="281" y="697" on="1"/>
        <pt x="281" y="744" on="1"/>
        <pt x="281" y="926" on="0"/>
        <pt x="466" y="1141" on="0"/>
        <pt x="622" y="1141" on="1"/>
        <pt x="751" y="1141" on="0"/>
        <pt x="909" y="989" on="0"/>
        <pt x="923" y="849" on="1"/>
        <pt x="788" y="836" on="1"/>
        <pt x="771" y="1009" on="0"/>
        <pt x="620" y="1009" on="1"/>
        <pt x="524" y="1009" on="0"/>
        <pt x="416" y="872" on="0"/>
        <pt x="416" y="749" on="1"/>
        <pt x="416" y="691" on="1"/>
        <pt x="416" y="568" on="0"/>
        <pt x="524" y="431" on="0"/>
        <pt x="620" y="431" on="1"/>
        <pt x="771" y="431" on="0"/>
        <pt x="788" y="604" on="1"/>
        <pt x="923" y="591" on="1"/>
        <pt x="909" y="453" on="0"/>
        <pt x="751" y="299" on="0"/>
      </contour>
    </TTGlyph>
    <TTGlyph name="currency" xMin="53" yMin="156" xMax="1147" yMax="1250">
      <contour>
        <pt x="600" y="261" on="1"/>
        <pt x="479" y="261" on="0"/>
        <pt x="280" y="376" on="0"/>
        <pt x="162" y="571" on="0"/>
        <pt x="162" y="689" on="1"/>
        <pt x="162" y="717" on="1"/>
        <pt x="162" y="836" on="0"/>
        <pt x="280" y="1030" on="0"/>
        <pt x="479" y="1145" on="0"/>
        <pt x="600" y="1145" on="1"/>
        <pt x="722" y="1145" on="0"/>
        <pt x="920" y="1030" on="0"/>
        <pt x="1038" y="836" on="0"/>
        <pt x="1038" y="717" on="1"/>
        <pt x="1038" y="689" on="1"/>
        <pt x="1038" y="571" on="0"/>
        <pt x="920" y="376" on="0"/>
        <pt x="722" y="261" on="0"/>
      </contour>
      <contour>
        <pt x="169" y="156" on="1"/>
        <pt x="53" y="272" on="1"/>
        <pt x="291" y="510" on="1"/>
        <pt x="406" y="394" on="1"/>
      </contour>
      <contour>
        <pt x="600" y="414" on="1"/>
        <pt x="679" y="414" on="0"/>
        <pt x="800" y="486" on="0"/>
        <pt x="870" y="611" on="0"/>
        <pt x="870" y="691" on="1"/>
        <pt x="870" y="715" on="1"/>
        <pt x="870" y="795" on="0"/>
        <pt x="800" y="921" on="0"/>
        <pt x="679" y="993" on="0"/>
        <pt x="600" y="993" on="1"/>
        <pt x="522" y="993" on="0"/>
        <pt x="400" y="921" on="0"/>
        <pt x="330" y="795" on="0"/>
        <pt x="330" y="715" on="1"/>
        <pt x="330" y="691" on="1"/>
        <pt x="330" y="611" on="0"/>
        <pt x="400" y="486" on="0"/>
        <pt x="522" y="414" on="0"/>
      </contour>
      <contour>
        <pt x="291" y="897" on="1"/>
        <pt x="53" y="1135" on="1"/>
        <pt x="169" y="1250" on="1"/>
        <pt x="407" y="1013" on="1"/>
      </contour>
      <contour>
        <pt x="1032" y="156" on="1"/>
        <pt x="794" y="394" on="1"/>
        <pt x="909" y="509" on="1"/>
        <pt x="1147" y="272" on="1"/>
      </contour>
      <contour>
        <pt x="910" y="897" on="1"/>
        <pt x="794" y="1012" on="1"/>
        <pt x="1032" y="1250" on="1"/>
        <pt x="1147" y="1135" on="1"/>
      </contour>
    </TTGlyph>
    <TTGlyph name="d" xMin="124" yMin="-31" xMax="1048" yMax="1460">
      <contour>
        <pt x="555" y="-31" on="1"/>
        <pt x="428" y="-31" on="0"/>
        <pt x="233" y="104" on="0"/>
        <pt x="124" y="347" on="0"/>
        <pt x="124" y="507" on="1"/>
        <pt x="124" y="542" on="1"/>
        <pt x="124" y="704" on="0"/>
        <pt x="230" y="945" on="0"/>
        <pt x="421" y="1078" on="0"/>
        <pt x="547" y="1078" on="1"/>
        <pt x="653" y="1078" on="0"/>
        <pt x="810" y="981" on="0"/>
        <pt x="860" y="894" on="1"/>
        <pt x="866" y="894" on="1"/>
        <pt x="866" y="1460" on="1"/>
        <pt x="1048" y="1460" on="1"/>
        <pt x="1048" y="0" on="1"/>
        <pt x="880" y="0" on="1"/>
        <pt x="880" y="172" on="1"/>
        <pt x="873" y="172" on="1"/>
        <pt x="826" y="77" on="0"/>
        <pt x="662" y="-31" on="0"/>
      </contour>
      <contour>
        <pt x="592" y="133" on="1"/>
        <pt x="720" y="133" on="0"/>
        <pt x="873" y="339" on="0"/>
        <pt x="873" y="512" on="1"/>
        <pt x="873" y="536" on="1"/>
        <pt x="873" y="709" on="0"/>
        <pt x="721" y="914" on="0"/>
        <pt x="592" y="914" on="1"/>
        <pt x="461" y="914" on="0"/>
        <pt x="310" y="714" on="0"/>
        <pt x="310" y="537" on="1"/>
        <pt x="310" y="511" on="1"/>
        <pt x="310" y="336" on="0"/>
        <pt x="462" y="133" on="0"/>
      </contour>
    </TTGlyph>
    <TTGlyph name="dcaron" xMin="98" yMin="-31" xMax="1251" yMax="1460">
      <contour>
        <pt x="490" y="-31" on="1"/>
        <pt x="375" y="-31" on="0"/>
        <pt x="198" y="99" on="0"/>
        <pt x="98" y="336" on="0"/>
        <pt x="98" y="497" on="1"/>
        <pt x="98" y="552" on="1"/>
        <pt x="98" y="715" on="0"/>
        <pt x="194" y="950" on="0"/>
        <pt x="367" y="1078" on="0"/>
        <pt x="482" y="1078" on="1"/>
        <pt x="584" y="1078" on="0"/>
        <pt x="719" y="984" on="0"/>
        <pt x="761" y="900" on="1"/>
        <pt x="767" y="900" on="1"/>
        <pt x="767" y="1460" on="1"/>
        <pt x="943" y="1460" on="1"/>
        <pt x="943" y="0" on="1"/>
        <pt x="781" y="0" on="1"/>
        <pt x="781" y="168" on="1"/>
        <pt x="774" y="168" on="1"/>
        <pt x="735" y="75" on="0"/>
        <pt x="594" y="-31" on="0"/>
      </contour>
      <contour>
        <pt x="527" y="130" on="1"/>
        <pt x="640" y="130" on="0"/>
        <pt x="774" y="328" on="0"/>
        <pt x="774" y="501" on="1"/>
        <pt x="774" y="547" on="1"/>
        <pt x="774" y="720" on="0"/>
        <pt x="641" y="917" on="0"/>
        <pt x="527" y="917" on="1"/>
        <pt x="411" y="917" on="0"/>
        <pt x="279" y="723" on="0"/>
        <pt x="279" y="547" on="1"/>
        <pt x="279" y="501" on="1"/>
        <pt x="279" y="326" on="0"/>
        <pt x="412" y="130" on="0"/>
      </contour>
      <contour>
        <pt x="1058" y="968" on="1"/>
        <pt x="1078" y="1460" on="1"/>
        <pt x="1251" y="1460" on="1"/>
        <pt x="1200" y="968" on="1"/>
      </contour>
    </TTGlyph>
    <TTGlyph name="dcroat" xMin="100" yMin="-31" xMax="1205" yMax="1495">
      <contour>
        <pt x="528" y="-31" on="1"/>
        <pt x="402" y="-31" on="0"/>
        <pt x="209" y="95" on="0"/>
        <pt x="100" y="322" on="0"/>
        <pt x="100" y="472" on="1"/>
        <pt x="100" y="506" on="1"/>
        <pt x="100" y="657" on="0"/>
        <pt x="205" y="883" on="0"/>
        <pt x="394" y="1009" on="0"/>
        <pt x="520" y="1009" on="1"/>
        <pt x="629" y="1009" on="0"/>
        <pt x="788" y="910" on="0"/>
        <pt x="840" y="818" on="1"/>
        <pt x="846" y="818" on="1"/>
        <pt x="846" y="1495" on="1"/>
        <pt x="1019" y="1495" on="1"/>
        <pt x="1019" y="0" on="1"/>
        <pt x="855" y="0" on="1"/>
        <pt x="855" y="172" on="1"/>
        <pt x="849" y="172" on="1"/>
        <pt x="801" y="76" on="0"/>
        <pt x="635" y="-31" on="0"/>
      </contour>
      <contour>
        <pt x="566" y="132" on="1"/>
        <pt x="695" y="132" on="0"/>
        <pt x="848" y="321" on="0"/>
        <pt x="848" y="479" on="1"/>
        <pt x="848" y="503" on="1"/>
        <pt x="848" y="661" on="0"/>
        <pt x="696" y="850" on="0"/>
        <pt x="566" y="850" on="1"/>
        <pt x="434" y="850" on="0"/>
        <pt x="283" y="664" on="0"/>
        <pt x="283" y="504" on="1"/>
        <pt x="283" y="478" on="1"/>
        <pt x="283" y="318" on="0"/>
        <pt x="435" y="132" on="0"/>
      </contour>
      <contour>
        <pt x="476" y="1188" on="1"/>
        <pt x="476" y="1324" on="1"/>
        <pt x="1205" y="1324" on="1"/>
        <pt x="1205" y="1188" on="1"/>
      </contour>
    </TTGlyph>
    <TTGlyph name="degree" xMin="220" yMin="793" xMax="904" yMax="1463">
      <contour>
        <pt x="562" y="793" on="1"/>
        <pt x="465" y="793" on="0"/>
        <pt x="310" y="881" on="0"/>
        <pt x="220" y="1033" on="0"/>
        <pt x="220" y="1128" on="1"/>
        <pt x="220" y="1224" on="0"/>
        <pt x="310" y="1375" on="0"/>
        <pt x="465" y="1463" on="0"/>
        <pt x="562" y="1463" on="1"/>
        <pt x="660" y="1463" on="0"/>
        <pt x="814" y="1375" on="0"/>
        <pt x="904" y="1224" on="0"/>
        <pt x="904" y="1128" on="1"/>
        <pt x="904" y="1033" on="0"/>
        <pt x="814" y="881" on="0"/>
        <pt x="660" y="793" on="0"/>
      </contour>
      <contour>
        <pt x="562" y="947" on="1"/>
        <pt x="639" y="947" on="0"/>
        <pt x="738" y="1049" on="0"/>
        <pt x="738" y="1128" on="1"/>
        <pt x="738" y="1208" on="0"/>
        <pt x="639" y="1309" on="0"/>
        <pt x="562" y="1309" on="1"/>
        <pt x="485" y="1309" on="0"/>
        <pt x="386" y="1208" on="0"/>
        <pt x="386" y="1128" on="1"/>
        <pt x="386" y="1049" on="0"/>
        <pt x="485" y="947" on="0"/>
      </contour>
    </TTGlyph>
    <TTGlyph name="dieresis" xMin="235" yMin="1278" xMax="965" yMax="1570">
      <component glyphName="uni0308" x="599" y="0" flags="0x4"/>
    </TTGlyph>
    <TTGlyph name="divide" xMin="154" yMin="108" xMax="1046" yMax="1152">
      <contour>
        <pt x="154" y="540" on="1"/>
        <pt x="154" y="720" on="1"/>
        <pt x="1046" y="720" on="1"/>
        <pt x="1046" y="540" on="1"/>
      </contour>
      <contour>
        <pt x="600" y="876" on="1"/>
        <pt x="542" y="876" on="0"/>
        <pt x="461" y="956" on="0"/>
        <pt x="461" y="1014" on="1"/>
        <pt x="461" y="1073" on="0"/>
        <pt x="542" y="1152" on="0"/>
        <pt x="600" y="1152" on="1"/>
        <pt x="658" y="1152" on="0"/>
        <pt x="739" y="1073" on="0"/>
        <pt x="739" y="1014" on="1"/>
        <pt x="739" y="956" on="0"/>
        <pt x="658" y="876" on="0"/>
      </contour>
      <contour>
        <pt x="600" y="108" on="1"/>
        <pt x="542" y="108" on="0"/>
        <pt x="461" y="188" on="0"/>
        <pt x="461" y="246" on="1"/>
        <pt x="461" y="305" on="0"/>
        <pt x="542" y="384" on="0"/>
        <pt x="600" y="384" on="1"/>
        <pt x="658" y="384" on="0"/>
        <pt x="739" y="305" on="0"/>
        <pt x="739" y="246" on="1"/>
        <pt x="739" y="188" on="0"/>
        <pt x="658" y="108" on="0"/>
      </contour>
    </TTGlyph>
    <TTGlyph name="dkshade" xMin="-6" yMin="-608" xMax="1206" yMax="1896">
      <contour>
        <pt x="-6" y="-608" on="1"/>
        <pt x="-6" y="1896" on="1"/>
        <pt x="1206" y="1896" on="1"/>
        <pt x="1206" y="-608" on="1"/>
      </contour>
      <contour>
        <pt x="42" y="-608" on="1"/>
        <pt x="156" y="-608" on="1"/>
        <pt x="156" y="-494" on="1"/>
        <pt x="42" y="-494" on="1"/>
      </contour>
      <contour>
        <pt x="42" y="-250" on="1"/>
        <pt x="156" y="-250" on="1"/>
        <pt x="156" y="-136" on="1"/>
        <pt x="42" y="-136" on="1"/>
      </contour>
      <contour>
        <pt x="247" y="-429" on="1"/>
        <pt x="361" y="-429" on="1"/>
        <pt x="361" y="-315" on="1"/>
        <pt x="247" y="-315" on="1"/>
      </contour>
      <contour>
        <pt x="441" y="-608" on="1"/>
        <pt x="555" y="-608" on="1"/>
        <pt x="555" y="-494" on="1"/>
        <pt x="441" y="-494" on="1"/>
      </contour>
      <contour>
        <pt x="42" y="107" on="1"/>
        <pt x="156" y="107" on="1"/>
        <pt x="156" y="221" on="1"/>
        <pt x="42" y="221" on="1"/>
      </contour>
      <contour>
        <pt x="247" y="-71" on="1"/>
        <pt x="361" y="-71" on="1"/>
        <pt x="361" y="43" on="1"/>
        <pt x="247" y="43" on="1"/>
      </contour>
      <contour>
        <pt x="441" y="-250" on="1"/>
        <pt x="555" y="-250" on="1"/>
        <pt x="555" y="-136" on="1"/>
        <pt x="441" y="-136" on="1"/>
      </contour>
      <contour>
        <pt x="646" y="-429" on="1"/>
        <pt x="760" y="-429" on="1"/>
        <pt x="760" y="-315" on="1"/>
        <pt x="646" y="-315" on="1"/>
      </contour>
      <contour>
        <pt x="839" y="-608" on="1"/>
        <pt x="953" y="-608" on="1"/>
        <pt x="953" y="-494" on="1"/>
        <pt x="839" y="-494" on="1"/>
      </contour>
      <contour>
        <pt x="42" y="465" on="1"/>
        <pt x="156" y="465" on="1"/>
        <pt x="156" y="579" on="1"/>
        <pt x="42" y="579" on="1"/>
      </contour>
      <contour>
        <pt x="247" y="286" on="1"/>
        <pt x="361" y="286" on="1"/>
        <pt x="361" y="400" on="1"/>
        <pt x="247" y="400" on="1"/>
      </contour>
      <contour>
        <pt x="441" y="107" on="1"/>
        <pt x="555" y="107" on="1"/>
        <pt x="555" y="221" on="1"/>
        <pt x="441" y="221" on="1"/>
      </contour>
      <contour>
        <pt x="646" y="-71" on="1"/>
        <pt x="760" y="-71" on="1"/>
        <pt x="760" y="43" on="1"/>
        <pt x="646" y="43" on="1"/>
      </contour>
      <contour>
        <pt x="839" y="-250" on="1"/>
        <pt x="953" y="-250" on="1"/>
        <pt x="953" y="-136" on="1"/>
        <pt x="839" y="-136" on="1"/>
      </contour>
      <contour>
        <pt x="1044" y="-429" on="1"/>
        <pt x="1158" y="-429" on="1"/>
        <pt x="1158" y="-315" on="1"/>
        <pt x="1044" y="-315" on="1"/>
      </contour>
      <contour>
        <pt x="42" y="823" on="1"/>
        <pt x="156" y="823" on="1"/>
        <pt x="156" y="937" on="1"/>
        <pt x="42" y="937" on="1"/>
      </contour>
      <contour>
        <pt x="247" y="644" on="1"/>
        <pt x="361" y="644" on="1"/>
        <pt x="361" y="758" on="1"/>
        <pt x="247" y="758" on="1"/>
      </contour>
      <contour>
        <pt x="441" y="465" on="1"/>
        <pt x="555" y="465" on="1"/>
        <pt x="555" y="579" on="1"/>
        <pt x="441" y="579" on="1"/>
      </contour>
      <contour>
        <pt x="646" y="286" on="1"/>
        <pt x="760" y="286" on="1"/>
        <pt x="760" y="400" on="1"/>
        <pt x="646" y="400" on="1"/>
      </contour>
      <contour>
        <pt x="839" y="107" on="1"/>
        <pt x="953" y="107" on="1"/>
        <pt x="953" y="221" on="1"/>
        <pt x="839" y="221" on="1"/>
      </contour>
      <contour>
        <pt x="1044" y="-71" on="1"/>
        <pt x="1158" y="-71" on="1"/>
        <pt x="1158" y="43" on="1"/>
        <pt x="1044" y="43" on="1"/>
      </contour>
      <contour>
        <pt x="42" y="1181" on="1"/>
        <pt x="156" y="1181" on="1"/>
        <pt x="156" y="1295" on="1"/>
        <pt x="42" y="1295" on="1"/>
      </contour>
      <contour>
        <pt x="247" y="1002" on="1"/>
        <pt x="361" y="1002" on="1"/>
        <pt x="361" y="1116" on="1"/>
        <pt x="247" y="1116" on="1"/>
      </contour>
      <contour>
        <pt x="441" y="823" on="1"/>
        <pt x="555" y="823" on="1"/>
        <pt x="555" y="937" on="1"/>
        <pt x="441" y="937" on="1"/>
      </contour>
      <contour>
        <pt x="646" y="644" on="1"/>
        <pt x="760" y="644" on="1"/>
        <pt x="760" y="758" on="1"/>
        <pt x="646" y="758" on="1"/>
      </contour>
      <contour>
        <pt x="839" y="465" on="1"/>
        <pt x="953" y="465" on="1"/>
        <pt x="953" y="579" on="1"/>
        <pt x="839" y="579" on="1"/>
      </contour>
      <contour>
        <pt x="1044" y="286" on="1"/>
        <pt x="1158" y="286" on="1"/>
        <pt x="1158" y="400" on="1"/>
        <pt x="1044" y="400" on="1"/>
      </contour>
      <contour>
        <pt x="42" y="1538" on="1"/>
        <pt x="156" y="1538" on="1"/>
        <pt x="156" y="1652" on="1"/>
        <pt x="42" y="1652" on="1"/>
      </contour>
      <contour>
        <pt x="247" y="1359" on="1"/>
        <pt x="361" y="1359" on="1"/>
        <pt x="361" y="1473" on="1"/>
        <pt x="247" y="1473" on="1"/>
      </contour>
      <contour>
        <pt x="441" y="1180" on="1"/>
        <pt x="555" y="1180" on="1"/>
        <pt x="555" y="1294" on="1"/>
        <pt x="441" y="1294" on="1"/>
      </contour>
      <contour>
        <pt x="646" y="1002" on="1"/>
        <pt x="760" y="1002" on="1"/>
        <pt x="760" y="1116" on="1"/>
        <pt x="646" y="1116" on="1"/>
      </contour>
      <contour>
        <pt x="839" y="823" on="1"/>
        <pt x="953" y="823" on="1"/>
        <pt x="953" y="937" on="1"/>
        <pt x="839" y="937" on="1"/>
      </contour>
      <contour>
        <pt x="1044" y="644" on="1"/>
        <pt x="1158" y="644" on="1"/>
        <pt x="1158" y="758" on="1"/>
        <pt x="1044" y="758" on="1"/>
      </contour>
      <contour>
        <pt x="247" y="1717" on="1"/>
        <pt x="361" y="1717" on="1"/>
        <pt x="361" y="1831" on="1"/>
        <pt x="247" y="1831" on="1"/>
      </contour>
      <contour>
        <pt x="441" y="1538" on="1"/>
        <pt x="555" y="1538" on="1"/>
        <pt x="555" y="1652" on="1"/>
        <pt x="441" y="1652" on="1"/>
      </contour>
      <contour>
        <pt x="646" y="1359" on="1"/>
        <pt x="760" y="1359" on="1"/>
        <pt x="760" y="1473" on="1"/>
        <pt x="646" y="1473" on="1"/>
      </contour>
      <contour>
        <pt x="839" y="1181" on="1"/>
        <pt x="953" y="1181" on="1"/>
        <pt x="953" y="1295" on="1"/>
        <pt x="839" y="1295" on="1"/>
      </contour>
      <contour>
        <pt x="1044" y="1002" on="1"/>
        <pt x="1158" y="1002" on="1"/>
        <pt x="1158" y="1116" on="1"/>
        <pt x="1044" y="1116" on="1"/>
      </contour>
      <contour>
        <pt x="646" y="1717" on="1"/>
        <pt x="760" y="1717" on="1"/>
        <pt x="760" y="1831" on="1"/>
        <pt x="646" y="1831" on="1"/>
      </contour>
      <contour>
        <pt x="839" y="1538" on="1"/>
        <pt x="953" y="1538" on="1"/>
        <pt x="953" y="1652" on="1"/>
        <pt x="839" y="1652" on="1"/>
      </contour>
      <contour>
        <pt x="1044" y="1359" on="1"/>
        <pt x="1158" y="1359" on="1"/>
        <pt x="1158" y="1473" on="1"/>
        <pt x="1044" y="1473" on="1"/>
      </contour>
      <contour>
        <pt x="1044" y="1717" on="1"/>
        <pt x="1158" y="1717" on="1"/>
        <pt x="1158" y="1831" on="1"/>
        <pt x="1044" y="1831" on="1"/>
      </contour>
    </TTGlyph>
    <TTGlyph name="dnblock" xMin="0" yMin="-656" xMax="1200" yMax="644">
      <contour>
        <pt x="0" y="-656" on="1"/>
        <pt x="0" y="644" on="1"/>
        <pt x="1200" y="644" on="1"/>
        <pt x="1200" y="-656" on="1"/>
      </contour>
    </TTGlyph>
    <TTGlyph name="dollar" xMin="128" yMin="-236" xMax="1064" yMax="1668">
      <contour>
        <pt x="617" y="0" on="1"/>
        <pt x="426" y="0" on="0"/>
        <pt x="172" y="192" on="0"/>
        <pt x="128" y="366" on="1"/>
        <pt x="296" y="421" on="1"/>
        <pt x="330" y="287" on="0"/>
        <pt x="491" y="154" on="0"/>
        <pt x="621" y="154" on="1"/>
        <pt x="744" y="154" on="0"/>
        <pt x="881" y="272" on="0"/>
        <pt x="881" y="377" on="1"/>
        <pt x="881" y="388" on="1"/>
        <pt x="881" y="479" on="0"/>
        <pt x="790" y="593" on="0"/>
        <pt x="678" y="636" on="1"/>
        <pt x="476" y="714" on="1"/>
        <pt x="329" y="771" on="0"/>
        <pt x="179" y="947" on="0"/>
        <pt x="179" y="1068" on="1"/>
        <pt x="179" y="1084" on="1"/>
        <pt x="179" y="1190" on="0"/>
        <pt x="286" y="1346" on="0"/>
        <pt x="478" y="1432" on="0"/>
        <pt x="608" y="1432" on="1"/>
        <pt x="774" y="1432" on="0"/>
        <pt x="993" y="1290" on="0"/>
        <pt x="1043" y="1150" on="1"/>
        <pt x="880" y="1083" on="1"/>
        <pt x="840" y="1184" on="0"/>
        <pt x="710" y="1278" on="0"/>
        <pt x="607" y="1278" on="1"/>
        <pt x="488" y="1278" on="0"/>
        <pt x="358" y="1178" on="0"/>
        <pt x="358" y="1087" on="1"/>
        <pt x="358" y="1078" on="1"/>
        <pt x="358" y="1002" on="0"/>
        <pt x="443" y="908" on="0"/>
        <pt x="546" y="868" on="1"/>
        <pt x="748" y="790" on="1"/>
        <pt x="915" y="726" on="0"/>
        <pt x="1064" y="534" on="0"/>
        <pt x="1064" y="394" on="1"/>
        <pt x="1064" y="379" on="1"/>
        <pt x="1064" y="262" on="0"/>
        <pt x="954" y="92" on="0"/>
        <pt x="753" y="0" on="0"/>
      </contour>
      <contour>
        <pt x="542" y="-236" on="1"/>
        <pt x="542" y="62" on="1"/>
        <pt x="548" y="99" on="1"/>
        <pt x="548" y="736" on="1"/>
        <pt x="678" y="736" on="1"/>
        <pt x="678" y="99" on="1"/>
        <pt x="684" y="62" on="1"/>
        <pt x="684" y="-236" on="1"/>
      </contour>
      <contour>
        <pt x="548" y="759" on="1"/>
        <pt x="548" y="1339" on="1"/>
        <pt x="542" y="1381" on="1"/>
        <pt x="542" y="1668" on="1"/>
        <pt x="684" y="1668" on="1"/>
        <pt x="684" y="1381" on="1"/>
        <pt x="678" y="1339" on="1"/>
        <pt x="678" y="759" on="1"/>
      </contour>
    </TTGlyph>
    <TTGlyph name="dong" xMin="95" yMin="-104" xMax="1152" yMax="1513">
      <contour>
        <pt x="500" y="238" on="1"/>
        <pt x="386" y="238" on="0"/>
        <pt x="202" y="344" on="0"/>
        <pt x="95" y="528" on="0"/>
        <pt x="95" y="645" on="1"/>
        <pt x="95" y="659" on="1"/>
        <pt x="95" y="776" on="0"/>
        <pt x="199" y="960" on="0"/>
        <pt x="379" y="1066" on="0"/>
        <pt x="492" y="1066" on="1"/>
        <pt x="598" y="1066" on="0"/>
        <pt x="740" y="989" on="0"/>
        <pt x="792" y="918" on="1"/>
        <pt x="799" y="918" on="1"/>
        <pt x="799" y="1513" on="1"/>
        <pt x="968" y="1513" on="1"/>
        <pt x="968" y="238" on="1"/>
        <pt x="809" y="238" on="1"/>
        <pt x="809" y="401" on="1"/>
        <pt x="802" y="401" on="1"/>
        <pt x="756" y="325" on="0"/>
        <pt x="607" y="238" on="0"/>
      </contour>
      <contour>
        <pt x="115" y="-104" on="1"/>
        <pt x="115" y="73" on="1"/>
        <pt x="1048" y="73" on="1"/>
        <pt x="1048" y="-104" on="1"/>
      </contour>
      <contour>
        <pt x="536" y="392" on="1"/>
        <pt x="611" y="392" on="0"/>
        <pt x="729" y="458" on="0"/>
        <pt x="798" y="575" on="0"/>
        <pt x="798" y="650" on="1"/>
        <pt x="798" y="654" on="1"/>
        <pt x="798" y="767" on="0"/>
        <pt x="650" y="912" on="0"/>
        <pt x="536" y="912" on="1"/>
        <pt x="417" y="912" on="0"/>
        <pt x="274" y="770" on="0"/>
        <pt x="274" y="654" on="1"/>
        <pt x="274" y="650" on="1"/>
        <pt x="274" y="534" on="0"/>
        <pt x="418" y="392" on="0"/>
      </contour>
      <contour>
        <pt x="435" y="1219" on="1"/>
        <pt x="435" y="1359" on="1"/>
        <pt x="1152" y="1359" on="1"/>
        <pt x="1152" y="1219" on="1"/>
      </contour>
    </TTGlyph>
    <TTGlyph name="dotaccent" xMin="445" yMin="1278" xMax="755" yMax="1586">
      <component glyphName="uni0307" x="599" y="0" flags="0x4"/>
    </TTGlyph>
    <TTGlyph name="dotbelowcomb" xMin="-154" yMin="-485" xMax="156" yMax="-177">
      <component glyphName="uni0307" x="0" y="-1763" flags="0x4"/>
    </TTGlyph>
    <TTGlyph name="dotlessi" xMin="203" yMin="0" xMax="1077" yMax="1047">
      <contour>
        <pt x="558" y="50" on="1"/>
        <pt x="558" y="1047" on="1"/>
        <pt x="736" y="1047" on="1"/>
        <pt x="736" y="50" on="1"/>
      </contour>
      <contour>
        <pt x="203" y="0" on="1"/>
        <pt x="203" y="148" on="1"/>
        <pt x="1077" y="148" on="1"/>
        <pt x="1077" y="0" on="1"/>
      </contour>
      <contour>
        <pt x="223" y="899" on="1"/>
        <pt x="223" y="1047" on="1"/>
        <pt x="682" y="1047" on="1"/>
        <pt x="682" y="899" on="1"/>
      </contour>
    </TTGlyph>
    <TTGlyph name="e" xMin="130" yMin="-32" xMax="1062" yMax="1079">
      <contour>
        <pt x="630" y="-32" on="1"/>
        <pt x="479" y="-32" on="0"/>
        <pt x="254" y="103" on="0"/>
        <pt x="130" y="346" on="0"/>
        <pt x="130" y="509" on="1"/>
        <pt x="130" y="547" on="1"/>
        <pt x="130" y="707" on="0"/>
        <pt x="253" y="946" on="0"/>
        <pt x="475" y="1079" on="0"/>
        <pt x="623" y="1079" on="1"/>
        <pt x="756" y="1079" on="0"/>
        <pt x="953" y="964" on="0"/>
        <pt x="1062" y="755" on="0"/>
        <pt x="1062" y="615" on="1"/>
        <pt x="1062" y="577" on="0"/>
        <pt x="1057" y="506" on="0"/>
        <pt x="1052" y="472" on="1"/>
        <pt x="243" y="472" on="1"/>
        <pt x="243" y="617" on="1"/>
        <pt x="882" y="617" on="1"/>
        <pt x="882" y="621" on="1"/>
        <pt x="882" y="758" on="0"/>
        <pt x="741" y="919" on="0"/>
        <pt x="621" y="919" on="1"/>
        <pt x="479" y="919" on="0"/>
        <pt x="310" y="718" on="0"/>
        <pt x="310" y="542" on="1"/>
        <pt x="310" y="514" on="1"/>
        <pt x="310" y="338" on="0"/>
        <pt x="485" y="132" on="0"/>
        <pt x="635" y="132" on="1"/>
        <pt x="816" y="132" on="0"/>
        <pt x="909" y="295" on="1"/>
        <pt x="1055" y="202" on="1"/>
        <pt x="988" y="85" on="0"/>
        <pt x="776" y="-32" on="0"/>
      </contour>
    </TTGlyph>
    <TTGlyph name="eacute" xMin="130" yMin="-32" xMax="1062" yMax="1613">
      <component glyphName="e" x="0" y="0" flags="0x4"/>
      <component glyphName="acutecomb" x="622" y="0" flags="0x4"/>
    </TTGlyph>
    <TTGlyph name="ecaron" xMin="130" yMin="-32" xMax="1062" yMax="1613">
      <component glyphName="e" x="0" y="0" flags="0x4"/>
      <component glyphName="uni030C" x="622" y="0" flags="0x4"/>
    </TTGlyph>
    <TTGlyph name="ecircumflex" xMin="130" yMin="-32" xMax="1062" yMax="1613">
      <component glyphName="e" x="0" y="0" flags="0x4"/>
      <component glyphName="uni0302" x="622" y="0" flags="0x4"/>
    </TTGlyph>
    <TTGlyph name="edieresis" xMin="130" yMin="-32" xMax="1062" yMax="1570">
      <component glyphName="e" x="0" y="0" flags="0x4"/>
      <component glyphName="uni0308" x="622" y="0" flags="0x4"/>
    </TTGlyph>
    <TTGlyph name="edotaccent" xMin="130" yMin="-32" xMax="1062" yMax="1586">
      <component glyphName="e" x="0" y="0" flags="0x4"/>
      <component glyphName="uni0307" x="622" y="0" flags="0x4"/>
    </TTGlyph>
    <TTGlyph name="egrave" xMin="130" yMin="-32" xMax="1062" yMax="1613">
      <component glyphName="e" x="0" y="0" flags="0x4"/>
      <component glyphName="gravecomb" x="622" y="0" flags="0x4"/>
    </TTGlyph>
    <TTGlyph name="eight" xMin="135" yMin="-32" xMax="1065" yMax="1464">
      <contour>
        <pt x="600" y="-32" on="1"/>
        <pt x="467" y="-32" on="0"/>
        <pt x="256" y="75" on="0"/>
        <pt x="135" y="261" on="0"/>
        <pt x="135" y="379" on="1"/>
        <pt x="135" y="393" on="1"/>
        <pt x="135" y="515" on="0"/>
        <pt x="270" y="716" on="0"/>
        <pt x="383" y="760" on="1"/>
        <pt x="383" y="765" on="1"/>
        <pt x="290" y="811" on="0"/>
        <pt x="184" y="978" on="0"/>
        <pt x="184" y="1078" on="1"/>
        <pt x="184" y="1088" on="1"/>
        <pt x="184" y="1198" on="0"/>
        <pt x="291" y="1367" on="0"/>
        <pt x="479" y="1464" on="0"/>
        <pt x="600" y="1464" on="1"/>
        <pt x="721" y="1464" on="0"/>
        <pt x="909" y="1367" on="0"/>
        <pt x="1016" y="1198" on="0"/>
        <pt x="1016" y="1088" on="1"/>
        <pt x="1016" y="1078" on="1"/>
        <pt x="1016" y="977" on="0"/>
        <pt x="910" y="811" on="0"/>
        <pt x="817" y="765" on="1"/>
        <pt x="817" y="760" on="1"/>
        <pt x="930" y="716" on="0"/>
        <pt x="1065" y="515" on="0"/>
        <pt x="1065" y="393" on="1"/>
        <pt x="1065" y="379" on="1"/>
        <pt x="1065" y="261" on="0"/>
        <pt x="944" y="75" on="0"/>
        <pt x="734" y="-32" on="0"/>
      </contour>
      <contour>
        <pt x="600" y="140" on="1"/>
        <pt x="723" y="140" on="0"/>
        <pt x="879" y="283" on="0"/>
        <pt x="879" y="395" on="1"/>
        <pt x="879" y="417" on="1"/>
        <pt x="879" y="530" on="0"/>
        <pt x="723" y="672" on="0"/>
        <pt x="600" y="672" on="1"/>
        <pt x="477" y="672" on="0"/>
        <pt x="321" y="530" on="0"/>
        <pt x="321" y="417" on="1"/>
        <pt x="321" y="395" on="1"/>
        <pt x="321" y="283" on="0"/>
        <pt x="477" y="140" on="0"/>
      </contour>
      <contour>
        <pt x="600" y="843" on="1"/>
        <pt x="704" y="843" on="0"/>
        <pt x="832" y="961" on="0"/>
        <pt x="832" y="1058" on="1"/>
        <pt x="832" y="1078" on="1"/>
        <pt x="832" y="1174" on="0"/>
        <pt x="705" y="1292" on="0"/>
        <pt x="600" y="1292" on="1"/>
        <pt x="496" y="1292" on="0"/>
        <pt x="368" y="1174" on="0"/>
        <pt x="368" y="1078" on="1"/>
        <pt x="368" y="1058" on="1"/>
        <pt x="368" y="962" on="0"/>
        <pt x="496" y="843" on="0"/>
      </contour>
    </TTGlyph>
    <TTGlyph name="ellipsis" xMin="74" yMin="-31" xMax="1126" yMax="224">
      <contour>
        <pt x="198" y="-31" on="1"/>
        <pt x="146" y="-31" on="0"/>
        <pt x="74" y="43" on="0"/>
        <pt x="74" y="98" on="1"/>
        <pt x="74" y="151" on="0"/>
        <pt x="146" y="224" on="0"/>
        <pt x="198" y="224" on="1"/>
        <pt x="251" y="224" on="0"/>
        <pt x="322" y="151" on="0"/>
        <pt x="322" y="98" on="1"/>
        <pt x="322" y="43" on="0"/>
        <pt x="251" y="-31" on="0"/>
      </contour>
      <contour>
        <pt x="1002" y="-31" on="1"/>
        <pt x="950" y="-31" on="0"/>
        <pt x="878" y="43" on="0"/>
        <pt x="878" y="98" on="1"/>
        <pt x="878" y="151" on="0"/>
        <pt x="950" y="224" on="0"/>
        <pt x="1002" y="224" on="1"/>
        <pt x="1055" y="224" on="0"/>
        <pt x="1126" y="151" on="0"/>
        <pt x="1126" y="98" on="1"/>
        <pt x="1126" y="43" on="0"/>
        <pt x="1055" y="-31" on="0"/>
      </contour>
      <contour>
        <pt x="600" y="-31" on="1"/>
        <pt x="548" y="-31" on="0"/>
        <pt x="476" y="43" on="0"/>
        <pt x="476" y="98" on="1"/>
        <pt x="476" y="151" on="0"/>
        <pt x="548" y="224" on="0"/>
        <pt x="600" y="224" on="1"/>
        <pt x="653" y="224" on="0"/>
        <pt x="724" y="151" on="0"/>
        <pt x="724" y="98" on="1"/>
        <pt x="724" y="43" on="0"/>
        <pt x="653" y="-31" on="0"/>
      </contour>
    </TTGlyph>
    <TTGlyph name="emacron" xMin="130" yMin="-32" xMax="1062" yMax="1505">
      <component glyphName="e" x="0" y="0" flags="0x4"/>
      <component glyphName="uni0304" x="622" y="0" flags="0x4"/>
    </TTGlyph>
    <TTGlyph name="emdash" xMin="87" yMin="533" xMax="1113" yMax="719">
      <contour>
        <pt x="87" y="533" on="1"/>
        <pt x="87" y="719" on="1"/>
        <pt x="1113" y="719" on="1"/>
        <pt x="1113" y="533" on="1"/>
      </contour>
    </TTGlyph>
    <TTGlyph name="endash" xMin="108" yMin="533" xMax="1092" yMax="719">
      <contour>
        <pt x="108" y="533" on="1"/>
        <pt x="108" y="719" on="1"/>
        <pt x="1092" y="719" on="1"/>
        <pt x="1092" y="533" on="1"/>
      </contour>
    </TTGlyph>
    <TTGlyph name="eng" xMin="185" yMin="-442" xMax="1045" yMax="1079">
      <contour>
        <pt x="733" y="-442" on="1"/>
        <pt x="575" y="-442" on="0"/>
        <pt x="460" y="-344" on="1"/>
        <pt x="562" y="-208" on="1"/>
        <pt x="600" y="-240" on="0"/>
        <pt x="681" y="-274" on="0"/>
        <pt x="724" y="-274" on="1"/>
        <pt x="864" y="-274" on="0"/>
        <pt x="864" y="-107" on="1"/>
        <pt x="864" y="659" on="1"/>
        <pt x="864" y="918" on="0"/>
        <pt x="643" y="918" on="1"/>
        <pt x="517" y="918" on="0"/>
        <pt x="366" y="748" on="0"/>
        <pt x="366" y="605" on="1"/>
        <pt x="366" y="0" on="1"/>
        <pt x="185" y="0" on="1"/>
        <pt x="185" y="1047" on="1"/>
        <pt x="354" y="1047" on="1"/>
        <pt x="354" y="887" on="1"/>
        <pt x="361" y="887" on="1"/>
        <pt x="486" y="1079" on="0"/>
        <pt x="707" y="1079" on="1"/>
        <pt x="866" y="1079" on="0"/>
        <pt x="1045" y="872" on="0"/>
        <pt x="1045" y="687" on="1"/>
        <pt x="1045" y="-104" on="1"/>
        <pt x="1045" y="-261" on="0"/>
        <pt x="878" y="-442" on="0"/>
      </contour>
    </TTGlyph>
    <TTGlyph name="eogonek" xMin="130" yMin="-534" xMax="1062" yMax="1079">
      <contour>
        <pt x="775" y="-534" on="1"/>
        <pt x="697" y="-534" on="0"/>
        <pt x="574" y="-467" on="0"/>
        <pt x="503" y="-351" on="0"/>
        <pt x="503" y="-278" on="1"/>
        <pt x="503" y="-162" on="0"/>
        <pt x="678" y="16" on="0"/>
        <pt x="852" y="87" on="1"/>
        <pt x="789" y="-8" on="1"/>
        <pt x="716" y="-29" on="0"/>
        <pt x="629" y="-29" on="1"/>
        <pt x="478" y="-29" on="0"/>
        <pt x="254" y="105" on="0"/>
        <pt x="130" y="347" on="0"/>
        <pt x="130" y="509" on="1"/>
        <pt x="130" y="547" on="1"/>
        <pt x="130" y="707" on="0"/>
        <pt x="253" y="946" on="0"/>
        <pt x="475" y="1079" on="0"/>
        <pt x="623" y="1079" on="1"/>
        <pt x="756" y="1079" on="0"/>
        <pt x="953" y="964" on="0"/>
        <pt x="1062" y="755" on="0"/>
        <pt x="1062" y="615" on="1"/>
        <pt x="1062" y="577" on="0"/>
        <pt x="1057" y="506" on="0"/>
        <pt x="1052" y="472" on="1"/>
        <pt x="243" y="472" on="1"/>
        <pt x="243" y="617" on="1"/>
        <pt x="882" y="617" on="1"/>
        <pt x="882" y="621" on="1"/>
        <pt x="882" y="758" on="0"/>
        <pt x="741" y="919" on="0"/>
        <pt x="621" y="919" on="1"/>
        <pt x="479" y="919" on="0"/>
        <pt x="310" y="718" on="0"/>
        <pt x="310" y="542" on="1"/>
        <pt x="310" y="514" on="1"/>
        <pt x="310" y="338" on="0"/>
        <pt x="484" y="132" on="0"/>
        <pt x="633" y="132" on="1"/>
        <pt x="816" y="132" on="0"/>
        <pt x="909" y="295" on="1"/>
        <pt x="1055" y="202" on="1"/>
        <pt x="1021" y="143" on="0"/>
        <pt x="919" y="40" on="0"/>
        <pt x="828" y="-24" on="1"/>
        <pt x="736" y="-89" on="0"/>
        <pt x="662" y="-189" on="0"/>
        <pt x="662" y="-254" on="1"/>
        <pt x="662" y="-312" on="0"/>
        <pt x="738" y="-386" on="0"/>
        <pt x="796" y="-386" on="1"/>
        <pt x="857" y="-386" on="0"/>
        <pt x="907" y="-359" on="1"/>
        <pt x="951" y="-490" on="1"/>
        <pt x="911" y="-512" on="0"/>
        <pt x="824" y="-534" on="0"/>
      </contour>
    </TTGlyph>
    <TTGlyph name="equal" xMin="130" yMin="317" xMax="1070" yMax="935">
      <contour>
        <pt x="130" y="763" on="1"/>
        <pt x="130" y="935" on="1"/>
        <pt x="1070" y="935" on="1"/>
        <pt x="1070" y="763" on="1"/>
      </contour>
      <contour>
        <pt x="130" y="317" on="1"/>
        <pt x="130" y="489" on="1"/>
        <pt x="1070" y="489" on="1"/>
        <pt x="1070" y="317" on="1"/>
      </contour>
    </TTGlyph>
    <TTGlyph name="eth" xMin="122" yMin="-32" xMax="1092" yMax="1613">
      <contour>
        <pt x="605" y="-32" on="1"/>
        <pt x="461" y="-32" on="0"/>
        <pt x="244" y="98" on="0"/>
        <pt x="122" y="332" on="0"/>
        <pt x="122" y="487" on="1"/>
        <pt x="122" y="502" on="1"/>
        <pt x="122" y="653" on="0"/>
        <pt x="239" y="881" on="0"/>
        <pt x="445" y="1009" on="0"/>
        <pt x="580" y="1009" on="1"/>
        <pt x="704" y="1009" on="0"/>
        <pt x="867" y="898" on="0"/>
        <pt x="908" y="808" on="1"/>
        <pt x="861" y="836" on="1"/>
        <pt x="895" y="850" on="1"/>
        <pt x="874" y="978" on="0"/>
        <pt x="770" y="1205" on="0"/>
        <pt x="581" y="1400" on="0"/>
        <pt x="430" y="1480" on="1"/>
        <pt x="510" y="1613" on="1"/>
        <pt x="717" y="1491" on="0"/>
        <pt x="974" y="1194" on="0"/>
        <pt x="1092" y="813" on="0"/>
        <pt x="1092" y="564" on="1"/>
        <pt x="1092" y="552" on="1"/>
        <pt x="1092" y="368" on="0"/>
        <pt x="977" y="106" on="0"/>
        <pt x="759" y="-32" on="0"/>
      </contour>
      <contour>
        <pt x="607" y="136" on="1"/>
        <pt x="753" y="136" on="0"/>
        <pt x="906" y="328" on="0"/>
        <pt x="906" y="491" on="1"/>
        <pt x="906" y="500" on="1"/>
        <pt x="906" y="665" on="0"/>
        <pt x="751" y="855" on="0"/>
        <pt x="607" y="855" on="1"/>
        <pt x="463" y="855" on="0"/>
        <pt x="308" y="665" on="0"/>
        <pt x="308" y="500" on="1"/>
        <pt x="308" y="491" on="1"/>
        <pt x="308" y="326" on="0"/>
        <pt x="463" y="136" on="0"/>
      </contour>
      <contour>
        <pt x="323" y="1139" on="1"/>
        <pt x="289" y="1272" on="1"/>
        <pt x="693" y="1370" on="1"/>
        <pt x="778" y="1259" on="1"/>
      </contour>
      <contour>
        <pt x="802" y="1277" on="1"/>
        <pt x="718" y="1387" on="1"/>
        <pt x="1039" y="1474" on="1"/>
        <pt x="1074" y="1341" on="1"/>
      </contour>
    </TTGlyph>
    <TTGlyph name="exclam" xMin="436" yMin="-29" xMax="764" yMax="1492">
      <contour>
        <pt x="503" y="550" on="1"/>
        <pt x="475" y="1492" on="1"/>
        <pt x="725" y="1492" on="1"/>
        <pt x="697" y="550" on="1"/>
      </contour>
      <contour>
        <pt x="600" y="-29" on="1"/>
        <pt x="531" y="-29" on="0"/>
        <pt x="436" y="67" on="0"/>
        <pt x="436" y="135" on="1"/>
        <pt x="436" y="203" on="0"/>
        <pt x="531" y="299" on="0"/>
        <pt x="600" y="299" on="1"/>
        <pt x="669" y="299" on="0"/>
        <pt x="764" y="203" on="0"/>
        <pt x="764" y="135" on="1"/>
        <pt x="764" y="67" on="0"/>
        <pt x="669" y="-29" on="0"/>
      </contour>
    </TTGlyph>
    <TTGlyph name="exclamdown" xMin="436" yMin="-230" xMax="764" yMax="1291">
      <contour>
        <pt x="503" y="712" on="1"/>
        <pt x="697" y="712" on="1"/>
        <pt x="725" y="-230" on="1"/>
        <pt x="475" y="-230" on="1"/>
      </contour>
      <contour>
        <pt x="600" y="1291" on="1"/>
        <pt x="669" y="1291" on="0"/>
        <pt x="764" y="1195" on="0"/>
        <pt x="764" y="1127" on="1"/>
        <pt x="764" y="1059" on="0"/>
        <pt x="669" y="963" on="0"/>
        <pt x="600" y="963" on="1"/>
        <pt x="531" y="963" on="0"/>
        <pt x="436" y="1059" on="0"/>
        <pt x="436" y="1127" on="1"/>
        <pt x="436" y="1195" on="0"/>
        <pt x="531" y="1291" on="0"/>
      </contour>
    </TTGlyph>
    <TTGlyph name="f" xMin="136" yMin="0" xMax="1114" yMax="1492">
      <contour>
        <pt x="396" y="0" on="1"/>
        <pt x="396" y="1127" on="1"/>
        <pt x="396" y="1298" on="0"/>
        <pt x="593" y="1492" on="0"/>
        <pt x="766" y="1492" on="1"/>
        <pt x="870" y="1492" on="0"/>
        <pt x="1034" y="1436" on="0"/>
        <pt x="1114" y="1374" on="1"/>
        <pt x="1017" y="1244" on="1"/>
        <pt x="958" y="1291" on="0"/>
        <pt x="842" y="1332" on="0"/>
        <pt x="771" y="1332" on="1"/>
        <pt x="670" y="1332" on="0"/>
        <pt x="572" y="1226" on="0"/>
        <pt x="572" y="1116" on="1"/>
        <pt x="572" y="974" on="1"/>
        <pt x="576" y="936" on="1"/>
        <pt x="576" y="0" on="1"/>
      </contour>
      <contour>
        <pt x="136" y="852" on="1"/>
        <pt x="136" y="1008" on="1"/>
        <pt x="1064" y="1008" on="1"/>
        <pt x="1064" y="852" on="1"/>
      </contour>
    </TTGlyph>
    <TTGlyph name="filledbox" xMin="134" yMin="250" xMax="1066" yMax="1182">
      <contour>
        <pt x="134" y="250" on="1"/>
        <pt x="134" y="1182" on="1"/>
        <pt x="1066" y="1182" on="1"/>
        <pt x="1066" y="250" on="1"/>
      </contour>
    </TTGlyph>
    <TTGlyph name="filledrect" xMin="58" yMin="407" xMax="1142" yMax="664">
      <contour>
        <pt x="58" y="407" on="1"/>
        <pt x="58" y="664" on="1"/>
        <pt x="1142" y="664" on="1"/>
        <pt x="1142" y="407" on="1"/>
      </contour>
    </TTGlyph>
    <TTGlyph name="five" xMin="112" yMin="-31" xMax="1080" yMax="1432">
      <contour>
        <pt x="601" y="-31" on="1"/>
        <pt x="480" y="-31" on="0"/>
        <pt x="284" y="58" on="0"/>
        <pt x="145" y="225" on="0"/>
        <pt x="112" y="342" on="1"/>
        <pt x="284" y="395" on="1"/>
        <pt x="318" y="274" on="0"/>
        <pt x="479" y="145" on="0"/>
        <pt x="599" y="145" on="1"/>
        <pt x="734" y="145" on="0"/>
        <pt x="893" y="304" on="0"/>
        <pt x="893" y="437" on="1"/>
        <pt x="893" y="467" on="1"/>
        <pt x="893" y="592" on="0"/>
        <pt x="747" y="739" on="0"/>
        <pt x="624" y="739" on="1"/>
        <pt x="541" y="739" on="0"/>
        <pt x="406" y="674" on="0"/>
        <pt x="350" y="609" on="1"/>
        <pt x="156" y="669" on="1"/>
        <pt x="257" y="1432" on="1"/>
        <pt x="1002" y="1432" on="1"/>
        <pt x="1002" y="1255" on="1"/>
        <pt x="404" y="1255" on="1"/>
        <pt x="337" y="785" on="1"/>
        <pt x="342" y="783" on="1"/>
        <pt x="404" y="846" on="0"/>
        <pt x="569" y="913" on="0"/>
        <pt x="664" y="913" on="1"/>
        <pt x="788" y="913" on="0"/>
        <pt x="975" y="799" on="0"/>
        <pt x="1080" y="596" on="0"/>
        <pt x="1080" y="462" on="1"/>
        <pt x="1080" y="442" on="1"/>
        <pt x="1080" y="299" on="0"/>
        <pt x="961" y="86" on="0"/>
        <pt x="746" y="-31" on="0"/>
      </contour>
    </TTGlyph>
    <TTGlyph name="four" xMin="76" yMin="0" xMax="1114" yMax="1432">
      <contour>
        <pt x="714" y="0" on="1"/>
        <pt x="714" y="426" on="1"/>
        <pt x="720" y="466" on="1"/>
        <pt x="720" y="1257" on="1"/>
        <pt x="798" y="1166" on="1"/>
        <pt x="715" y="1166" on="1"/>
        <pt x="282" y="529" on="1"/>
        <pt x="282" y="524" on="1"/>
        <pt x="792" y="524" on="1"/>
        <pt x="838" y="528" on="1"/>
        <pt x="1114" y="528" on="1"/>
        <pt x="1114" y="358" on="1"/>
        <pt x="76" y="358" on="1"/>
        <pt x="76" y="510" on="1"/>
        <pt x="702" y="1432" on="1"/>
        <pt x="898" y="1432" on="1"/>
        <pt x="898" y="0" on="1"/>
      </contour>
    </TTGlyph>
    <TTGlyph name="fraction" xMin="56" yMin="-31" xMax="1144" yMax="1460">
      <contour>
        <pt x="56" y="-31" on="1"/>
        <pt x="1000" y="1460" on="1"/>
        <pt x="1144" y="1460" on="1"/>
        <pt x="200" y="-31" on="1"/>
      </contour>
    </TTGlyph>
    <TTGlyph name="g" xMin="86" yMin="-572" xMax="1124" yMax="1276">
      <contour>
        <pt x="593" y="-572" on="1"/>
        <pt x="437" y="-572" on="0"/>
        <pt x="210" y="-486" on="0"/>
        <pt x="86" y="-329" on="0"/>
        <pt x="86" y="-221" on="1"/>
        <pt x="86" y="-111" on="0"/>
        <pt x="213" y="52" on="0"/>
        <pt x="328" y="91" on="1"/>
        <pt x="372" y="4" on="1"/>
        <pt x="313" y="-27" on="0"/>
        <pt x="249" y="-132" on="0"/>
        <pt x="249" y="-198" on="1"/>
        <pt x="249" y="-304" on="0"/>
        <pt x="422" y="-412" on="0"/>
        <pt x="593" y="-412" on="1"/>
        <pt x="758" y="-412" on="0"/>
        <pt x="952" y="-288" on="0"/>
        <pt x="952" y="-182" on="1"/>
        <pt x="952" y="-28" on="0"/>
        <pt x="759" y="-28" on="1"/>
        <pt x="269" y="-28" on="1"/>
        <pt x="269" y="30" on="1"/>
        <pt x="470" y="352" on="1"/>
        <pt x="581" y="330" on="1"/>
        <pt x="502" y="124" on="1"/>
        <pt x="773" y="124" on="1"/>
        <pt x="939" y="124" on="0"/>
        <pt x="1124" y="-37" on="0"/>
        <pt x="1124" y="-180" on="1"/>
        <pt x="1124" y="-300" on="0"/>
        <pt x="994" y="-476" on="0"/>
        <pt x="756" y="-572" on="0"/>
      </contour>
      <contour>
        <pt x="601" y="287" on="1"/>
        <pt x="483" y="287" on="0"/>
        <pt x="292" y="390" on="0"/>
        <pt x="181" y="568" on="0"/>
        <pt x="181" y="678" on="1"/>
        <pt x="181" y="688" on="1"/>
        <pt x="181" y="802" on="0"/>
        <pt x="289" y="979" on="0"/>
        <pt x="479" y="1079" on="0"/>
        <pt x="601" y="1079" on="1"/>
        <pt x="720" y="1079" on="0"/>
        <pt x="910" y="975" on="0"/>
        <pt x="1021" y="798" on="0"/>
        <pt x="1021" y="688" on="1"/>
        <pt x="1021" y="678" on="1"/>
        <pt x="1021" y="564" on="0"/>
        <pt x="913" y="388" on="0"/>
        <pt x="723" y="287" on="0"/>
      </contour>
      <contour>
        <pt x="601" y="435" on="1"/>
        <pt x="710" y="435" on="0"/>
        <pt x="849" y="568" on="0"/>
        <pt x="849" y="671" on="1"/>
        <pt x="849" y="687" on="1"/>
        <pt x="849" y="791" on="0"/>
        <pt x="710" y="923" on="0"/>
        <pt x="601" y="923" on="1"/>
        <pt x="492" y="923" on="0"/>
        <pt x="353" y="791" on="0"/>
        <pt x="353" y="687" on="1"/>
        <pt x="353" y="671" on="1"/>
        <pt x="353" y="568" on="0"/>
        <pt x="492" y="435" on="0"/>
      </contour>
      <contour>
        <pt x="833" y="960" on="1"/>
        <pt x="763" y="996" on="1"/>
        <pt x="798" y="1132" on="0"/>
        <pt x="968" y="1276" on="0"/>
        <pt x="1095" y="1276" on="1"/>
        <pt x="1095" y="1076" on="1"/>
        <pt x="920" y="1076" on="0"/>
      </contour>
    </TTGlyph>
    <TTGlyph name="g.ss01" xMin="126" yMin="-452" xMax="1048" yMax="1079">
      <contour>
        <pt x="617" y="-452" on="1"/>
        <pt x="502" y="-452" on="0"/>
        <pt x="303" y="-373" on="0"/>
        <pt x="229" y="-298" on="1"/>
        <pt x="349" y="-171" on="1"/>
        <pt x="457" y="-288" on="0"/>
        <pt x="617" y="-288" on="1"/>
        <pt x="742" y="-288" on="0"/>
        <pt x="874" y="-132" on="0"/>
        <pt x="874" y="15" on="1"/>
        <pt x="874" y="208" on="1"/>
        <pt x="868" y="208" on="1"/>
        <pt x="821" y="120" on="0"/>
        <pt x="657" y="23" on="0"/>
        <pt x="552" y="23" on="1"/>
        <pt x="425" y="23" on="0"/>
        <pt x="233" y="151" on="0"/>
        <pt x="126" y="382" on="0"/>
        <pt x="126" y="535" on="1"/>
        <pt x="126" y="565" on="1"/>
        <pt x="126" y="720" on="0"/>
        <pt x="232" y="951" on="0"/>
        <pt x="424" y="1079" on="0"/>
        <pt x="552" y="1079" on="1"/>
        <pt x="659" y="1079" on="0"/>
        <pt x="827" y="971" on="0"/>
        <pt x="873" y="870" on="1"/>
        <pt x="879" y="870" on="1"/>
        <pt x="879" y="1047" on="1"/>
        <pt x="1048" y="1047" on="1"/>
        <pt x="1048" y="18" on="1"/>
        <pt x="1048" y="-129" on="0"/>
        <pt x="945" y="-339" on="0"/>
        <pt x="752" y="-452" on="0"/>
      </contour>
      <contour>
        <pt x="591" y="185" on="1"/>
        <pt x="719" y="185" on="0"/>
        <pt x="874" y="379" on="0"/>
        <pt x="874" y="540" on="1"/>
        <pt x="874" y="560" on="1"/>
        <pt x="874" y="722" on="0"/>
        <pt x="719" y="917" on="0"/>
        <pt x="591" y="917" on="1"/>
        <pt x="460" y="917" on="0"/>
        <pt x="311" y="727" on="0"/>
        <pt x="311" y="560" on="1"/>
        <pt x="311" y="540" on="1"/>
        <pt x="311" y="374" on="0"/>
        <pt x="460" y="185" on="0"/>
      </contour>
    </TTGlyph>
    <TTGlyph name="gbreve" xMin="86" yMin="-572" xMax="1124" yMax="1613">
      <component glyphName="g" x="0" y="0" flags="0x4"/>
      <component glyphName="uni0306" x="601" y="0" flags="0x4"/>
    </TTGlyph>
    <TTGlyph name="gdotaccent" xMin="86" yMin="-572" xMax="1124" yMax="1586">
      <component glyphName="g" x="0" y="0" flags="0x4"/>
      <component glyphName="uni0307" x="601" y="0" flags="0x4"/>
    </TTGlyph>
    <TTGlyph name="germandbls" xMin="164" yMin="-32" xMax="1140" yMax="1492">
      <contour>
        <pt x="789" y="-32" on="1"/>
        <pt x="679" y="-32" on="0"/>
        <pt x="506" y="63" on="0"/>
        <pt x="452" y="153" on="1"/>
        <pt x="591" y="247" on="1"/>
        <pt x="626" y="190" on="0"/>
        <pt x="728" y="130" on="0"/>
        <pt x="790" y="130" on="1"/>
        <pt x="867" y="130" on="0"/>
        <pt x="958" y="218" on="0"/>
        <pt x="958" y="291" on="1"/>
        <pt x="958" y="301" on="1"/>
        <pt x="958" y="372" on="0"/>
        <pt x="882" y="468" on="0"/>
        <pt x="790" y="514" on="1"/>
        <pt x="710" y="554" on="1"/>
        <pt x="637" y="591" on="0"/>
        <pt x="564" y="700" on="0"/>
        <pt x="564" y="772" on="1"/>
        <pt x="564" y="774" on="1"/>
        <pt x="564" y="853" on="0"/>
        <pt x="625" y="958" on="0"/>
        <pt x="706" y="1038" on="0"/>
        <pt x="767" y="1119" on="0"/>
        <pt x="767" y="1175" on="1"/>
        <pt x="767" y="1177" on="1"/>
        <pt x="767" y="1248" on="0"/>
        <pt x="671" y="1330" on="0"/>
        <pt x="587" y="1330" on="1"/>
        <pt x="469" y="1330" on="0"/>
        <pt x="344" y="1184" on="0"/>
        <pt x="344" y="1046" on="1"/>
        <pt x="344" y="0" on="1"/>
        <pt x="164" y="0" on="1"/>
        <pt x="164" y="1052" on="1"/>
        <pt x="164" y="1256" on="0"/>
        <pt x="392" y="1492" on="0"/>
        <pt x="590" y="1492" on="1"/>
        <pt x="751" y="1492" on="0"/>
        <pt x="949" y="1325" on="0"/>
        <pt x="949" y="1188" on="1"/>
        <pt x="949" y="1181" on="1"/>
        <pt x="949" y="1106" on="0"/>
        <pt x="888" y="998" on="0"/>
        <pt x="807" y="914" on="0"/>
        <pt x="746" y="839" on="0"/>
        <pt x="746" y="795" on="1"/>
        <pt x="746" y="788" on="1"/>
        <pt x="746" y="752" on="0"/>
        <pt x="792" y="700" on="0"/>
        <pt x="848" y="672" on="1"/>
        <pt x="928" y="632" on="1"/>
        <pt x="1036" y="578" on="0"/>
        <pt x="1140" y="414" on="0"/>
        <pt x="1140" y="299" on="1"/>
        <pt x="1140" y="296" on="1"/>
        <pt x="1140" y="147" on="0"/>
        <pt x="949" y="-32" on="0"/>
      </contour>
    </TTGlyph>
    <TTGlyph name="grave" xMin="309" yMin="882" xMax="817" yMax="1460">
      <contour>
        <pt x="621" y="882" on="1"/>
        <pt x="309" y="1460" on="1"/>
        <pt x="565" y="1460" on="1"/>
        <pt x="817" y="882" on="1"/>
      </contour>
    </TTGlyph>
    <TTGlyph name="gravecomb" xMin="-312" yMin="1253" xMax="86" yMax="1613">
      <contour>
        <pt x="-86" y="1253" on="1"/>
        <pt x="-312" y="1602" on="1"/>
        <pt x="-312" y="1613" on="1"/>
        <pt x="-90" y="1613" on="1"/>
        <pt x="86" y="1264" on="1"/>
        <pt x="86" y="1253" on="1"/>
      </contour>
    </TTGlyph>
    <TTGlyph name="greater" xMin="170" yMin="63" xMax="1050" yMax="1188">
      <contour>
        <pt x="170" y="63" on="1"/>
        <pt x="170" y="259" on="1"/>
        <pt x="852" y="622" on="1"/>
        <pt x="852" y="630" on="1"/>
        <pt x="170" y="992" on="1"/>
        <pt x="170" y="1188" on="1"/>
        <pt x="1050" y="710" on="1"/>
        <pt x="1050" y="542" on="1"/>
      </contour>
    </TTGlyph>
    <TTGlyph name="greaterequal" xMin="150" yMin="0" xMax="1050" yMax="1132">
      <contour>
        <pt x="150" y="256" on="1"/>
        <pt x="150" y="441" on="1"/>
        <pt x="657" y="630" on="1"/>
        <pt x="849" y="690" on="1"/>
        <pt x="849" y="698" on="1"/>
        <pt x="657" y="758" on="1"/>
        <pt x="150" y="947" on="1"/>
        <pt x="150" y="1132" on="1"/>
        <pt x="1050" y="785" on="1"/>
        <pt x="1050" y="604" on="1"/>
      </contour>
      <contour>
        <pt x="1050" y="0" on="1"/>
        <pt x="150" y="0" on="1"/>
        <pt x="150" y="171" on="1"/>
        <pt x="1050" y="171" on="1"/>
      </contour>
    </TTGlyph>
    <TTGlyph name="guillemotleft" xMin="60" yMin="24" xMax="1110" yMax="1041">
      <contour>
        <pt x="999" y="24" on="1"/>
        <pt x="534" y="532" on="1"/>
        <pt x="999" y="1041" on="1"/>
        <pt x="1110" y="940" on="1"/>
        <pt x="756" y="532" on="1"/>
        <pt x="1110" y="124" on="1"/>
      </contour>
      <contour>
        <pt x="525" y="24" on="1"/>
        <pt x="60" y="532" on="1"/>
        <pt x="525" y="1041" on="1"/>
        <pt x="636" y="941" on="1"/>
        <pt x="282" y="532" on="1"/>
        <pt x="636" y="123" on="1"/>
      </contour>
    </TTGlyph>
    <TTGlyph name="guillemotright" xMin="90" yMin="24" xMax="1140" yMax="1041">
      <contour>
        <pt x="201" y="24" on="1"/>
        <pt x="90" y="124" on="1"/>
        <pt x="444" y="532" on="1"/>
        <pt x="90" y="940" on="1"/>
        <pt x="201" y="1041" on="1"/>
        <pt x="666" y="532" on="1"/>
      </contour>
      <contour>
        <pt x="675" y="24" on="1"/>
        <pt x="564" y="123" on="1"/>
        <pt x="918" y="532" on="1"/>
        <pt x="564" y="941" on="1"/>
        <pt x="675" y="1041" on="1"/>
        <pt x="1140" y="532" on="1"/>
      </contour>
    </TTGlyph>
    <TTGlyph name="guilsinglleft" xMin="335" yMin="24" xMax="920" yMax="1041">
      <contour>
        <pt x="800" y="24" on="1"/>
        <pt x="335" y="532" on="1"/>
        <pt x="800" y="1041" on="1"/>
        <pt x="920" y="933" on="1"/>
        <pt x="569" y="532" on="1"/>
        <pt x="920" y="131" on="1"/>
      </contour>
    </TTGlyph>
    <TTGlyph name="guilsinglright" xMin="280" yMin="24" xMax="865" yMax="1041">
      <contour>
        <pt x="400" y="24" on="1"/>
        <pt x="280" y="131" on="1"/>
        <pt x="631" y="532" on="1"/>
        <pt x="280" y="933" on="1"/>
        <pt x="400" y="1041" on="1"/>
        <pt x="865" y="532" on="1"/>
      </contour>
    </TTGlyph>
    <TTGlyph name="h" xMin="185" yMin="0" xMax="1045" yMax="1460">
      <contour>
        <pt x="185" y="0" on="1"/>
        <pt x="185" y="1460" on="1"/>
        <pt x="366" y="1460" on="1"/>
        <pt x="366" y="905" on="1"/>
        <pt x="373" y="905" on="1"/>
        <pt x="497" y="1079" on="0"/>
        <pt x="707" y="1079" on="1"/>
        <pt x="865" y="1079" on="0"/>
        <pt x="1045" y="871" on="0"/>
        <pt x="1045" y="688" on="1"/>
        <pt x="1045" y="0" on="1"/>
        <pt x="864" y="0" on="1"/>
        <pt x="864" y="660" on="1"/>
        <pt x="864" y="918" on="0"/>
        <pt x="643" y="918" on="1"/>
        <pt x="518" y="918" on="0"/>
        <pt x="366" y="747" on="0"/>
        <pt x="366" y="606" on="1"/>
        <pt x="366" y="0" on="1"/>
      </contour>
    </TTGlyph>
    <TTGlyph name="hbar" xMin="-4" yMin="0" xMax="1036" yMax="1495">
      <contour>
        <pt x="182" y="0" on="1"/>
        <pt x="182" y="1495" on="1"/>
        <pt x="354" y="1495" on="1"/>
        <pt x="354" y="827" on="1"/>
        <pt x="362" y="827" on="1"/>
        <pt x="486" y="1009" on="0"/>
        <pt x="700" y="1009" on="1"/>
        <pt x="858" y="1009" on="0"/>
        <pt x="1036" y="802" on="0"/>
        <pt x="1036" y="619" on="1"/>
        <pt x="1036" y="0" on="1"/>
        <pt x="855" y="0" on="1"/>
        <pt x="855" y="592" on="1"/>
        <pt x="855" y="848" on="0"/>
        <pt x="637" y="848" on="1"/>
        <pt x="513" y="848" on="0"/>
        <pt x="363" y="678" on="0"/>
        <pt x="363" y="538" on="1"/>
        <pt x="363" y="0" on="1"/>
      </contour>
      <contour>
        <pt x="-4" y="1188" on="1"/>
        <pt x="-4" y="1324" on="1"/>
        <pt x="710" y="1324" on="1"/>
        <pt x="710" y="1188" on="1"/>
      </contour>
    </TTGlyph>
    <TTGlyph name="hookabovecomb" xMin="-208" yMin="1175" xMax="281" yMax="1686">
      <contour>
        <pt x="-14" y="1175" on="1"/>
        <pt x="-37" y="1319" on="1"/>
        <pt x="47" y="1328" on="0"/>
        <pt x="132" y="1387" on="0"/>
        <pt x="132" y="1436" on="1"/>
        <pt x="132" y="1530" on="0"/>
        <pt x="2" y="1530" on="1"/>
        <pt x="-79" y="1530" on="0"/>
        <pt x="-163" y="1499" on="1"/>
        <pt x="-208" y="1642" on="1"/>
        <pt x="-158" y="1663" on="0"/>
        <pt x="-49" y="1686" on="0"/>
        <pt x="6" y="1686" on="1"/>
        <pt x="131" y="1686" on="0"/>
        <pt x="281" y="1552" on="0"/>
        <pt x="281" y="1442" on="1"/>
        <pt x="281" y="1332" on="0"/>
        <pt x="126" y="1192" on="0"/>
      </contour>
    </TTGlyph>
    <TTGlyph name="hungarumlaut" xMin="218" yMin="1253" xMax="981" yMax="1613">
      <component glyphName="uni030B" x="496" y="0" flags="0x4"/>
    </TTGlyph>
    <TTGlyph name="hyphen" xMin="155" yMin="533" xMax="1045" yMax="719">
      <contour>
        <pt x="155" y="533" on="1"/>
        <pt x="155" y="719" on="1"/>
        <pt x="1045" y="719" on="1"/>
        <pt x="1045" y="533" on="1"/>
      </contour>
    </TTGlyph>
    <TTGlyph name="i" xMin="203" yMin="0" xMax="1077" yMax="1581">
      <contour>
        <pt x="558" y="60" on="1"/>
        <pt x="558" y="1047" on="1"/>
        <pt x="736" y="1047" on="1"/>
        <pt x="736" y="60" on="1"/>
      </contour>
      <contour>
        <pt x="203" y="0" on="1"/>
        <pt x="203" y="148" on="1"/>
        <pt x="1077" y="148" on="1"/>
        <pt x="1077" y="0" on="1"/>
      </contour>
      <contour>
        <pt x="223" y="899" on="1"/>
        <pt x="223" y="1047" on="1"/>
        <pt x="682" y="1047" on="1"/>
        <pt x="682" y="899" on="1"/>
      </contour>
      <contour>
        <pt x="621" y="1278" on="1"/>
        <pt x="558" y="1278" on="0"/>
        <pt x="468" y="1368" on="0"/>
        <pt x="468" y="1431" on="1"/>
        <pt x="468" y="1496" on="0"/>
        <pt x="558" y="1581" on="0"/>
        <pt x="621" y="1581" on="1"/>
        <pt x="686" y="1581" on="0"/>
        <pt x="772" y="1495" on="0"/>
        <pt x="772" y="1430" on="1"/>
        <pt x="772" y="1368" on="0"/>
        <pt x="686" y="1278" on="0"/>
      </contour>
    </TTGlyph>
    <TTGlyph name="iacute" xMin="203" yMin="0" xMax="1077" yMax="1613">
      <component glyphName="dotlessi" x="0" y="0" flags="0x4"/>
      <component glyphName="acutecomb" x="647" y="0" flags="0x4"/>
    </TTGlyph>
    <TTGlyph name="icircumflex" xMin="203" yMin="0" xMax="1077" yMax="1613">
      <component glyphName="dotlessi" x="0" y="0" flags="0x4"/>
      <component glyphName="uni0302" x="647" y="0" flags="0x4"/>
    </TTGlyph>
    <TTGlyph name="idieresis" xMin="203" yMin="0" xMax="1077" yMax="1570">
      <component glyphName="dotlessi" x="0" y="0" flags="0x4"/>
      <component glyphName="uni0308" x="647" y="0" flags="0x4"/>
    </TTGlyph>
    <TTGlyph name="igrave" xMin="203" yMin="0" xMax="1077" yMax="1613">
      <component glyphName="dotlessi" x="0" y="0" flags="0x4"/>
      <component glyphName="gravecomb" x="647" y="0" flags="0x4"/>
    </TTGlyph>
    <TTGlyph name="ij" xMin="40" yMin="-442" xMax="1140" yMax="1581">
      <contour>
        <pt x="724" y="-442" on="1"/>
        <pt x="547" y="-442" on="0"/>
        <pt x="390" y="-330" on="1"/>
        <pt x="482" y="-187" on="1"/>
        <pt x="542" y="-230" on="0"/>
        <pt x="658" y="-274" on="0"/>
        <pt x="719" y="-274" on="1"/>
        <pt x="820" y="-274" on="0"/>
        <pt x="925" y="-152" on="0"/>
        <pt x="925" y="-35" on="1"/>
        <pt x="925" y="1047" on="1"/>
        <pt x="1105" y="1047" on="1"/>
        <pt x="1105" y="-31" on="1"/>
        <pt x="1105" y="-221" on="0"/>
        <pt x="898" y="-442" on="0"/>
      </contour>
      <contour>
        <pt x="40" y="0" on="1"/>
        <pt x="40" y="148" on="1"/>
        <pt x="726" y="148" on="1"/>
        <pt x="726" y="0" on="1"/>
      </contour>
      <contour>
        <pt x="299" y="70" on="1"/>
        <pt x="299" y="1047" on="1"/>
        <pt x="477" y="1047" on="1"/>
        <pt x="477" y="70" on="1"/>
      </contour>
      <contour>
        <pt x="58" y="899" on="1"/>
        <pt x="58" y="1047" on="1"/>
        <pt x="428" y="1047" on="1"/>
        <pt x="428" y="899" on="1"/>
      </contour>
      <contour>
        <pt x="368" y="1278" on="1"/>
        <pt x="305" y="1278" on="0"/>
        <pt x="215" y="1368" on="0"/>
        <pt x="215" y="1431" on="1"/>
        <pt x="215" y="1496" on="0"/>
        <pt x="305" y="1581" on="0"/>
        <pt x="368" y="1581" on="1"/>
        <pt x="433" y="1581" on="0"/>
        <pt x="519" y="1495" on="0"/>
        <pt x="519" y="1430" on="1"/>
        <pt x="519" y="1368" on="0"/>
        <pt x="433" y="1278" on="0"/>
      </contour>
      <contour>
        <pt x="677" y="899" on="1"/>
        <pt x="677" y="1047" on="1"/>
        <pt x="1061" y="1047" on="1"/>
        <pt x="1061" y="899" on="1"/>
      </contour>
      <contour>
        <pt x="989" y="1278" on="1"/>
        <pt x="926" y="1278" on="0"/>
        <pt x="836" y="1368" on="0"/>
        <pt x="836" y="1431" on="1"/>
        <pt x="836" y="1494" on="0"/>
        <pt x="925" y="1581" on="0"/>
        <pt x="989" y="1581" on="1"/>
        <pt x="1054" y="1581" on="0"/>
        <pt x="1140" y="1495" on="0"/>
        <pt x="1140" y="1430" on="1"/>
        <pt x="1140" y="1366" on="0"/>
        <pt x="1053" y="1278" on="0"/>
      </contour>
    </TTGlyph>
    <TTGlyph name="ijacute" xMin="40" yMin="-442" xMax="1284" yMax="1613">
      <contour>
        <pt x="724" y="-442" on="1"/>
        <pt x="547" y="-442" on="0"/>
        <pt x="390" y="-330" on="1"/>
        <pt x="482" y="-187" on="1"/>
        <pt x="542" y="-230" on="0"/>
        <pt x="658" y="-274" on="0"/>
        <pt x="719" y="-274" on="1"/>
        <pt x="820" y="-274" on="0"/>
        <pt x="925" y="-152" on="0"/>
        <pt x="925" y="-35" on="1"/>
        <pt x="925" y="1047" on="1"/>
        <pt x="1105" y="1047" on="1"/>
        <pt x="1105" y="-31" on="1"/>
        <pt x="1105" y="-221" on="0"/>
        <pt x="898" y="-442" on="0"/>
      </contour>
      <contour>
        <pt x="40" y="0" on="1"/>
        <pt x="40" y="148" on="1"/>
        <pt x="726" y="148" on="1"/>
        <pt x="726" y="0" on="1"/>
      </contour>
      <contour>
        <pt x="299" y="70" on="1"/>
        <pt x="299" y="1047" on="1"/>
        <pt x="477" y="1047" on="1"/>
        <pt x="477" y="70" on="1"/>
      </contour>
      <contour>
        <pt x="58" y="899" on="1"/>
        <pt x="58" y="1047" on="1"/>
        <pt x="428" y="1047" on="1"/>
        <pt x="428" y="899" on="1"/>
      </contour>
      <contour>
        <pt x="677" y="899" on="1"/>
        <pt x="677" y="1047" on="1"/>
        <pt x="1061" y="1047" on="1"/>
        <pt x="1061" y="899" on="1"/>
      </contour>
      <contour>
        <pt x="257" y="1253" on="1"/>
        <pt x="257" y="1264" on="1"/>
        <pt x="434" y="1613" on="1"/>
        <pt x="656" y="1613" on="1"/>
        <pt x="656" y="1602" on="1"/>
        <pt x="429" y="1253" on="1"/>
      </contour>
      <contour>
        <pt x="885" y="1253" on="1"/>
        <pt x="885" y="1264" on="1"/>
        <pt x="1062" y="1613" on="1"/>
        <pt x="1284" y="1613" on="1"/>
        <pt x="1284" y="1602" on="1"/>
        <pt x="1057" y="1253" on="1"/>
      </contour>
    </TTGlyph>
    <TTGlyph name="imacron" xMin="203" yMin="0" xMax="1077" yMax="1505">
      <component glyphName="dotlessi" x="0" y="0" flags="0x4"/>
      <component glyphName="uni0304" x="647" y="0" flags="0x4"/>
    </TTGlyph>
    <TTGlyph name="invcircle" xMin="41" yMin="157" xMax="1159" yMax="1275">
      <contour>
        <pt x="41" y="157" on="1"/>
        <pt x="41" y="1275" on="1"/>
        <pt x="1159" y="1275" on="1"/>
        <pt x="1159" y="157" on="1"/>
      </contour>
      <contour>
        <pt x="600" y="182" on="1"/>
        <pt x="752" y="182" on="0"/>
        <pt x="994" y="323" on="0"/>
        <pt x="1134" y="565" on="0"/>
        <pt x="1134" y="716" on="1"/>
        <pt x="1134" y="868" on="0"/>
        <pt x="994" y="1110" on="0"/>
        <pt x="752" y="1250" on="0"/>
        <pt x="600" y="1250" on="1"/>
        <pt x="449" y="1250" on="0"/>
        <pt x="207" y="1109" on="0"/>
        <pt x="66" y="868" on="0"/>
        <pt x="66" y="716" on="1"/>
        <pt x="66" y="565" on="0"/>
        <pt x="207" y="323" on="0"/>
        <pt x="449" y="182" on="0"/>
      </contour>
      <contour>
        <pt x="600" y="300" on="1"/>
        <pt x="482" y="300" on="0"/>
        <pt x="296" y="409" on="0"/>
        <pt x="188" y="597" on="0"/>
        <pt x="188" y="716" on="1"/>
        <pt x="188" y="835" on="0"/>
        <pt x="296" y="1023" on="0"/>
        <pt x="482" y="1132" on="0"/>
        <pt x="600" y="1132" on="1"/>
        <pt x="718" y="1132" on="0"/>
        <pt x="904" y="1023" on="0"/>
        <pt x="1012" y="835" on="0"/>
        <pt x="1012" y="716" on="1"/>
        <pt x="1012" y="597" on="0"/>
        <pt x="904" y="409" on="0"/>
        <pt x="718" y="300" on="0"/>
      </contour>
    </TTGlyph>
    <TTGlyph name="iogonek" xMin="203" yMin="-534" xMax="1077" yMax="1581">
      <component glyphName="i" x="0" y="0" flags="0x4"/>
      <component glyphName="uni0328" x="714" y="3" flags="0x4"/>
    </TTGlyph>
    <TTGlyph name="itilde" xMin="203" yMin="0" xMax="1077" yMax="1615">
      <component glyphName="dotlessi" x="0" y="0" flags="0x4"/>
      <component glyphName="tildecomb" x="647" y="0" flags="0x4"/>
    </TTGlyph>
    <TTGlyph name="j" xMin="111" yMin="-442" xMax="861" yMax="1581">
      <contour>
        <pt x="444" y="-442" on="1"/>
        <pt x="266" y="-442" on="0"/>
        <pt x="111" y="-330" on="1"/>
        <pt x="203" y="-187" on="1"/>
        <pt x="262" y="-230" on="0"/>
        <pt x="378" y="-274" on="0"/>
        <pt x="439" y="-274" on="1"/>
        <pt x="540" y="-274" on="0"/>
        <pt x="645" y="-152" on="0"/>
        <pt x="645" y="-35" on="1"/>
        <pt x="645" y="1047" on="1"/>
        <pt x="825" y="1047" on="1"/>
        <pt x="825" y="-31" on="1"/>
        <pt x="825" y="-221" on="0"/>
        <pt x="618" y="-442" on="0"/>
      </contour>
      <contour>
        <pt x="239" y="899" on="1"/>
        <pt x="239" y="1047" on="1"/>
        <pt x="782" y="1047" on="1"/>
        <pt x="782" y="899" on="1"/>
      </contour>
      <contour>
        <pt x="710" y="1278" on="1"/>
        <pt x="647" y="1278" on="0"/>
        <pt x="557" y="1368" on="0"/>
        <pt x="557" y="1431" on="1"/>
        <pt x="557" y="1494" on="0"/>
        <pt x="646" y="1581" on="0"/>
        <pt x="710" y="1581" on="1"/>
        <pt x="775" y="1581" on="0"/>
        <pt x="861" y="1495" on="0"/>
        <pt x="861" y="1430" on="1"/>
        <pt x="861" y="1366" on="0"/>
        <pt x="774" y="1278" on="0"/>
      </contour>
    </TTGlyph>
    <TTGlyph name="k" xMin="174" yMin="0" xMax="1078" yMax="1460">
      <contour>
        <pt x="842" y="0" on="1"/>
        <pt x="349" y="561" on="1"/>
        <pt x="349" y="567" on="1"/>
        <pt x="819" y="1047" on="1"/>
        <pt x="1052" y="1047" on="1"/>
        <pt x="519" y="511" on="1"/>
        <pt x="519" y="623" on="1"/>
        <pt x="1078" y="0" on="1"/>
      </contour>
      <contour>
        <pt x="174" y="0" on="1"/>
        <pt x="174" y="1460" on="1"/>
        <pt x="356" y="1460" on="1"/>
        <pt x="356" y="0" on="1"/>
      </contour>
    </TTGlyph>
    <TTGlyph name="kgreenlandic" xMin="174" yMin="0" xMax="1078" yMax="1047">
      <contour>
        <pt x="842" y="0" on="1"/>
        <pt x="349" y="561" on="1"/>
        <pt x="349" y="567" on="1"/>
        <pt x="819" y="1047" on="1"/>
        <pt x="1052" y="1047" on="1"/>
        <pt x="519" y="511" on="1"/>
        <pt x="519" y="623" on="1"/>
        <pt x="1078" y="0" on="1"/>
      </contour>
      <contour>
        <pt x="174" y="0" on="1"/>
        <pt x="174" y="1047" on="1"/>
        <pt x="356" y="1047" on="1"/>
        <pt x="356" y="0" on="1"/>
      </contour>
    </TTGlyph>
    <TTGlyph name="l" xMin="116" yMin="-32" xMax="1092" yMax="1460">
      <contour>
        <pt x="782" y="-32" on="1"/>
        <pt x="616" y="-32" on="0"/>
        <pt x="425" y="163" on="0"/>
        <pt x="425" y="334" on="1"/>
        <pt x="425" y="1460" on="1"/>
        <pt x="605" y="1460" on="1"/>
        <pt x="605" y="353" on="1"/>
        <pt x="605" y="138" on="0"/>
        <pt x="793" y="138" on="1"/>
        <pt x="846" y="138" on="0"/>
        <pt x="937" y="179" on="0"/>
        <pt x="988" y="225" on="1"/>
        <pt x="1092" y="88" on="1"/>
        <pt x="1027" y="27" on="0"/>
        <pt x="873" y="-32" on="0"/>
      </contour>
      <contour>
        <pt x="116" y="1302" on="1"/>
        <pt x="116" y="1460" on="1"/>
        <pt x="520" y="1460" on="1"/>
        <pt x="520" y="1302" on="1"/>
      </contour>
    </TTGlyph>
    <TTGlyph name="lacute" xMin="116" yMin="-32" xMax="1092" yMax="2026">
      <component glyphName="l" x="0" y="0" flags="0x4"/>
      <component glyphName="acutecomb" x="514" y="413" flags="0x4"/>
    </TTGlyph>
    <TTGlyph name="lcaron" xMin="118" yMin="-32" xMax="1088" yMax="1460">
      <contour>
        <pt x="778" y="-32" on="1"/>
        <pt x="612" y="-32" on="0"/>
        <pt x="421" y="163" on="0"/>
        <pt x="421" y="334" on="1"/>
        <pt x="421" y="1460" on="1"/>
        <pt x="601" y="1460" on="1"/>
        <pt x="601" y="353" on="1"/>
        <pt x="601" y="138" on="0"/>
        <pt x="788" y="138" on="1"/>
        <pt x="841" y="138" on="0"/>
        <pt x="933" y="179" on="0"/>
        <pt x="984" y="225" on="1"/>
        <pt x="1088" y="88" on="1"/>
        <pt x="1024" y="28" on="0"/>
        <pt x="869" y="-32" on="0"/>
      </contour>
      <contour>
        <pt x="118" y="1302" on="1"/>
        <pt x="118" y="1460" on="1"/>
        <pt x="516" y="1460" on="1"/>
        <pt x="516" y="1302" on="1"/>
      </contour>
      <contour>
        <pt x="778" y="963" on="1"/>
        <pt x="811" y="1460" on="1"/>
        <pt x="1003" y="1460" on="1"/>
        <pt x="924" y="963" on="1"/>
      </contour>
    </TTGlyph>
    <TTGlyph name="ldot" xMin="116" yMin="-32" xMax="1270" yMax="1460">
      <component glyphName="l" x="0" y="0" flags="0x4"/>
      <component glyphName="period" x="506" y="640" flags="0x4"/>
    </TTGlyph>
    <TTGlyph name="less" xMin="150" yMin="63" xMax="1030" yMax="1188">
      <contour>
        <pt x="1030" y="63" on="1"/>
        <pt x="150" y="542" on="1"/>
        <pt x="150" y="710" on="1"/>
        <pt x="1030" y="1188" on="1"/>
        <pt x="1030" y="992" on="1"/>
        <pt x="348" y="630" on="1"/>
        <pt x="348" y="622" on="1"/>
        <pt x="1030" y="259" on="1"/>
      </contour>
    </TTGlyph>
    <TTGlyph name="lessequal" xMin="150" yMin="0" xMax="1050" yMax="1132">
      <contour>
        <pt x="1050" y="256" on="1"/>
        <pt x="150" y="604" on="1"/>
        <pt x="150" y="785" on="1"/>
        <pt x="1050" y="1132" on="1"/>
        <pt x="1050" y="947" on="1"/>
        <pt x="543" y="758" on="1"/>
        <pt x="351" y="698" on="1"/>
        <pt x="351" y="690" on="1"/>
        <pt x="543" y="630" on="1"/>
        <pt x="1050" y="441" on="1"/>
      </contour>
      <contour>
        <pt x="150" y="0" on="1"/>
        <pt x="150" y="171" on="1"/>
        <pt x="1050" y="171" on="1"/>
        <pt x="1050" y="0" on="1"/>
      </contour>
    </TTGlyph>
    <TTGlyph name="lfblock" xMin="0" yMin="-656" xMax="600" yMax="1944">
      <contour>
        <pt x="0" y="-656" on="1"/>
        <pt x="0" y="1944" on="1"/>
        <pt x="600" y="1944" on="1"/>
        <pt x="600" y="-656" on="1"/>
      </contour>
    </TTGlyph>
    <TTGlyph name="logicalnot" xMin="154" yMin="149" xMax="1046" yMax="720">
      <contour>
        <pt x="860" y="149" on="1"/>
        <pt x="860" y="602" on="1"/>
        <pt x="930" y="540" on="1"/>
        <pt x="154" y="540" on="1"/>
        <pt x="154" y="720" on="1"/>
        <pt x="1046" y="720" on="1"/>
        <pt x="1046" y="149" on="1"/>
      </contour>
    </TTGlyph>
    <TTGlyph name="longs" xMin="146" yMin="0" xMax="1112" yMax="1492">
      <contour>
        <pt x="400" y="0" on="1"/>
        <pt x="400" y="1088" on="1"/>
        <pt x="400" y="1212" on="0"/>
        <pt x="493" y="1393" on="0"/>
        <pt x="662" y="1492" on="0"/>
        <pt x="777" y="1492" on="1"/>
        <pt x="878" y="1492" on="0"/>
        <pt x="1039" y="1424" on="0"/>
        <pt x="1112" y="1351" on="1"/>
        <pt x="1000" y="1221" on="1"/>
        <pt x="948" y="1274" on="0"/>
        <pt x="844" y="1321" on="0"/>
        <pt x="781" y="1321" on="1"/>
        <pt x="681" y="1321" on="0"/>
        <pt x="580" y="1196" on="0"/>
        <pt x="580" y="1070" on="1"/>
        <pt x="580" y="0" on="1"/>
      </contour>
      <contour>
        <pt x="146" y="899" on="1"/>
        <pt x="146" y="1047" on="1"/>
        <pt x="488" y="1047" on="1"/>
        <pt x="488" y="899" on="1"/>
      </contour>
    </TTGlyph>
    <TTGlyph name="lozenge" xMin="108" yMin="-32" xMax="1092" yMax="1464">
      <contour>
        <pt x="522" y="-32" on="1"/>
        <pt x="108" y="716" on="1"/>
        <pt x="522" y="1464" on="1"/>
        <pt x="679" y="1464" on="1"/>
        <pt x="1092" y="716" on="1"/>
        <pt x="679" y="-32" on="1"/>
      </contour>
      <contour>
        <pt x="600" y="161" on="1"/>
        <pt x="939" y="778" on="1"/>
        <pt x="939" y="654" on="1"/>
        <pt x="600" y="1272" on="1"/>
        <pt x="262" y="654" on="1"/>
        <pt x="262" y="778" on="1"/>
      </contour>
    </TTGlyph>
    <TTGlyph name="lslash" xMin="116" yMin="-32" xMax="1092" yMax="1460">
      <contour>
        <pt x="134" y="458" on="1"/>
        <pt x="134" y="646" on="1"/>
        <pt x="497" y="849" on="1"/>
        <pt x="557" y="864" on="1"/>
        <pt x="977" y="1099" on="1"/>
        <pt x="977" y="911" on="1"/>
        <pt x="555" y="677" on="1"/>
        <pt x="495" y="662" on="1"/>
      </contour>
      <contour>
        <pt x="782" y="-32" on="1"/>
        <pt x="616" y="-32" on="0"/>
        <pt x="425" y="163" on="0"/>
        <pt x="425" y="334" on="1"/>
        <pt x="425" y="1460" on="1"/>
        <pt x="605" y="1460" on="1"/>
        <pt x="605" y="353" on="1"/>
        <pt x="605" y="138" on="0"/>
        <pt x="793" y="138" on="1"/>
        <pt x="846" y="138" on="0"/>
        <pt x="937" y="179" on="0"/>
        <pt x="988" y="225" on="1"/>
        <pt x="1092" y="88" on="1"/>
        <pt x="1027" y="27" on="0"/>
        <pt x="873" y="-32" on="0"/>
      </contour>
      <contour>
        <pt x="116" y="1302" on="1"/>
        <pt x="116" y="1460" on="1"/>
        <pt x="520" y="1460" on="1"/>
        <pt x="520" y="1302" on="1"/>
      </contour>
    </TTGlyph>
    <TTGlyph name="ltshade" xMin="48" yMin="-608" xMax="1152" yMax="1807">
      <contour>
        <pt x="1062" y="1717" on="1"/>
        <pt x="1062" y="1807" on="1"/>
        <pt x="1152" y="1807" on="1"/>
        <pt x="1152" y="1717" on="1"/>
      </contour>
      <contour>
        <pt x="48" y="-608" on="1"/>
        <pt x="48" y="-518" on="1"/>
        <pt x="138" y="-518" on="1"/>
        <pt x="138" y="-608" on="1"/>
      </contour>
      <contour>
        <pt x="48" y="-250" on="1"/>
        <pt x="48" y="-160" on="1"/>
        <pt x="138" y="-160" on="1"/>
        <pt x="138" y="-250" on="1"/>
      </contour>
      <contour>
        <pt x="252" y="-429" on="1"/>
        <pt x="252" y="-339" on="1"/>
        <pt x="342" y="-339" on="1"/>
        <pt x="342" y="-429" on="1"/>
      </contour>
      <contour>
        <pt x="454" y="-608" on="1"/>
        <pt x="454" y="-518" on="1"/>
        <pt x="544" y="-518" on="1"/>
        <pt x="544" y="-608" on="1"/>
      </contour>
      <contour>
        <pt x="48" y="107" on="1"/>
        <pt x="48" y="197" on="1"/>
        <pt x="138" y="197" on="1"/>
        <pt x="138" y="107" on="1"/>
      </contour>
      <contour>
        <pt x="252" y="-71" on="1"/>
        <pt x="252" y="19" on="1"/>
        <pt x="342" y="19" on="1"/>
        <pt x="342" y="-71" on="1"/>
      </contour>
      <contour>
        <pt x="454" y="-250" on="1"/>
        <pt x="454" y="-160" on="1"/>
        <pt x="544" y="-160" on="1"/>
        <pt x="544" y="-250" on="1"/>
      </contour>
      <contour>
        <pt x="657" y="-429" on="1"/>
        <pt x="657" y="-339" on="1"/>
        <pt x="747" y="-339" on="1"/>
        <pt x="747" y="-429" on="1"/>
      </contour>
      <contour>
        <pt x="859" y="-608" on="1"/>
        <pt x="859" y="-518" on="1"/>
        <pt x="949" y="-518" on="1"/>
        <pt x="949" y="-608" on="1"/>
      </contour>
      <contour>
        <pt x="48" y="465" on="1"/>
        <pt x="48" y="555" on="1"/>
        <pt x="138" y="555" on="1"/>
        <pt x="138" y="465" on="1"/>
      </contour>
      <contour>
        <pt x="252" y="286" on="1"/>
        <pt x="252" y="376" on="1"/>
        <pt x="342" y="376" on="1"/>
        <pt x="342" y="286" on="1"/>
      </contour>
      <contour>
        <pt x="454" y="107" on="1"/>
        <pt x="454" y="197" on="1"/>
        <pt x="544" y="197" on="1"/>
        <pt x="544" y="107" on="1"/>
      </contour>
      <contour>
        <pt x="657" y="-71" on="1"/>
        <pt x="657" y="19" on="1"/>
        <pt x="747" y="19" on="1"/>
        <pt x="747" y="-71" on="1"/>
      </contour>
      <contour>
        <pt x="859" y="-250" on="1"/>
        <pt x="859" y="-160" on="1"/>
        <pt x="949" y="-160" on="1"/>
        <pt x="949" y="-250" on="1"/>
      </contour>
      <contour>
        <pt x="1062" y="-429" on="1"/>
        <pt x="1062" y="-339" on="1"/>
        <pt x="1152" y="-339" on="1"/>
        <pt x="1152" y="-429" on="1"/>
      </contour>
      <contour>
        <pt x="48" y="823" on="1"/>
        <pt x="48" y="913" on="1"/>
        <pt x="138" y="913" on="1"/>
        <pt x="138" y="823" on="1"/>
      </contour>
      <contour>
        <pt x="252" y="644" on="1"/>
        <pt x="252" y="734" on="1"/>
        <pt x="342" y="734" on="1"/>
        <pt x="342" y="644" on="1"/>
      </contour>
      <contour>
        <pt x="454" y="465" on="1"/>
        <pt x="454" y="555" on="1"/>
        <pt x="544" y="555" on="1"/>
        <pt x="544" y="465" on="1"/>
      </contour>
      <contour>
        <pt x="657" y="286" on="1"/>
        <pt x="657" y="376" on="1"/>
        <pt x="747" y="376" on="1"/>
        <pt x="747" y="286" on="1"/>
      </contour>
      <contour>
        <pt x="859" y="107" on="1"/>
        <pt x="859" y="197" on="1"/>
        <pt x="949" y="197" on="1"/>
        <pt x="949" y="107" on="1"/>
      </contour>
      <contour>
        <pt x="1062" y="-71" on="1"/>
        <pt x="1062" y="19" on="1"/>
        <pt x="1152" y="19" on="1"/>
        <pt x="1152" y="-71" on="1"/>
      </contour>
      <contour>
        <pt x="48" y="1181" on="1"/>
        <pt x="48" y="1271" on="1"/>
        <pt x="138" y="1271" on="1"/>
        <pt x="138" y="1181" on="1"/>
      </contour>
      <contour>
        <pt x="252" y="1002" on="1"/>
        <pt x="252" y="1092" on="1"/>
        <pt x="342" y="1092" on="1"/>
        <pt x="342" y="1002" on="1"/>
      </contour>
      <contour>
        <pt x="454" y="823" on="1"/>
        <pt x="454" y="913" on="1"/>
        <pt x="544" y="913" on="1"/>
        <pt x="544" y="823" on="1"/>
      </contour>
      <contour>
        <pt x="657" y="644" on="1"/>
        <pt x="657" y="734" on="1"/>
        <pt x="747" y="734" on="1"/>
        <pt x="747" y="644" on="1"/>
      </contour>
      <contour>
        <pt x="859" y="465" on="1"/>
        <pt x="859" y="555" on="1"/>
        <pt x="949" y="555" on="1"/>
        <pt x="949" y="465" on="1"/>
      </contour>
      <contour>
        <pt x="1062" y="286" on="1"/>
        <pt x="1062" y="376" on="1"/>
        <pt x="1152" y="376" on="1"/>
        <pt x="1152" y="286" on="1"/>
      </contour>
      <contour>
        <pt x="48" y="1538" on="1"/>
        <pt x="48" y="1628" on="1"/>
        <pt x="138" y="1628" on="1"/>
        <pt x="138" y="1538" on="1"/>
      </contour>
      <contour>
        <pt x="252" y="1359" on="1"/>
        <pt x="252" y="1449" on="1"/>
        <pt x="342" y="1449" on="1"/>
        <pt x="342" y="1359" on="1"/>
      </contour>
      <contour>
        <pt x="454" y="1180" on="1"/>
        <pt x="454" y="1270" on="1"/>
        <pt x="544" y="1270" on="1"/>
        <pt x="544" y="1180" on="1"/>
      </contour>
      <contour>
        <pt x="657" y="1001" on="1"/>
        <pt x="657" y="1091" on="1"/>
        <pt x="747" y="1091" on="1"/>
        <pt x="747" y="1001" on="1"/>
      </contour>
      <contour>
        <pt x="859" y="823" on="1"/>
        <pt x="859" y="913" on="1"/>
        <pt x="949" y="913" on="1"/>
        <pt x="949" y="823" on="1"/>
      </contour>
      <contour>
        <pt x="1062" y="644" on="1"/>
        <pt x="1062" y="734" on="1"/>
        <pt x="1152" y="734" on="1"/>
        <pt x="1152" y="644" on="1"/>
      </contour>
      <contour>
        <pt x="252" y="1717" on="1"/>
        <pt x="252" y="1807" on="1"/>
        <pt x="342" y="1807" on="1"/>
        <pt x="342" y="1717" on="1"/>
      </contour>
      <contour>
        <pt x="454" y="1538" on="1"/>
        <pt x="454" y="1628" on="1"/>
        <pt x="544" y="1628" on="1"/>
        <pt x="544" y="1538" on="1"/>
      </contour>
      <contour>
        <pt x="657" y="1360" on="1"/>
        <pt x="657" y="1450" on="1"/>
        <pt x="747" y="1450" on="1"/>
        <pt x="747" y="1360" on="1"/>
      </contour>
      <contour>
        <pt x="859" y="1180" on="1"/>
        <pt x="859" y="1270" on="1"/>
        <pt x="949" y="1270" on="1"/>
        <pt x="949" y="1180" on="1"/>
      </contour>
      <contour>
        <pt x="1062" y="1001" on="1"/>
        <pt x="1062" y="1091" on="1"/>
        <pt x="1152" y="1091" on="1"/>
        <pt x="1152" y="1001" on="1"/>
      </contour>
      <contour>
        <pt x="657" y="1717" on="1"/>
        <pt x="657" y="1807" on="1"/>
        <pt x="747" y="1807" on="1"/>
        <pt x="747" y="1717" on="1"/>
      </contour>
      <contour>
        <pt x="859" y="1538" on="1"/>
        <pt x="859" y="1628" on="1"/>
        <pt x="949" y="1628" on="1"/>
        <pt x="949" y="1538" on="1"/>
      </contour>
      <contour>
        <pt x="1062" y="1360" on="1"/>
        <pt x="1062" y="1450" on="1"/>
        <pt x="1152" y="1450" on="1"/>
        <pt x="1152" y="1360" on="1"/>
      </contour>
    </TTGlyph>
    <TTGlyph name="m" xMin="102" yMin="0" xMax="1104" yMax="1079">
      <contour>
        <pt x="102" y="0" on="1"/>
        <pt x="102" y="1047" on="1"/>
        <pt x="268" y="1047" on="1"/>
        <pt x="268" y="912" on="1"/>
        <pt x="275" y="912" on="1"/>
        <pt x="302" y="992" on="0"/>
        <pt x="407" y="1079" on="0"/>
        <pt x="480" y="1079" on="1"/>
        <pt x="563" y="1079" on="0"/>
        <pt x="663" y="959" on="0"/>
        <pt x="670" y="850" on="1"/>
        <pt x="655" y="860" on="1"/>
        <pt x="682" y="965" on="0"/>
        <pt x="807" y="1079" on="0"/>
        <pt x="890" y="1079" on="1"/>
        <pt x="1104" y="1079" on="0"/>
        <pt x="1104" y="760" on="1"/>
        <pt x="1104" y="0" on="1"/>
        <pt x="925" y="0" on="1"/>
        <pt x="925" y="760" on="1"/>
        <pt x="925" y="846" on="0"/>
        <pt x="875" y="918" on="0"/>
        <pt x="826" y="918" on="1"/>
        <pt x="768" y="918" on="0"/>
        <pt x="692" y="812" on="0"/>
        <pt x="692" y="712" on="1"/>
        <pt x="692" y="0" on="1"/>
        <pt x="513" y="0" on="1"/>
        <pt x="513" y="759" on="1"/>
        <pt x="513" y="845" on="0"/>
        <pt x="463" y="918" on="0"/>
        <pt x="415" y="918" on="1"/>
        <pt x="357" y="918" on="0"/>
        <pt x="281" y="812" on="0"/>
        <pt x="281" y="712" on="1"/>
        <pt x="281" y="0" on="1"/>
      </contour>
    </TTGlyph>
    <TTGlyph name="macron" xMin="283" yMin="1341" xMax="917" yMax="1505">
      <component glyphName="uni0304" x="600" y="0" flags="0x4"/>
    </TTGlyph>
    <TTGlyph name="minus" xMin="154" yMin="540" xMax="1046" yMax="720">
      <contour>
        <pt x="154" y="540" on="1"/>
        <pt x="154" y="720" on="1"/>
        <pt x="1046" y="720" on="1"/>
        <pt x="1046" y="540" on="1"/>
      </contour>
    </TTGlyph>
    <TTGlyph name="minute" xMin="329" yMin="844" xMax="634" yMax="1460">
      <contour>
        <pt x="329" y="844" on="1"/>
        <pt x="404" y="1460" on="1"/>
        <pt x="634" y="1460" on="1"/>
        <pt x="524" y="844" on="1"/>
      </contour>
    </TTGlyph>
    <TTGlyph name="multiply" xMin="164" yMin="188" xMax="1036" yMax="1067">
      <contour>
        <pt x="285" y="188" on="1"/>
        <pt x="164" y="308" on="1"/>
        <pt x="916" y="1067" on="1"/>
        <pt x="1036" y="947" on="1"/>
      </contour>
      <contour>
        <pt x="916" y="188" on="1"/>
        <pt x="164" y="947" on="1"/>
        <pt x="285" y="1067" on="1"/>
        <pt x="1036" y="308" on="1"/>
      </contour>
    </TTGlyph>
    <TTGlyph name="n" xMin="185" yMin="0" xMax="1045" yMax="1079">
      <contour>
        <pt x="185" y="0" on="1"/>
        <pt x="185" y="1047" on="1"/>
        <pt x="354" y="1047" on="1"/>
        <pt x="354" y="887" on="1"/>
        <pt x="361" y="887" on="1"/>
        <pt x="421" y="980" on="0"/>
        <pt x="595" y="1079" on="0"/>
        <pt x="707" y="1079" on="1"/>
        <pt x="869" y="1079" on="0"/>
        <pt x="1045" y="867" on="0"/>
        <pt x="1045" y="688" on="1"/>
        <pt x="1045" y="0" on="1"/>
        <pt x="864" y="0" on="1"/>
        <pt x="864" y="660" on="1"/>
        <pt x="864" y="787" on="0"/>
        <pt x="752" y="918" on="0"/>
        <pt x="643" y="918" on="1"/>
        <pt x="519" y="918" on="0"/>
        <pt x="366" y="750" on="0"/>
        <pt x="366" y="601" on="1"/>
        <pt x="366" y="0" on="1"/>
      </contour>
    </TTGlyph>
    <TTGlyph name="nacute" xMin="185" yMin="0" xMax="1045" yMax="1613">
      <component glyphName="n" x="0" y="0" flags="0x4"/>
      <component glyphName="acutecomb" x="617" y="0" flags="0x4"/>
    </TTGlyph>
    <TTGlyph name="napostrophe" xMin="15" yMin="0" xMax="1125" yMax="1460">
      <contour>
        <pt x="349" y="0" on="1"/>
        <pt x="349" y="1047" on="1"/>
        <pt x="511" y="1047" on="1"/>
        <pt x="511" y="896" on="1"/>
        <pt x="518" y="896" on="1"/>
        <pt x="627" y="1078" on="0"/>
        <pt x="824" y="1078" on="1"/>
        <pt x="967" y="1078" on="0"/>
        <pt x="1125" y="880" on="0"/>
        <pt x="1125" y="707" on="1"/>
        <pt x="1125" y="0" on="1"/>
        <pt x="951" y="0" on="1"/>
        <pt x="951" y="680" on="1"/>
        <pt x="951" y="918" on="0"/>
        <pt x="761" y="918" on="1"/>
        <pt x="653" y="918" on="0"/>
        <pt x="523" y="758" on="0"/>
        <pt x="523" y="627" on="1"/>
        <pt x="523" y="0" on="1"/>
      </contour>
      <contour>
        <pt x="15" y="882" on="1"/>
        <pt x="248" y="1460" on="1"/>
        <pt x="464" y="1460" on="1"/>
        <pt x="191" y="882" on="1"/>
      </contour>
    </TTGlyph>
    <TTGlyph name="ncaron" xMin="185" yMin="0" xMax="1045" yMax="1613">
      <component glyphName="n" x="0" y="0" flags="0x4"/>
      <component glyphName="uni030C" x="617" y="0" flags="0x4"/>
    </TTGlyph>
    <TTGlyph name="nine" xMin="123" yMin="-44" xMax="1077" yMax="1462">
      <contour>
        <pt x="601" y="1462" on="1"/>
        <pt x="741" y="1462" on="0"/>
        <pt x="955" y="1339" on="0"/>
        <pt x="1077" y="1121" on="0"/>
        <pt x="1077" y="980" on="1"/>
        <pt x="1077" y="960" on="1"/>
        <pt x="1077" y="877" on="0"/>
        <pt x="1033" y="715" on="0"/>
        <pt x="937" y="539" on="0"/>
        <pt x="859" y="436" on="1"/>
        <pt x="499" y="-44" on="1"/>
        <pt x="345" y="68" on="1"/>
        <pt x="621" y="409" on="1"/>
        <pt x="664" y="462" on="0"/>
        <pt x="740" y="542" on="0"/>
        <pt x="783" y="580" on="1"/>
        <pt x="778" y="587" on="1"/>
        <pt x="673" y="510" on="0"/>
        <pt x="539" y="510" on="1"/>
        <pt x="419" y="510" on="0"/>
        <pt x="231" y="630" on="0"/>
        <pt x="123" y="837" on="0"/>
        <pt x="123" y="968" on="1"/>
        <pt x="123" y="988" on="1"/>
        <pt x="123" y="1126" on="0"/>
        <pt x="246" y="1340" on="0"/>
        <pt x="462" y="1462" on="0"/>
      </contour>
      <contour>
        <pt x="601" y="1284" on="1"/>
        <pt x="470" y="1284" on="0"/>
        <pt x="311" y="1123" on="0"/>
        <pt x="311" y="993" on="1"/>
        <pt x="311" y="963" on="1"/>
        <pt x="311" y="832" on="0"/>
        <pt x="469" y="670" on="0"/>
        <pt x="599" y="670" on="1"/>
        <pt x="730" y="670" on="0"/>
        <pt x="889" y="833" on="0"/>
        <pt x="889" y="963" on="1"/>
        <pt x="889" y="993" on="1"/>
        <pt x="889" y="1123" on="0"/>
        <pt x="731" y="1284" on="0"/>
      </contour>
    </TTGlyph>
    <TTGlyph name="ntilde" xMin="185" yMin="0" xMax="1045" yMax="1615">
      <component glyphName="n" x="0" y="0" flags="0x4"/>
      <component glyphName="tildecomb" x="617" y="0" flags="0x4"/>
    </TTGlyph>
    <TTGlyph name="numbersign" xMin="43" yMin="-17" xMax="1157" yMax="1449">
      <contour>
        <pt x="624" y="-17" on="1"/>
        <pt x="833" y="1449" on="1"/>
        <pt x="986" y="1449" on="1"/>
        <pt x="777" y="-17" on="1"/>
      </contour>
      <contour>
        <pt x="214" y="-17" on="1"/>
        <pt x="423" y="1449" on="1"/>
        <pt x="576" y="1449" on="1"/>
        <pt x="367" y="-17" on="1"/>
      </contour>
      <contour>
        <pt x="43" y="366" on="1"/>
        <pt x="43" y="516" on="1"/>
        <pt x="1081" y="516" on="1"/>
        <pt x="1081" y="366" on="1"/>
      </contour>
      <contour>
        <pt x="116" y="916" on="1"/>
        <pt x="116" y="1066" on="1"/>
        <pt x="1157" y="1066" on="1"/>
        <pt x="1157" y="916" on="1"/>
      </contour>
    </TTGlyph>
    <TTGlyph name="o" xMin="114" yMin="-32" xMax="1086" yMax="1079">
      <contour>
        <pt x="600" y="-32" on="1"/>
        <pt x="455" y="-32" on="0"/>
        <pt x="236" y="104" on="0"/>
        <pt x="114" y="349" on="0"/>
        <pt x="114" y="510" on="1"/>
        <pt x="114" y="537" on="1"/>
        <pt x="114" y="699" on="0"/>
        <pt x="236" y="943" on="0"/>
        <pt x="455" y="1079" on="0"/>
        <pt x="600" y="1079" on="1"/>
        <pt x="745" y="1079" on="0"/>
        <pt x="964" y="943" on="0"/>
        <pt x="1086" y="699" on="0"/>
        <pt x="1086" y="537" on="1"/>
        <pt x="1086" y="510" on="1"/>
        <pt x="1086" y="349" on="0"/>
        <pt x="964" y="104" on="0"/>
        <pt x="745" y="-32" on="0"/>
      </contour>
      <contour>
        <pt x="600" y="136" on="1"/>
        <pt x="740" y="136" on="0"/>
        <pt x="900" y="338" on="0"/>
        <pt x="900" y="513" on="1"/>
        <pt x="900" y="534" on="1"/>
        <pt x="900" y="710" on="0"/>
        <pt x="740" y="911" on="0"/>
        <pt x="600" y="911" on="1"/>
        <pt x="461" y="911" on="0"/>
        <pt x="300" y="710" on="0"/>
        <pt x="300" y="534" on="1"/>
        <pt x="300" y="513" on="1"/>
        <pt x="300" y="338" on="0"/>
        <pt x="461" y="136" on="0"/>
      </contour>
    </TTGlyph>
    <TTGlyph name="oacute" xMin="114" yMin="-32" xMax="1086" yMax="1613">
      <component glyphName="o" x="0" y="0" flags="0x4"/>
      <component glyphName="acutecomb" x="600" y="0" flags="0x4"/>
    </TTGlyph>
    <TTGlyph name="ocircumflex" xMin="114" yMin="-32" xMax="1086" yMax="1613">
      <component glyphName="o" x="0" y="0" flags="0x4"/>
      <component glyphName="uni0302" x="600" y="0" flags="0x4"/>
    </TTGlyph>
    <TTGlyph name="odieresis" xMin="114" yMin="-32" xMax="1086" yMax="1570">
      <component glyphName="o" x="0" y="0" flags="0x4"/>
      <component glyphName="uni0308" x="600" y="0" flags="0x4"/>
    </TTGlyph>
    <TTGlyph name="oe" xMin="26" yMin="-32" xMax="1173" yMax="1079">
      <contour>
        <pt x="345" y="-32" on="1"/>
        <pt x="191" y="-32" on="0"/>
        <pt x="26" y="247" on="0"/>
        <pt x="26" y="506" on="1"/>
        <pt x="26" y="541" on="1"/>
        <pt x="26" y="800" on="0"/>
        <pt x="191" y="1079" on="0"/>
        <pt x="345" y="1079" on="1"/>
        <pt x="452" y="1079" on="0"/>
        <pt x="592" y="930" on="0"/>
        <pt x="620" y="784" on="1"/>
        <pt x="580" y="784" on="1"/>
        <pt x="606" y="919" on="0"/>
        <pt x="769" y="1079" on="0"/>
        <pt x="879" y="1079" on="1"/>
        <pt x="1017" y="1079" on="0"/>
        <pt x="1173" y="828" on="0"/>
        <pt x="1173" y="605" on="1"/>
        <pt x="1173" y="571" on="0"/>
        <pt x="1171" y="509" on="0"/>
        <pt x="1169" y="475" on="1"/>
        <pt x="614" y="475" on="1"/>
        <pt x="614" y="613" on="1"/>
        <pt x="1007" y="613" on="1"/>
        <pt x="1007" y="621" on="1"/>
        <pt x="1007" y="925" on="0"/>
        <pt x="859" y="925" on="1"/>
        <pt x="771" y="925" on="0"/>
        <pt x="666" y="720" on="0"/>
        <pt x="666" y="542" on="1"/>
        <pt x="666" y="510" on="1"/>
        <pt x="666" y="329" on="0"/>
        <pt x="768" y="126" on="0"/>
        <pt x="859" y="126" on="1"/>
        <pt x="911" y="126" on="0"/>
        <pt x="991" y="199" on="0"/>
        <pt x="1026" y="278" on="1"/>
        <pt x="1166" y="212" on="1"/>
        <pt x="1063" y="-32" on="0"/>
        <pt x="868" y="-32" on="1"/>
        <pt x="745" y="-32" on="0"/>
        <pt x="580" y="153" on="0"/>
        <pt x="560" y="307" on="1"/>
        <pt x="622" y="307" on="1"/>
        <pt x="597" y="141" on="0"/>
        <pt x="456" y="-32" on="0"/>
      </contour>
      <contour>
        <pt x="356" y="126" on="1"/>
        <pt x="521" y="126" on="0"/>
        <pt x="521" y="509" on="1"/>
        <pt x="521" y="538" on="1"/>
        <pt x="521" y="921" on="0"/>
        <pt x="356" y="921" on="1"/>
        <pt x="191" y="921" on="0"/>
        <pt x="191" y="538" on="1"/>
        <pt x="191" y="509" on="1"/>
        <pt x="191" y="126" on="0"/>
      </contour>
    </TTGlyph>
    <TTGlyph name="ogonek" xMin="379" yMin="-537" xMax="821" yMax="84">
      <component glyphName="uni0328" x="705" y="0" flags="0x4"/>
    </TTGlyph>
    <TTGlyph name="ograve" xMin="114" yMin="-32" xMax="1086" yMax="1613">
      <component glyphName="o" x="0" y="0" flags="0x4"/>
      <component glyphName="gravecomb" x="600" y="0" flags="0x4"/>
    </TTGlyph>
    <TTGlyph name="ohorn" xMin="114" yMin="-31" xMax="1150" yMax="1405">
      <contour>
        <pt x="598" y="-31" on="1"/>
        <pt x="452" y="-31" on="0"/>
        <pt x="234" y="105" on="0"/>
        <pt x="114" y="348" on="0"/>
        <pt x="114" y="510" on="1"/>
        <pt x="114" y="537" on="1"/>
        <pt x="114" y="700" on="0"/>
        <pt x="234" y="943" on="0"/>
        <pt x="452" y="1078" on="0"/>
        <pt x="598" y="1078" on="1"/>
        <pt x="667" y="1078" on="0"/>
        <pt x="764" y="1064" on="0"/>
        <pt x="819" y="1064" on="1"/>
        <pt x="962" y="1064" on="0"/>
        <pt x="962" y="1177" on="1"/>
        <pt x="962" y="1212" on="0"/>
        <pt x="938" y="1276" on="0"/>
        <pt x="912" y="1314" on="1"/>
        <pt x="1083" y="1405" on="1"/>
        <pt x="1150" y="1305" on="0"/>
        <pt x="1150" y="1201" on="1"/>
        <pt x="1150" y="1096" on="0"/>
        <pt x="988" y="970" on="0"/>
        <pt x="851" y="970" on="1"/>
        <pt x="745" y="970" on="1"/>
        <pt x="759" y="1033" on="1"/>
        <pt x="914" y="986" on="0"/>
        <pt x="1082" y="727" on="0"/>
        <pt x="1082" y="537" on="1"/>
        <pt x="1082" y="510" on="1"/>
        <pt x="1082" y="347" on="0"/>
        <pt x="962" y="104" on="0"/>
        <pt x="744" y="-31" on="0"/>
      </contour>
      <contour>
        <pt x="598" y="137" on="1"/>
        <pt x="738" y="137" on="0"/>
        <pt x="896" y="336" on="0"/>
        <pt x="896" y="513" on="1"/>
        <pt x="896" y="534" on="1"/>
        <pt x="896" y="713" on="0"/>
        <pt x="738" y="916" on="0"/>
        <pt x="598" y="916" on="1"/>
        <pt x="459" y="916" on="0"/>
        <pt x="300" y="713" on="0"/>
        <pt x="300" y="534" on="1"/>
        <pt x="300" y="513" on="1"/>
        <pt x="300" y="336" on="0"/>
        <pt x="459" y="137" on="0"/>
      </contour>
    </TTGlyph>
</ttFont>
